<svg xmlns="http://www.w3.org/2000/svg" viewBox="0 0 595.3 841.9">
  <defs>
    <clipPath id="a">
      <path fill="none" d="M0 0h595v842H0z"/>
    </clipPath>
    <clipPath id="b">
      <path fill="none" d="M0 0h595v842H0z"/>
    </clipPath>
  </defs>
  <g clip-path="url(#a)">
    <g clip-path="url(#b)">
      <path d="M467 354c2 0 1 1-2 4l-3 3c0-2 4-7 5-7m76-23c2-2 3-3 1-3l-3 3-2 3 4-3m-89 34 5-6v-2l-5 8m68-27-4 6 4-5v-1m-49 14-2 3c0 1 4-1 5-3s-1-3-3 0m-49 3-5-12 1 8c3 7 4 9 4 4m3-11c1-2 1-3-2-3l-4-1-5-1 4 4c4 2 6 3 7 1m1 17 3-8c-1-1-3 1-3 5v3m-21 19 11-11c8-6 9-8 7-8-3 0-21 18-21 22 0 0 2 0 3-3m-9-1 2-2 3-5 4-10c2-7 3-11 3-19 0-10-1-15-3-15v6c2 13 0 24-6 37l-3 8m129-27c0 2 1 2 2-1l1-2-3 3m6-7c1-2 1-2-2-1l-1 1c0 2 1 1 3 0m-48 19h-4l10 2c7 2 9 2 12 1l6-1h13c18-2 30 1 34 6 3 4 5 4 4 1 0-3-8-8-15-10l-19-2a327 327 0 0 1-34-2l20 4c6 0 7 0 4 1a90 90 0 0 1-28-4c-2 0-2 1 0 1 5 2 3 4-3 3m76 2c1 3 3-3 4-13a174 174 0 0 1 6-25c-2 0-10 33-10 38m-67-48c8-1 11 0 15 1l7 1 20-8 10-4a121 121 0 0 0 35-13c7-2 2 5-5 7a1439 1439 0 0 0-38 12c-12 5-36 13-37 12s1-2 4-3c4-1 4-2 0-3l-12 2 5 4c10 5 8 11-4 13l-9-1c-4-2-8-1-38 10-9 4-12 4-12 3l4-2c4-2 5-3 5-7 2-9 4-14 9-17l10-7c6-4 7-4 16-2 5 2 7 2 15 2m-2 6c-1-2-3-3-5-3l-9-2c-7-2-10-2-15 2l-4 4-5 2c-4 2-4 3-4 6l-1 7c-3 6-2 6 3 4 2 0 2-1 2-3-1-2-1-2 5-3 7-1 14-5 13-8 0-2 0-3 4-3s5 1 8 4 4 3 9 3l7-2 2-2-2-2-4-1-4-3m19 18-4 6-2 4c0 2 4-3 6-8l1-4-1 2m65-23-4 6c0 2 5-3 7-8 3-5 7-16 6-17l-3 6-6 13M361 72h-3c-2 2-2 2 1 2 2-1 3-1 2-2m175 259c1-2 1-2-1-1l-1 2c0 2 1 1 2-1m-103-10c3-3 4-6 4-8l-8-9-7-6 3-5c3-4 3-4 2-9-2-9-12-19-22-24-5-2-5 1 0 3 11 5 22 21 18 27-2 3-4 3-4 0 0-4-4-6-11-6-4 0-6-1-6-2-1-1-1 2-2 9 0 9 0 10-2 7-1-4-3-4-2 0 1 6 8 24 9 25 2 0 2-3 0-7l-2-16-1-14 4 1c4 1 4 1 11 9l12 12 5 6c0 2-5 7-7 7l-1-4c-1-4-7-11-10-12l-5 2c-5 3-5 5 0 5 6 0 6 0 9 3s3 4 1 4l-2 1c-1 2-3 2-4 1h-1c-1 1 4 6 9 8 4 2 4 2 4 6v4l3-7c0-2-3-5-7-6-3-2-2-3 1-4h3c1 1 5 1 6-1m76 30c1 1 1 0 3-1l3-3v-2l-2-1-2 3-2 4m-6-4 2-1 1-2-3 3m29-9c-2 0-6 4-8 9l-2 4c0 2 1 0 3-4s3-6 6-7 4-2 1-2M346 537l2 3c1 0-3-9-5-10l3 7m22-4c-2 0-3 2-2 5l3 7 1 4v-6c1-7 0-10-2-10m-12 21 3 3 6 7c7 6 8 8 8 6a247 247 0 0 0-21-25l-3-4c-1 2 5 12 7 13m25 12c-1 0-2 1-1 2l1 3c1 2 3 4 3 2l-3-7m-12-15h3v-1l-3 1m-13-8c-1 0-1 1 2 4 1 3 3 4 3 3l-5-7m2-22 6-4c3-1 5-3 7-9v-8c-1-7-1-7 1-9 1-2 2-3 1-4s-2-1-3 1c-1 1-2 3-1 8 0 7-1 16-4 18-2 3-3 1-1-3v-7c-1-3-1-2-2 3l-1 8v2c-3 2-3 2-3-1s-2-4-3-2v4c0 4-2 4-3 1l-2-2c-2 0-2 4 0 4l-2 2-3 1 2 1 5-2 6-2m-40 8 7 2c-1-2-13-8-14-7-1 0 1 2 7 5m-22-41h2-2c-1 0-1 0 0 0m298-184-2 4-1 5-4 11a9818 9818 0 0 0-13 55c-1 3-6 6-9 8l-5 2c-1 1 0 9 2 12l1 6 1 7-2 4c-2 2-3 4-3 9l-2 5c-2 0-2-2-2-15 0-9 0-13 1-12v-5c-1-7-2-10-4-10l-12 4a502 502 0 0 1-49 20 206 206 0 0 0-26 9l-8 3-8 2-6 3c-3 2-3 2-5 1l1 3c1 3 1 6-1 6l-1-1-1-2v4l1 3-1 14-1 14c-2 2-3-1-3-9l-1-10h-1v9c0 9-1 11-2 4l-2-5-3-8-3-6 2 9c3 13 6 17 8 19 2 0 3 2 3 3 0 3-2 7-4 8-2 0-3 4-1 5l-1 7c-1-1-2 1-2 2 0 3-1 4-3 4-1 0-2 1-1 2v7l-2-2c0-2-1-2-2-2-1 1-1 4 1 9 0 2 0 2-2 2s-3 1-3 3c-1 2-1 3-3 2-2 0-3 0-4 2-1 3-3 2-2-2s-1-11-4-18c-2-2-4-8-5-12-2-7-3-11-4-10l1 6a224 224 0 0 1 8 36l-2-5c-2-5-4-6-4-2a596 596 0 0 1 54 57l-2-2a70 70 0 0 0-16-17l-21-17-13-9c-6-5-7-6-7-8l-1-3c-1 0-2 2-2 6 0 6 1 6 2 6 3 0 7 4 7 7l-4 8c-1 0-1-3 1-5s2-6 0-7l-5-1h-3v-6l-1-8c0-2 0-2 3-3 3 0 3-1 0-7l-3-7c0-2 0-2-3-1-4 0-4-1-2-4 2-2 3-4 2-6-1-3-3-2-3 1 0 2 0 2-1 1v-16c-2-2-2-2 1-5 4-2 5-6 2-6v-4l1-8c0-3 1-5 3-6l2-3 2 7 5 10c4 6 3 0-2-9l-4-10c0-3 2-1 5 6s5 9 5 6c0-2-8-17-10-18-3-2-4-1-5 1l-2 7-2 4 1-5-1-5c-1 0-6 10-6 13l-2 13c-1 6-2 10-1 11v6c0 3 0 4-3 6l-8 3c-4 1-4 1-4 5l-1 4-1-2c0-4-1-4-6-4l-4 1 1 5 1 15-2-9c-1-11-1-11-7-10-7 1-7-1-1-2l6-1h2l5-1 6-2 9-3c5-3 5-4 5-7s-1-4-2-2l-2 2h-3c-2 0-2 0 0 1s1 1-2 2l-3 1v-7c0-7 0-8 2-7l3 3c0 3 0 3 1 2l1-7v-15c1-3 0-3-2-3-6 0-6 0-6 5v3l-1-3-2-3 1 10v3l-2-6-1-7c-1-2-3-2-4 1 0 3-2 4-2 1 0-2-1-2-4-2h-4v5l1 5 1 3v1c-1-1-1-1-1 1l1 2c1 0 3 7 3 12 0 4-2 3-3-1 0-3-1-4-2-3l-1-2v-4c-1-2-1-2-1 1-1 2-1-1-1-8v-12l-6-1c-10-2-15-1-20 0-5 2-5 3 0 3l3 2 1 4 8 17-3 3-3 3c1 1 0 2-2 2-2 1-3 4-1 4h2l1-1c3 0 5 4 5 8l1 10c1 5 1 6 8 11 8 5 9 5 9-3l1-4c1-1 1 9-1 14 0 3-2 6-3 8-2 3-2 5 0 6 3 1 7 8 7 12v4l9 3 13 8 5 5 3 2 7 7c5 5 7 6 13 4 3-1 7-9 7-13 0-3 2-4 3-2 1 3 2-1 2-7 1-5 1-6 2-4l1 5c0 4 4 10 19 28a366 366 0 0 1 49 78c-1 1-4-1-4-4l-2-2 8 21a497 497 0 0 1 3 13l-10-22c-2 0 0 8 10 35l5 14-7-14-6-12 16 43c6 14 7 15 4 12l-10-20a458 458 0 0 1 7 29c-1-1-1 0-1 1l1 6a209 209 0 0 1 7 28 545 545 0 0 1-18-55 605 605 0 0 1 4 33 520 520 0 0 0-9-25 309 309 0 0 1 7 32l7 24-1 1-4-13c-4-16-5-20-6-19l3 18a1480 1480 0 0 0-24-90c2-1 6 8 8 16 2 10 5 13 3 5l-1-10-2-11a1327 1327 0 0 1 0-8l-1-15c-1-16-3-22-7-31l-3-8-2-7-3-6-3-6-4-6c-2-4-23-33-33-44l-1-3-3 3-2 5c0 3 12 22 14 22l2 3 2 5a198 198 0 0 1 21 45 1082 1082 0 0 0 8 25l-4-6-6-14a341 341 0 0 0-23-50l-1-2-13-22-2-2-1 5c1 2-1 2-6 2-7 0-8 0-13-3l-8-4c-2 0-3-1-4-4l-4-4c-2-1-3-1-4 1-1 3 1 11 4 16l3 8 5 11 4 13a2816 2816 0 0 0 19 71c1 2 2 11 0 11v2l-2 5-2 4 1-8c1-7 1-7-1-7s-3-1-3-2c-1-2-1-2-1 2-1 5-2 5-4 3-1-2-2-2-2 2l-1 3v29c0 30 0 32-3 8v-33l2-28a210 210 0 0 0-9-66 135 135 0 0 0-13-40c-4-11-5-14-12-19-6-4-6-5-6-7 1-3-1-8-3-8s-3 7-2 10v11c2 9 3 31 2 31l-1-4a348 348 0 0 0-13-53c-1-2-2-4-3-3l-2 1c-5 0-7 13-3 20 3 5 2 9-2 13-5 4-7 4-7 0 0-2 0-3 4-5 2-1 2-2 1-5l-1-3-1 1-1-9c0-10-1-14-6-16l-4-3c0-2-4-2-5-1l1 5c1 3 0 4-1 6-2 3-2 10-1 21 2 7 1 8 0 12-2 5-4 5-3 1 1-5 0-11-1-17-2-7-1-41 1-52v-13c-3-13-3-16-3-20-1-4-2-5-3-3l-2 1c-1 0-2 2 0 3v15l-1 14c-1 1-1 0-1-4v-7l-1-1-2 9c0 7-1 10-2 10l-2 6a372 372 0 0 1-3 16c1-13 1-14-1-16l-1-4v-2c-1 0-2 8-2 20 0 7-1 9-1 5l-1-5-2 1-2 1 1 1c2 0 2 1 2 3 0 4-2 10-2 7 0-2-5-5-12-9-7-3-9-5-5-5l6 2 4 2 1-3 1-11c0-9 0-9-7-7l-5 1c-1-1 3-3 7-4 3-1 4-2 4-4l1-2 1 3 1 3 1-3c-2-7-2-15-1-18v-4l-2-3-3-6c-4-4-4-4-4-1l-1 2v-19l1-14v-7c-2-1 0-3 6-6l3-3-5-1-11-4-5-2c-1 1 2 2 5 4l8 3c1 2-2 3-3 1l-3-1c-2 1-2 1 0 2 4 1 2 3-5 7l-7 6-2 3c-3 3-4 2-1-1 2-2 1-3-2-2h-4l-4 1c-4 2-4 2-2 2h4c1-1 1 0 1 1l-3 3-17 10-14 8 3-3c4-4 4-6 0-2-4 2-5 3-4 1 0-2-1-1-10 4h-1v-2c-2 0-6 4-6 6l-1 3-4 9c-2 7-3 12-5 37l-2 8v-5a129 129 0 0 0 1-22v-6l-1-8-1-5-1 10c-1 11-2 14-2 3s-3-11-4-1v6c-1 1-1-1-1-6 1-11-2-10-4 2l-1 4v-4l-1-3-2 3c-2 3-3 8-1 12 1 1 0 2-2 2-2-1-2-1-2-7 0-10 5-28 7-27v3l-3 7c-2 7 1 6 3-1 4-10 10-21 14-23 3-2 14-5 16-5 4 2 13-2 12-5-1-1 5-12 6-13 2-1 1 2-2 7l-2 5 8-8c2-3 3-3 5 0 0 2 2 3 3 3 2 0 2-1 2-6s-1-8-4-12c-5-10-2-12 5-4 6 8 7 10 7 13 1 3 2 3 5 0l3-1 2-1 2-2c3 0 3-1 0-2-4-1-5-4-4-13 0-7 0-11-2-18l-2-21-1-11-3-2-5-3-6-2c-5-1-17-7-18-10 0-2-5-3-8-2-2 1-2-1 0-3s4-1 21 6c19 8 29 11 32 10h5c3 0 4 0 6-2 2-3 10-5 14-5 2 0 11 7 15 12l4 5c1 0 2 1 2 3-1 2-1 3-7 4l-6 2v5c0 3 0 4 3 5s12 10 14 13c1 2 2 2 5 1 4-1 6-1 6 2l3 4 3 3 1 1 3-2 9-6 12-9c4-2 6-4 4-6-2 0-2-4-1-4l3 3c0 2 1 3 2 3l6-3c1-1 10-4 11-3l-2 2-20 9-12 9c-9 8-19 14-25 14l-2 1-4 3-9 4-11 5c-7 1-7 1-8 5 0 3 1 16 3 21 1 4 10 8 16 7 3 0 3-1-3-2l-7-3c-1-1 3-1 7 1 3 1 16 2 14 0l-7-2-7-1c-1-2 2-2 8-1l9 1c4 0 2-1-3-2l-4-2h1l8 1c8 0 7-1-1-2l-4-2 2-1 6 1 4 1-3-2-4-1h5c4 1 5 0 2-2h2l4-1c2-2 15-7 22-7 4 0 5 1 10 4 6 5 10 5 4 0-6-4-5-5 1 0l6 3c2 0 1 0-1-2-2-1-3-3-2-3l4 2c3 3 5 4 4 2v-3c0-2 1-2 6-2l8 1c2 1 8-2 12-6l6-2 7-2 5-2 1-1-3-1-7 2-13 5c-2 2-3 2-5 1l-8-2c-7 0-10-2-6-3 2-1 3 0 5 1h1c0-3 5-3 6-1 2 3 4 2 10-1 2-2 7-3 11-4 9-2 11-3 17-6 3-2 8-8 8-10l-9 2c-7 4-20 7-20 5h-3c-2 2-12 3-13 2s3-5 6-5 6-1 12-6c5-5 8-4 3 1l4-3 8-6 3-4 1-2c2 1 3-1 3-2-1-2-9-1-12 1l-8 4-12 5c-6 4-6 4-8 2-1-2-3-2-6-2l-2 1c-2 0-3 0-3-2l-1-2c-5-2 9-6 21-6 9 0 10 0 12-2 2-1 2-2 2-3l-7-1h-33l1-2-2-7-3-4-8-9-4-6 14 14 4 7c2 3 3 4 5 4l3-1h-1l-2-8c0-7-1-9-4-16l-5-9-4-5-7-9c-4-6-4-7 0-3 10 11 14 16 20 28l3 6 2 10c1 7 1 7 3 7l3-1-1-5c-1-7-1-9 1-4 1 3 1 3 1 1l2-13c1-1 1 1 1 5 0 6 0 8-2 9l-1 5c0 2 1 2 6 2s5 0 7-3l1-6 3-8c1-4 3-9 3-15l1-8 1 7c0 7-1 14-4 21a177 177 0 0 0-6 13h3c2 0 2 0 4-5l2-4-1 5c-2 4-2 5 1 5s4-3 6-11l2-8-3 15-1 5 1 2q0 2 3 0l10-3 12-2 9-2a122 122 0 0 0 33-10l5-2 5-1 3-2c1-1 6-2 6 0s5 2 7 1c1-1 1-1-1-1-5 0-5-2-3-4 3-3 5-4 5-2l-1 1c-2 2-1 3 2 3s7 1 6 2l-11 4-24 10a332 332 0 0 1-42 13l-7 3c-3 0-5 2-7 5-4 4-4 5 1 2l11-4a1071 1071 0 0 0 80-29c4-2 7-2 35 2 16 2 22 2 24 0 1-3 6-2 9 1l5 3c2 0 5-4 5-6a1313 1313 0 0 1 23-72v-3h4c3 0 3 2 1 6m-127 68h4c2 0 2 0-1-1l-3 1m-4 3 3-1h-5c-1 1-1 1 2 1m-7 3c3-1 3-1-2-1l-6 1h8m-14 3 4 1c3 0 3-1 1-1h-5m-1 3h1-2 1m-13 3 6-1h-10c-2 1-1 1 4 1m-17 2c1 2 9 2 11 1l-3-1h-8m-10 6h3l3-1c1-1 2-2 4-1l2-1-3-1-3 1-3 2-3 1Zm-50-18v-1c-1-1-1 0-1 1h1m0 4v3-3m16 20c0-1-6-2-9-1-2 1-2 2 1 3h6l2-2m-150-16-2-8c-4-6-5-4-3 3l2 7c2 5 3 4 3-2m-70 86c-1-1-10 15-10 17s3-2 5-6l5-11m8 6v-1c1-2 0-2-2 0-1 1-2 2-1 3l2-1v1l-1 9v7l1-7 2-9-1-2m-3-7c-4 6-4 8-1 3l3-2c0 3 2 1 2-3 1-4-1-4-4 2m11-5h-1l-2 1h2l1-1m11-2h-2l-3 2h3l2-2m13-8c0-2-2-1-3 0l2 1 1-1m7-1h-2l-2 2h2l2-2m8-13 1-3c0-3 0-3-1-2v5m4 7c-3 0-10 4-9 5h3l4-2c3-1 4-3 2-3m14-67-1 1c0 1 0 2 1 1v-2m58 40-8-2-22-6-6-2h-4l7 3a239 239 0 0 1 25 11l4-2 4-2Zm-28-2-8-4 7 4h1m21-8c-1-2-5-3-9-4a157 157 0 0 1-28-8l24 10c13 5 20 7 18 5l-2-1-3-2m-18-16-10-3c-9-3-9-3-9-1 1 3 6 7 7 7v-2l22 8h4l-8-4c-6-2-7-2-6-3h3c2 1 2 0 1-1l-4-1m-5-14-2-1c-1 1 1 3 2 3v-2m-1 5c-1 1-1 1 1 3l4 2c2 0 2 0 0-3-1-3-2-3-5-2m1-11 9 3-15-7c-3 0 0 1 6 4m-12 8 7 2c2 2 2 2 2 0l-12-5 3 3m-12 3c0 1 1 2 3 2l-1-1c0-2-2-2-2-1m0 32-3-1v2l3-1m6 16-4-1h-1l1 3c0 2 0 2 3 0l1-2m1-6 2 1v-1l-3-1 1 1m-1 3 3 1c2 0 2 0 1-1l-4-1v1m28-16 22 5 4-1 3-1c0-1-7-7-9-7l-1 2-1 3-17-4-16-5-10-3a426 426 0 0 0 25 10m-2 12 5 2h4l-9-3a369 369 0 0 1-21-5l3 2 1 1 6 1 11 2m-7 7c0 2 3 1 7-1l4-2c-1-1-11 3-11 3m2 80c-1-1-1 0-1 2h2l-1-2m-5-51h2l-1-1c-1-1-1 0-1 1m10 51c0-6 0-6-1-2l-1 12v8l1-6 1-12m1-36-3 1c0 1 1 2 2 1l2-1c1 0 1-1-1-1m2-3-3-1-4-1c-3-1-4 0-3 2s10 2 10 0m0-3-4-2c-6-3-9-2-9 0 0 3 1 3 2 2l6-1 5 1Zm4 19-1-10v9c0 7 0 11 1 10v-9m4-11-2-1-1 1 1 1 2-1m5-1-1-3v7l1-4m193 255v-2 2m1 25c1 2 3 2 3 0l-2-2c-2-1-3 1-1 2m0-48 1 1 1-1-1-1-1 1m-4-13v7c0 6 1 9 3 13 4 7 5 6 2-1-2-3-2-6-2-8 1-2 0-4-1-7l-2-4Zm-96-117v-2l-1-1 1 3m-73-126 3-1h-4c-2 1-1 1 1 1m5 78c0-1-3-3-4-2v1c1 2 4 2 4 1m27 11-2-2c-3-1-3-1-1 2 1 2 3 2 3 0m-18-42 2 1 2-1-2-1-2 1m-8-37c-9-1-11-1-14 2l-3 2 1 9 2 18c1 6 2 10 1 15l-1 17c1 2 1 2 4 1l5-1c2 0 8 5 8 7 0 1 3 3 5 3l3-1c1 0 1-1-3-2-4-2-4-3-3-4 2-3 5-3 14 2l8 5c1 0 5-8 4-10l-7-6c-8-5-7-4-9-10-1-5-2-8-6-8l-4-1c-2-2-3-2-1-2 2-1 2-1-1-3-2 0-3-2-3-2 0-1 3-2 5-1 1 0 2 0 1-1v-4c0-2-1-2-7-4-7-2-9-4-2-3 8 2 14 1 14 0s-2-2-8-3c-4 0-7-1-7-2h4l8 1c4 0 5-1 1-2l-10-3c-5 0-8-1-9-2l14 1c6 2 5 2 5 0s-3-3-12-4c-9-2-12-4-3-3l9 2c6 0 3-1-3-3m-4-5c-3 1-3 2-1 3l11-1c0-2-7-3-10-2m14-12-1-1-1 1 1 1 1-1m38 2-2-1-1 1 2 1 1-1m7-1c-6 1-6 1-4 2h10c3-2 2-2-6-2m13 8v3l1-3h-1m1 7c0-2 0-2-2-2s-2 0-1-1l2-11-3 1-1 14v12s2-1 2-3l1-5 1-3 1-2m2-16-1 2c0 2 1 1 1-1v-1m45-7c0 2 2 5 3 5v-3c-1-3-3-4-3-2m-4 3c0 3 2 6 3 6v-2l-2-4c-1-2-1-2-1 0m3 24c-1-3-5-9-6-8l1 4c3 6 6 9 5 4m-2 11-2-1 1 2 1 2v-3m2-20-2-1 1 2 1 1v-2m-16-7 1-2c1-1 1 0 1 2v3l2 2c2 4 2 2 1-3-2-3-2-4 0-4l2 3 2 4c1 0 1-3-1-7 0-3 1-2 3 0l1 1-3-7-5-1-8-2c-3 1-3 1-3 4 2 6 7 11 7 7m9 14-2-2c0 2 2 8 3 7l-1-5m-8-10v3c0 2 0 2 1 0l-1-3m-17 1 1 2 1-2-1-2-1 2m0 10 5 17c1 2 1 2 2 0 1-1 0-3-2-9-3-8-5-11-5-8m2 23c0 2 3 0 3-1l-3-6c-1-6-2-7-3-5-1 1 2 11 3 12m4 15-5-10-3-7c0-4-2-5-2-3l4 12a642 642 0 0 1 6 8m0-13c-1 1 5 22 5 24 2 1 2 1 2-3l-7-21m21 29c0-6-22-60-24-60s-1 3 3 10a233 233 0 0 1 19 52l2-2m3-10-2-6-7-19-2-5-3-6-2-4c-1 0-1 1 1 6a257 257 0 0 1 9 25l2 7c2 5 4 6 4 2m2 6h-1l-1 1h1l1-1m-13-50c-2 0-1 1 4 14a1403 1403 0 0 1 11 26c1-1-13-40-15-40m14 8v1h1l-1-1m4 20c-1-3-3-4-3-2l1 5c1 3 1 3 2 1v-4m4-5c0-3-4-10-5-8l4 10 1-2m-6-35c0-2-3-3-3-2l3 10a288 288 0 0 1 7 22c1 1 3 0 3-2l-3-8a143 143 0 0 1-7-20m6-14c-1-2-1-3-3-3l-2 1 1 1 1 2c1 2 3 2 3-1m5 13c-1-1-1 1-1 2h2l-1-2m1-10c0-5-1-6-2-7-2-1-2-1-2 1l5 13-1-7m4-11c-1 1-2 1-2 4 0 5 1 5 3 0 2-4 2-4-1-4m119-55-2-1c-2 0-2 0-1 1h3m6 35c0-1-1-1-1 2l1 3v-5M388 573c2 0 1-9-1-13l-2-4 1 4 1 6v5l1 2m-56-353v1-1m49 153 1 2v-3l-1 1m10-72v-1c-1-1-1 0-1 1h1m6 81v1l1-2c0-1-1-1-1 1m-23 155c2-1 2-3-1-9-1-5-4-7-6-5l-1 1c2-1 4 1 4 3l1 6 3 4m16-242-1-3h-1l1 4 1-1m-1 91 5-18-1-5-1 5-3 16v2m12-117c0-3-8-24-11-25-2-1-2 0-1 3l5 10 4 11c2 2 3 3 3 1m-77 231 4-3 4-4-2-7c0-4-1-6-2-5v5c1 3 1 4-1 9l-3 5m18-97 1-1-1-1-1 1 1 1m33 107c-2 0-3 2-2 3h3c2-1 2-3-1-3m-41-15v-3c0-4 0-5-1-4v4l1 3Zm10-5c7-2 7-2 4-2-2-1-2-2-3-7l-3-15c-1 1 0 6 1 11 2 10 2 10 0 11l-4 1-2 1c-1 2 3 2 7 0m-44-98c2 0 5-4 6-7v-4l2 3 1 6c0 2 1 2 2 1h2c1 1 1 1 1-1s-5-10-7-10l-1-2c-2-4-4-3-3 0 0 3 0 5-2 8l-2 5 1 1M132 645l2-9v-5l-1 5c-1 2-2 6-1 8v4-3Zm4-10v2-3 1m43 110v4l1-5c0-5 0-5-1 1m-64-27c-2 0-2 3-3 17v12c2-2 5-29 3-29m84-68-6 12a444 444 0 0 0-2 15 214 214 0 0 1 8-27m-84-11v1-4 3m1 5v1-2 1m260 131v-4l-1 2 1 2m-244-82a746 746 0 0 0-9 80c-2 1-4 22-4 44l-1 21a455 455 0 0 1 2-73l1-26c-1-2-3-2-3 0v3l-1-18c1-20 2-26 3-8 0 12 1 12 1-1l2-8 1-9 1-7 4 6v-5c-1-8 3-37 5-44 3-8 1 22-2 45m0-18c-2 3-3 14-1 14v-3l1-8v-3m195 84c0-3 0-5-3-7l-3-3v3c0 2 1 3 2 3 2 0 2 0 2 10 0 9-1 9-2-1-1-6-2-8-3-7v5a513 513 0 0 1 5 79l2 1c2 0 2-4 2-27v-18a133 133 0 0 0-2-38m-14-170 1 5 1 4v-4l-1-6v-6c1-5 0-6-1-5l-1 3a863 863 0 0 1-2 27v8l1 8c2 0 2 2 0 2-2-1-2 1-3 21-2 25-2 41-1 37l1-3 1 3 1 3v-30a293 293 0 0 1 1-27l2 5c1 0 1 0 0 0l-1 7 2 7 1 9 1 9c1 1 0-32-2-43l-1-34m53 207 4 10c-1 1 4 12 8 18 1 2 2 2 3 0s-1-4-9-19c-9-18-13-24-6-9m-50-194c-2-1-2 2-2 7 0 3 1 5 2 5v-12m39 155v4-4m5 32-2-8c0-2 0-2 2 1l1 1c0-2-2-5-4-5l-1 4c0 6 2 13 2 9 0-3 1-1 4 10a128 128 0 0 0 14 33l2 1-4-7c-3-6-8-19-14-39m-3-17-1-6-1-2v5l1 5 1-2m161-8c5 16 6 23 4 23l-2-2-1-6a577 577 0 0 0-11-46 671 671 0 0 0-18-61 688 688 0 0 1-20-45l-2-2-5-7c-5-9-14-23-19-27a702 702 0 0 0-20-23c13 11 23 20 23 22s6 7 6 7c1-1 0-4-1-7-2-6-3-10-1-8 1 1 7 16 7 20l4 8a345 345 0 0 1 46 116 2276 2276 0 0 1 10 38m-23-87h-2c-1 0 0 0 0 0l1 1 1-1m-386 54c2 1 1 7-1 18-2 8-2 9-3 7-1-1-2 2-3 6l-3 12a181 181 0 0 0-13 50v-2a774 774 0 0 1 7-62c2-3 4-4 4-2 0 3 2-2 2-5 0-6 1-8 2-8 1 1 2 0 2-5 0-6 2-7 3-1v4l1-6c1-6 1-7 2-6m-16 38-2 13c0 7 1 9 2 2v-15m9-21-1 3c0 4 0 4 1 0v-3m0-59v1-3 2m276 119-1-2v1l1 1M97 716l-2-34 1 25 1 9m282 96 2 4c2 3 2 2 1-2-2-4-5-6-3-2M113 662v-2 2m-28 53c0 2 0 2 1 1v-2c-1-1-1 0-1 1m1 7v-3l-1 1 1 2m-1 19c0 3 0 4 1 2v-6c-1-1-1 0-1 4m26-94 1-3-1-4h-1l1 4v3Zm1 6v-3 3m-10 45c0 3 0 4 1 3v-6c-1-1-1 0-1 3m11-11 1 3c1 0 1-3-2-18-2-11-2-14-3-13l2 13 2 15m-5 10c2 1 2 1 2-2l-1-3c-1 0-2 4-1 5m-7-22v5c0 3 0 5 1 4v-5l-1-4Zm136-191c-5 0-8 1-9 2 0 1 0 2 2 1l7-1c6-1 6-2 0-2m-5 98c-3 0-2 2 3 6s7 5 8 3-7-9-11-9m5-15c14 6 15 2 1-4l-12-7-4-3v5l-1 7c-1 1-1 16 1 20l2 3v-22l2 4c1 4 2 4 10 10 3 3 5 4 5 3l1-3-3-3c-4-2-11-9-11-10l9 4 9 3c1-1-1-2-5-4-9-4-12-6-4-3m-12-36-3-4c-3 0-2 3 1 6l3 4 2 1c2 0 2 0 1-2l-4-5m-29 4v-4 4m31 5-3-2c-2 1 0 5 2 6 4 1 4 0 1-4m-56-37c2-3 2-10 0-10v10m17-36-3 1c0 1 2 1 4-1h-1m-1 36c-1 6 0 15 1 22a981 981 0 0 1 2-2 589 589 0 0 1-3-20m54 4-3 1-3 1-2 1h5c4-1 5-2 3-3M91 718l1 16c1-1 0-30-1-31v15m130-268 5-1c6-2 9-4 8-5s-11 4-13 6m-7 10c0 1 2 0 6-4 4-3 5-4 3-4-1 0-9 6-9 8m22 60-13-6c-3 0-1 1 5 5 6 3 9 4 8 1m-14-15 7-1c2-1 0-3-3-2s-5 2-4 3m2-12c-3 0-5 2-5 4s1 1 4 0c4-3 4-4 1-4m-54 48 1-19v-16l-1 15-1 18c-1 4 0 5 1 2m102 53c0 3 0 3 1 2l4-4c4-4 5-15 1-12l-1 2-2 5-3 7m-7 15-5 5-6 8c-6 5-10 10-10 11 0 2 6-3 12-9l8-9c3-4 3-6 1-6m47 104-1-20v36c1 5 0 9-1 8s-1 0-1 1l2 1c2 0 2-1 2-4l-1-22m-43-109-2 3c0 2 2 1 3-1 1-4 1-4-1-2m14 79c3 5 5 22 3 22-3 0-4-1-4-6l-2-11a214 214 0 0 1-4-20 689 689 0 0 0-3 86 1357 1357 0 0 0-3-30l2-34a214 214 0 0 1 8-74c1 0 1 2-1 12l-1 16c0 6 0 7-2 7l1 1c1 2 2 5 3 16l3 15m-6-28h-2l1 2c2 1 2 0 1-2m30 43v1-2 1m-22-110-1-3-1 7 1 6 1-3c0-3 2 4 2 9l1 3c1-2 0-13-2-14l-1-5m-8-101v-4c-1-2-1-1-1 2l1 2m-112 60v-3l-1 1 1 2m-35 16v-3 3m130 94c-2 1-5 27-5 36l-1 12a447 447 0 0 0-3 111l1-37 1-42 1-5v6l1 7c1 1 2-17 2-36a348 348 0 0 1 3-52m-93-136v-9l-1 10v17l1-18m-8 24c2-2 5-9 4-11l-4 9v2m42 74 2-6c-1-1-2 3-3 7-1 3 0 3 1-1m42-5c-1-1-1 0-2 3l-3 5c-2 1-2 8 0 11 2 4 1 5-2 3-8-3-18-11-22-17-1-3-3-4-4-4-2 0-8 13-11 22-2 4-3 8-4 7-3 0-4 1-3 3 0 1 0 4-2 7l-2 12a2438 2438 0 0 1-7 47c-1 14-2 20-3 10 0-5 0-6-1-3l-2 15c-2 17-3 18-4 18v-2l3-21a748 748 0 0 1 18-90l2-3 2-3c0 3 2 0 4-5l3-6 5-13c0-3-1-6-3-6l-6-3-10-7c-4-3-5-3-6-2-2 1-6 8-5 10l-2 6-8 30-4 12a520 520 0 0 1-12 48l-2 15-1 12-1 3a218 218 0 0 1 4-49 235 235 0 0 1 5-34l4-20 5-31c1-4 0-6-1-9-2-4-1-4 1 0 2 3 2 3 3 1l3-1c2 1 3 0 3-1 1-1-13-15-15-15a1247 1247 0 0 1-19 50l-3 10v-3l1-8 1-5c1 0 2-1 2-3l-2-2 1-2 3-4c0-2-1-2-3-2h-3l4-1c2 0 3-1 3-3v-5l2-3 3-7 3-6c2-1 0-3-2-2-3 1-2 0 2-4 5-4 5-5 3-6s-3 0-3 2l-2 2c-2 1-8 8-9 12l-3 4-5 5c-2 5-2 7-3 19l-1 13v-10c0-9-1-11-2-11l-2 2c0 2-6 11-7 12l-3 4-4 4-3 3-3 9a610 610 0 0 0-11 21l2-7 4-9 6-14c4-8 6-10 8-10 2-1 6-6 6-9l2-3 10-20 4-7c3-5 5-9 5-12 1-8 3-9 2-2l1 7 4-4 3-5-2-4-4-5-2-3c-1-5-3-3-5 7s-4 19-5 18l5-29c1-4-2-3-5 1-2 3-2 5-2 7v6c-1 2-1 1-1-2 2-8-1-3-3 6l-2 8 3-18v-3c-2 0-4 5-6 16-2 14-4 21-4 12l2-13c2-7 2-11 0-9l-8 7-10 10c-1 3-3 4-4 4l-2 2c0 2-1 4-2 3v1l-2 2c-2 1-2 1-1 2 1 0 0 3-6 11a243 243 0 0 0-20 34l-4 8-6 12a2288 2288 0 0 1-23 56c1-7 4-15 13-36 3-7 2-9-1-3-3 7-3 4 1-4l5-14c2-9 7-25 12-34 3-7 3-9 0-5l-2 2 10-14c2-1 3-4 4-6 0-2 1-3 2-3l3-2 3-3c2 0 3-1 4-5s3-6 3-3 2 0 4-7l2-6c1-2 2 1 0 5v5l7-17c0-1-3 0-5 2l-25 21 2 1-1 1-3 1c-1 0-11 13-20 27l-8 13a388 388 0 0 0-38 71c-1 3-4 6-5 4l7-15a527 527 0 0 0 17-35c-3 4-5 5-5 3l5-7a397 397 0 0 0 21-30l10-16a119 119 0 0 1 29-31 261 261 0 0 1 38-30l4-3 3-2c2-1 2-2-1-6-4-4-5-8-5-10 1-1 0-5-1-8-3-14-1-25 7-39 10-19 22-36 24-34v1l-13 19c-4 5-12 19-14 25l-2 11c-1 5-1 7 1 15 2 9 6 18 10 21l3 4c0 2 17 18 20 19l10 3 19 6c2-1-1-3-6-5l-14-5 8 2 10 3c2 0 2-3 0-15l-2-21 2 8a389 389 0 0 0 4 33l4 2c3 1 19 13 19 15s-1 2-3 0c-3-4-9-7-15-9l-6-1-8-1-8-3-6-2-5-2c-1 1 3 7 6 9l13 8c1-2 8-1 10 1h3c1-1 2-1 3 1l4 1 8 6 5 6 2-2 3-2c2 0 2 2 0 3-1 1-1 4 2 6 6 6 9 9 7 9l-4-3-2-1-8-3-5-2-11-6-6-1c-7-4-4 0 10 10 7 5 8 6 9 4 0-1 4-2 4 0l2 1c2 0 2 0 2 3-1 3 3 13 5 14l1 2c0 2 7 9 9 9v-5l1-6 3-4 3-11 4-9 1-5c-1-2-1-2 2-2h3v-16c-2-3-2-20 1-20s3 2 2 8-1 6 2 9c2 2 2 3 1 7a387 387 0 0 0-6 23l-1-7-1 1-3 22-2-1m-39-32-1-2-1-1c-1 1 0 3 2 3M60 635c-1-1-6 9-6 10l3-4 3-6m11-28c-1 0-1-1-5 6l-7 18 5-7c5-8 8-16 7-17m5-5c0-3 0-2-1 0-2 5-2 9 0 5l1-5m40-50c4-10 2-10-4 0-4 7-6 8-4 2 1-2 2-3 1-4s-2 2-4 6l-2 6v3l2-2a193 193 0 0 0 11-11m10-14c-1-1-4 2-5 6l-2 5c-2 2 1 1 3-1s5-9 4-10m6-5-5 10c0 2 0 2 5 0l4-5c1-3-1-6-4-5m7 42c-2 1-6 12-5 11l3-5c3-5 4-8 2-6m44-14c8 3 12 4 12 2l-2-1a270 270 0 0 1-26-8c-1 1 8 5 16 7m-22-9 2 1c2 0 2 0 0-2-2-1-3-1-2 1m1 3 6 2-11-4 5 2m3 71-1-3-1 3a621 621 0 0 0-1 20c0-4 0-6 2-7 2-2 2-6 1-13m5-24c-1-3-1-3-2 0l-2 14v3l1-3 2-6v-4l1-4m1-7 1-4-1-2-1 4c0 3 0 4 1 2m3 7v-7l-3 19 1-2 2-10m1-12v1c0 1 0 1 0 0v-1m6-2h-2l1 1c1 0 2 0 1-1m15 51 1-2-2 6 1-4m22-23-3-4c-2 0-2 0 1 4 4 4 5 4 2 0m-21 11v4c-1 1 0 1 0 0l1-4q0-2-1 0m157 115-1 2-1 3-1 13a887 887 0 0 0 1-11l2 3v-10m-90-397c-2-1-5 0-5 1h11l-5-5-8-6c-4-3-6-4-6-2l8 6c7 5 9 7 5 6m62-30c-3-3-5-4-8-3s-3 2 1 2l5 2c4 2 5 2 2-1m-79 35c0 1 3 1 8-1 2-1 2-1 1-2-2-1-9 1-9 3m61 3a561 561 0 0 1-63-59c3 5 3 5 1 3-6-4-4 1 3 8l5 6c0 2 21 20 26 23l16 11 12 8m-25 18c0 1 2 0 3-2l3-2 1-2c0-3-5-10-8-11-2-2-2-2-4 0v5l2-1c1-2 1-2 3 1 3 2 4 5 1 9l-1 3m28-136-4-3c-3-2-6-2-17-2-7 0-13 0-12 1l3 1c17 0 24 1 27 3s3 2 3 0m-16 134 1-1-1-1-1 1 1 1m-3 16c3-7 3-12 1-12-2 1-4 5-3 6l1-1c2-3 2 0 0 7l-3 7c0 2 2-1 4-7m-21-13 2-8a2154 2154 0 0 1 0-17c-2 0-4 7-3 9l1 11v5M159 244c2-2 2-4 1-4-2 0-6 3-6 4h5m159-66 1 5c2 2 2 0 1-2v-4l-2-2v3m-34 109c1 4 3 5 3 2l-3-7v5m33-104 1 5c1 3 1 4 2 3s0-5-1-5l-1-1-1-2m-56 103 19 17c5 4 9 5 4 1-5-5-22-19-23-18m-47 182c1 1 1 1 5-1s4-4 0-3c-3 0-6 2-5 4m50-208c-4 0-4-1-6-4-2-5-6-7-7-5l1 3 2 4c2 4 6 6 11 6 4 0 5 0 6 2 0 2 3 2 3 0s-5-5-10-6m56-92-1-3v8c2 2 2-1 1-5m77 20 1 1 4 2c3 3 3 4 0 2-2-1-3 0-1 2 1 1 3 2 7 2l7 1c1 1 2 0 2-2l2-1 1-3c0-1 0-2 2-2l12-4c0-3-6-3-16-1h-3l2 1c2 2 2 2 0 3-3 3-6 3-11 0s-9-3-9-1m61-40c1-1 1-2-1 0l-4 5c0 1 4-2 5-5m-48 34c2 0 2 0 0-1h-3l3 1m21-18c8-3 10-5 5-4l-5 2-6 2-3 2c1 2 0 2 9-2m-27 19-1-1h-2l3 1m-231 30c2-2 3-2 17-2h15l4-4c4-4 16-13 22-16l14-8 11-6c1 0 17-10 21-14 11-8 12-9 10-10-1-1-1-1 1-1l6-2 3-2c1 0 1-2-1-4-5-3-6-4-9-3-2 0-2 1-2 3l1 3 1 1-3 1c-3 0-3 0-3 2 1 3-1 3-2 0l1-4 3-4c0-4 0-4 5-5 3 0 7 1 10 4 2 2 5 3 5 1l-4-3-4-4 2 1 3 2-1-3-1-4c-1-1-1-1 1-2 3-1 3-1 2-3l-1-10v-7c-2 0-3 4-3 6 0 4-4 4-7 0-1-2-3-3-4-2l-2-1 4-6c5-6 5-5 4-8-1-2-2-3-5-3l-3-2-2-2V73l5-3c10-5 12-7 7-8s-5-3-4-16c0-12 1-13 3-17l4-4 2-2c0-3 5-9 8-11l9-7c5-4 6-5 10-5l5 1 8 5c1 0 3 2 5 6l7 13 5-4c3-3 4-3 7-3l6-1c5-4 5-4 3-4-3 1-3 0-1-2 1-1 15-3 17-2l1 1-7 4c-2 0-2 1 0 3v3c-2 2-2 2 1 1s4-2 2-2l-1-1 2-1c3 0 5-2 5-4 0-4 4-2 8 4 3 5 3 6 3 10l-3 5c-4 4 0 7 8 7l5 2c1 1 2 1 0 2-1 1-1 1 11 1 5 1 8 1 11 3l13 6 12 6c5 4 7 6 10 12l4 9a88 88 0 0 0 18 28l2 2c2 1 2 2 1 12 0 11-1 21-3 24l-4 5c-4 4-4 4 3 6l6 2 1 3c0 2-2 4-7 9-6 7-9 8-8 5 1-1 0-1-2-1s-3-1-1-2 1-1-2-2-3-1-3 1l1 3c2 2 2 6 1 8-1 3-5 4-13 5-7 0-7 0-7 2 0 3 0 3 6 4h1c-4-2-4-4 0-5 5 0 8 1 10 6l2 3-3 3c-3 4-7 4-10 3-1-2-1-2 1-2 3-1 3-5 0-6l-2 1v1l-1 3c0 3-2 3-2 0 0-2-1-3-2-3v2l-1 5c-3 2-2 4 1 3s5 2 5 5c0 2-1 3-5 5-5 2-6 4-3 4l4 2c3 2 2 4-4 7-4 2-8 2-9 0l1-1h3l4-1c2 0 3-1 3-2l-10-5v-2h-4c-2 2 0 5 4 5l2 1c0 1-5 1-7-1s-2-2-1-5l4-3 3-1-3-1c-7-4-6-14 2-16 3-1 4-2 2-3l-2-2c0-3-1-3-4-2-2 1-3 2-6 9l-4 14c-2 8-6 10-13 7-5-2-7-2-10 2l-5 2-4 2c-2 2-10 2-10 0l4-1h4s-2-3-5-4l-6-5h7l4 2 5 1c0 2 2 2 5 0 2-1 2-3 2-4-1-3 4-2 7 1 4 4 12 2 12-3l2-8 4-10c2-5 7-10 15-14 9-4 13-8 19-20 7-13 9-17 7-18-3-2-3-6-2-9v-11c0-1 2 1 3 7l3 6c3 2 2-4-1-11l-4-9-1-3-1 2c1 3 1 3-1 2l-5 1v3l2 3 1 4c2 1 1 3-4 10-3 6-5 7-6 6-2 0-3 0-4 2l-5 4c-4 1-4 2-3 3 2 0 2 1-1 2l-3 4-1 2c-2 0-1-5 1-8l2-2-6 1c-3 2-7 2-11 2-7 0-8 1-7 6h-1l-3 3-5 5h-8c-5-2-7-2-5 1 2 1 1 2-3 1-2-1-3-1-2-3l2-4c2-1 1-1 0-1-2 0-8-8-8-11l3-5 2-5-3 3-3 5-2 5c-1 3 0 5 3 11 4 8 5 13 1 16q-2 2-1-1l1-10-2-1v5c1 5 0 7-5 8-4 1-5 0-4-2 3-3-3-6-6-4l-2 6c0 5 0 5 3 7l6 2 3 1-5-5-6-7c0-1 2-1 3 1l7 4c7 3 7 4 8 8l1 6c0 2 0 2-2 2-3 0-9-3-10-6l-3-2h-2l-3-1-3-1-5-1-4 1 3 2c2 2 3 2 3 1l1-1h1c0 2 4 6 6 7 4 2 5 1 3-1q-2-2 0-1c5 1 9 4 9 6 0 3-1 4-6 4-2 0-2 0-3 2l-1 6c0 2-6 9-9 10l-2 1 16 8c3 1 10-1 12-3 2-3 3-2 2 1l-6 5h-14l-2-1-3-2-2-2-1-1 2 4c3 3 3 5 2 7v5l1 8c-1 5-1 5-2 2-1-5-3-2-2 5 2 7 2 10 1 10l-2-7c-1-7-1-7-4-8-2-2-3-2-5 0-3 1-3 2-1 3l3 13a727 727 0 0 0 5 40 48 48 0 0 1-4 26l-1 4c0 3-2 4-4 2v-3l-1-4-9-12c-7-10-10-13-21-23-23-19-39-35-39-38l15 14a442 442 0 0 0 39 35c7 7 15 18 15 20l4 4 3-18c0-6-2-12-4-12s-5-13-6-29l-2-18v6l-1 6-2-15-1-6 1-4c2-2 2-3 0-6l-2-10c0-7-1-10-3-10l1 16v1c-1 0-2-4-2-9-2-9-3-11-5-4l-1 5c-1 2-2 0-2-3l-1-3c-3 0-7 4-7 7-1 3-3 3-4 0l1-4a2100 2100 0 0 1 9-9c-1 2 1 2 3 0l1-1h1l1-1-1-1-1 1v-14c-2-9-2-21-1-21s2 3 2 7c0 5 3 15 7 19 8 9 8 9 11 9 4-1 4-4 1-6l-2-3-4-3c-5-3-6-5-6-11 0-4 2-5 2 0v2a543 543 0 0 0 2-14c-2 1-2 2-2 4 0 3-3 2-3-2-1-3 1-5 5-7 3-1 3-1 5 1s3 2 3 0l-4-4c-5-3-11-10-11-13l-2-2c-4-1-3-5 3-7 2-1 3-2 4-5l3-4c3 0 3-2 1-2l-21-1 3 1c6 0 9 1 8 2 0 2-14 2-16 0h-3c0 2 4 4 6 3l10 2-2 4-1 8v4c-2 0-3-5-3-8 1-4-1-5-2-1 0 3 2 9 5 14 3 4 3 4 6 3 3 0 4 2 0 4s-7 0-11-12l-2-3v4l-1 5v-5l1-8 1-3-4 2-6 2c-3-1-3-2 1-3 4 0 6-1 6-4s-2-4-6-2-13 2-14 1 0-1 4-1l7-1c2-2 0-2-4-1h-5c-3-2-4-1-13 6-9 8-18 14-28 19a437 437 0 0 0-55 38l2 1c4 0 24 8 28 12h3l4 2 9 8 23 21-7-5-12-8c-25-17-41-26-52-28-4-2-8-2-14-2h-11l-5 1c-3 3-5 1-3-2m173 9c-2-2-3-1-2 1l1 3c0 1 2 0 2-2 1-1 0-2-1-2m9 75v6c1 5 2 8 2 5l-1-6-1-5Zm16-92 5 2c3 0 3-1 2-1l-5-2c-3 0-4 0-2 1m-2 17 2-1v-1l-2 1v1m12-33-2-1v1l2 1v-1m0 8h1-2 1m19 26-2-1c-2 0-2 0-1 1h3m46-15c-2 0-3-1-3-2h-2c-1 2 1 5 3 5l5 2c2 2 3 3 4 1 0-2-4-6-7-6m10-24-7 2-2 3c0 1 0 2 2 3 2 2 3 1 4-2s2-4 4-4l4-3c0-1-1-1-5 1m13-7-2-3c-1-2-1-2-2 0l-2 5v2l1 1c0 2 1 3 3 3l2-1c2-2 2-5 0-7m3-2c-2 0-3 1-1 3l2 2c0 1 0 2 1 1l1-4-3-2m6-36-1-2-2-1c-1 1 2 3 3 3m2 29h-3 3m8-2 1 1 1-2-1-1-1 2m-1-55c3 3 5 4 5 2-3-5-4-5-6-5s-2 0 1 3m-4 35c0 1 0 2 1 1v-2c-1-1-1 0-1 1m-12-44 1 1 1-1-1-1-1 1M292 80c0-2-1-2-2 0l-1 2-1 1-1-2-1-1c-1 0-2 1-2 3 0 4 5 5 7 1l1-4m0 30-1-1-1 1 1 1 1-1m18 36-1-2c0-1-1-1-4 1-2 1-2 1 0 2 2 2 4 2 6 1 1-1 1-1-1-1m0-52v-3 3m2 3-1-2-1 2 1 1 1-1m0-13 1-4-1-2-5 5h1c2-1 3-1 3 1h1m5 36-2-1c-2-2-2-2 0 0l2 1m2-10 6 5 1 1v-3l-3-3c-2 0-8-6-9-8-2-3-3-2-2 2 1 2 3 4 7 6m11-23 3 9c4 7 7 9 4 3-5-10-7-14-7-12m5-70 1-1c2-3-8-12-11-10-1 0-1 0 0 0 2 0 6 4 6 6 0 1 2 5 4 5m2 74 2 1 1-1-2-1-1 1m-9 16c-3-2-5-2-3 1l1 2 3 3 10 6v-1l-1-1 5 1a746 746 0 0 0-15-11m-8 34-2 1 2 1 1-1-1-1m15-10-3-2-4-1h-3l3 2c2 2 2 2 0 2l4 1c4 1 5 1 3 2h-7c-5-1-6 0 0 1 5 1 9 2 10 1 2-2 0-5-3-6m10 4c-1-2-1-2-3 0l-1 2c0 2 3 3 4 1v-3m8-7v3c0 3 0 3 1 1v-3c-1-3-3-4-10-4l-9-1h-4c1 2 10 3 16 3l6 1Zm10-37-8-7c-2 0-6-4-9-8l-3-3c-1 2 8 13 10 13l3 2c7 6 11 7 7 3m-9 67 3 3h2l-3-3c-3-2-3-2-2 0m4-1-1-1-1-1c-1 0 0 2 2 2m5-33 3-4c-1 0-6 4-7 7-3 4 0 2 4-3m-6-32c-4-3-5-4-7-3-2 0-2 0 0 0l6 4 4 3-3-4m-8 7c3 4 9 9 11 9l-1-1c-4-3-10-9-11-12l-2-2c-1 0-1 1 3 6m4 22c0 2 3 2 4 1v-2l-1-3-1-1-1 2v2l-1 1m0 54c1 1 2 0 1-1l-2-1 1 2m6 66c2-1 1-4-3-6-5-2-6-2-4 1 3 3 3 3 1 3s-3 2 0 4c1 1 2 1 1 2-2 0-1 2 2 2 1-1 2-1 2-3l1-3m-6-15c-2 0-4 2-3 3s1 1 3-1v-2m-2-1 1-1h-2c-1 1-1 1 1 1m2 42c-1-8-2-10-4-10-1 0-1 3 1 4l1 9c1 4 1 7 2 6v-9m8-14-5-3-6-3-2-1c-1 0-1 2 1 4l2 2h-2l-1 1c0 2 4 3 6 3a189 189 0 0 1 7-3m0-19c0-1-2-2-5-2-2 0-2 0 0 1 2 2 5 2 5 1m-3-4h2l-2-1c-2 0-2 0 0 1m-3-37 1 4v2c0 1 0 2 2 3l2 3h-2l-5-4c-2-3-3-4-2-1 2 6 12 17 12 13l-1-3c-1-3 1-6 4-4v-2c-2-4-11-12-11-11m0-25c1 3 3 4 4 4l-1-2c-2-3-4-4-3-2m4 10-3-1 1 1 3 1-1-1m7-8-1-2c-1 0-11-6-15-10l-4-3c-1 2 6 11 8 11l3 2 5 2h4m12 1c0-2-9-7-10-7-2 1-2 3 0 4l1 5c0 3 1 3 6 1l3-3m-8-65 1-1h-1l-1 1h1m12-49-4-1-8-1c-3 0-3 0-2 1l3 2a116 116 0 0 1 31 14c1 0-3-4-7-5l-4-3c0-1 2-1 4 1l10 7c0 2 7 8 7 7l5-1 3 1-1-3a77 77 0 0 0-28-23c-9-3-11-2-2 2l5 3c0 1-1 1-9-2-8-2-11-3-6 0l3 1Zm38 32-5-1-3-1c-4 2 1 6 6 5l7-1c5 0 5 0 2-4-1-2-2-2-2 0-1 1-1 2-5 2m2-6 2 1-1-1-1-2v2m13 10c-17 1-19 1-32 6-4 2-8 4-11 4-6 2-6 3 0 3l5-1 16-6c13-3 16-3 17-2h6l11-2 6-1-18-1m1-5 1-1-1-1-1 1 1 1m24-5-3-5c-2-1-2-2-1 0l5 8-1-3m-6 9c0 1 2 5 3 4l-1-3-2-1m-1 10-9 3c-4 0-6 1-5 2h3l6-2c7-2 10-3 9-4l-4 1m-6 19-2-1-2 1h4m-6 6-10 4c-6 1-6 1-5 3 1 1 2 1 11-3s12-7 4-4m-31-18 20-5 12-4 6-2 3-1h-4l-8 1a160 160 0 0 1-34 10c1 1 1 1-1 2s-3 2-2 4c0 1 0 2-3 3l-3 2 8-1 13-8c7-2 6-3-1-1l-7 1 1-1m6-6c4 0 8-2 8-3l-2-1-21 6 5-1 10-1m32-2h-2l1 1 1-1m-47-3v-2c-1-2-4-1-4 1 0 1 2 2 4 1m5-2 2-1v-3h-4c-1 1 0 4 2 4m21-18c2 2 2 2 2 0h-2c-1 0-1 0 0 0m-40 22c-2 1-2 1 0 1l3-1c2-1 0-2-3 0m1-6c0-2-9-13-10-12s1 4 5 8l5 4m-10 9-4-2v2h4m-3 47 1 2 1-2 3-5 2-5-3 2c-4 3-5 4-4 8m1 10c-2 0-1 1 3 4 4 4 7 5 7 3 0-1-8-7-10-7m12-17-1 1v1l2-1-1-1m7-31c6-3 8-4 6-5-2 0-19 10-19 11l3-1 10-5m3 19c4-3 9-4 9-2l-3 2-4 3h2c6-2 8-3 8-1 1 1 7 0 15-3l11-5h-2l-19 5c-2-1 10-7 14-7l11-3c6-2 7-3 5-3l-6 1c-3 2-27 7-28 6s8-4 21-7l7-3h1l-10 1-14 4-6 2 2-2 7-3 11-4 7-2h-1l-12 2c-8 1-13 3-18 6-1 2-2 2-1 3 2 2 1 3-7 8-6 4-8 6-6 6l6-4m3 34h-3l2 1c3-1 3-1 1-1m7-2-4-2 2 2c5 2 5 2 2 0m4-12c-5-2-8-7-7-10l1-4 1-1c-1-1-7 5-7 6 0 3 3 7 5 8 3 1 2 4-1 4-4 0-5 1-2 2h5c0-2 3-4 6-3 4 2 4 0-1-2m41-6-3 1c-2 2 0 2 2 1s3-2 1-2m3-7c-1 0-2 0-1-1 0-2 0-2-5 0s-6 1-3-2 1-3-3-1l-4 1 6-4c4-3 6-5 4-5l-12 7c0 1-3 3-6 3-6 2-7 4-1 3 3-1 4-1 5 1s-4 6-8 6c-7 1-11 3-11 4 0 3 5 3 10 1 2-2 19-7 21-7l5-3c3-2 4-2 3-3m2-14-2 1 1 1 1-1v-1m5-9h5v-2l-5 2m2-26c0 1 1 3 2 2l-1-2h-1m-3 11c-2-2-4-3-4-1l1 1 2 4 2 3v2l2 1 2-1-5-9m-12-35c5 5 6 6 6 4l-3-4c-3-3-1-3 3 0 2 2 6 2 5 0l1-3c1 0 1-1 0 0l-5-2-4-2 1 1 2 3-3-1c-3-2-4-3-6-1l3 5m-7-9 3 2v-2l-3-1v1m-58-11 8 2c9 3 16 5 14 6l-10-2-10-2 3 1 8 4 7 2 3 2c2 1 2 2 1 3v1l3 1 3 1 4 1c9 6 12 8 12 6l-3-3-2-4c1-1 5 1 9 5l2 1-5-5c-5-5-5-6 0-3 3 2 4 1 1-2-3-2-2-3 2-3l6 3 3 2-1-2-2-3c0-2-5-5-13-6l-11-4-12-2 5 2 4 2-9-1-20-3m10-26h1c0-2-2-4-2-3-1 1 0 3 1 3m-5 23 4 1 3-1-4-1c-2 0-4 0-3 1m-14-1h10l1-1h-11c-11 0-11 1 0 1m-14 16c2 0 2-1 1-1h-3l2 1m-12 4 3 1 5 3 4 2c4 0 20 12 25 18 5 5 5 4 1-2l-9-9c-3-2-4-3-2-3s1-1 1-2c-1-2 0-2 3 0l2 1c1-1-2-5-4-6-2 0-3-1-3-2l-3-2c-5-1-14 0-14 1l1 1h1-2a184 184 0 0 0-9-1m-4-31c1 2 2 0 2-3v-4c-2 0-3 5-2 7m-3 36c0 2 4 8 7 11l6 5 3 3 7 5 5 3-1-4c1-3 1-3 5 2l5 4-1-3c-1-2-3-4-6-5l-4-4c1-1-7-8-10-9v-1l3 1 5 2 4 1c5 4 6 4 2-1l-6-5c-2-1-3-1-3 1s0 2-1 0c-2-3-5-5-9-6h-2l1 2c0 3 5 9 9 11l3 3-8-4c-3-2-8-9-7-10l-2-1c-3-2-5-2-5-1m-1 30-3-3 1 4c2 5 5 8 8 10 5 3 5 1 0-3-3-3-6-6-6-8M327 4c6 3 9 6 11 11l2 4v-3c1-3 0-5-2-6l-2-2-3-3c-1-1-3-3-5-3-6-2-6 0-1 2m-7 14 4 3 3 4 2-3c3-4 3-4 0-7-1-2-2-3-3-2-2 1-2 1 0 3 3 2 2 3-4 1s-7-1-2 1m0 5-1 1 1 1 1-1-1-1m-5 6c-3 0-3 2 0 2l4 2c1 2 3 2 3 0s-5-4-7-4m-7-10c0 1 1 2 6 2l-1-1v-2l-1-2c-3 0-4 1-4 3m-11 27c0 2 1 2 5 0l3-1h-4l-4 1m-1 3-2-1c-1 0-2 2-1 3 1 0 3 0 3-2m0-8 1-2h-1l-1 1 1 1m1 47c-2-1-3 0-2 2h3c1-1 0-2-1-2m4-22h-3 3m1-14h8c3 1 4 1 5-1 2-1 2-1-2-1-4-1-15 1-17 2v1h2l4-1m1 83 2 2c3 2 3 1 1-2l-1-3h-6l3 2 1 1m-13 10-1-1v1l1 1v-1m-3-11c2-7 1-6 7-6h5c0-1-3-2-7-2s-4 1-5 2l-1 5c1 2 1 3 1 1m82 162c3 0 3-3-1-6-1-2-3-3-3-2l2 3 1 3 1 2m-13 70v3l1 2v-3l-1-2m-33-34-3-5c-3-2-2 0 0 2l3 3m51-75v-2l-1 2h1m1 58-7-13c-1 1 1 4 2 8 3 5 5 7 5 5m13-37v3-6 3m-8-9c-1 0 1 17 3 19l1 1-3-20h-1m-58 113c4 6 6 7 6 4 1-2-6-12-8-12s-2 0 2 8m-153-40-5 3c-2 1-3 0-2-3v-4l-2 4c-1 4-3 5-3 1v-3l-2 4-4 7-1 3-1-3c0-2 0-2-1 1v5c1 2-1 5-2 4l2-18v-4l-1 1a1487 1487 0 0 1-7 17 577 577 0 0 0 1-16l-1 5c-2 3-6 27-8 38-1 8-1 10-3 12-1 1-2 2-1 13 1 6 1 11 2 10l3-8 5-11c4-5 6-9 10-22a362 362 0 0 1 9-23c2 1-10 37-15 46-4 7-6 14-10 25l-4 13c-4 6-7 25-7 36 0 3-1 5-2 5v-12c1-13 2-23 5-32l1-13v-21c1-5 1-7 3-7 1 0 2-2 2-6v-11c0-4 0-4-2 5s-3 12-3 5c0-3-1-4-5-6-4-1-5-2-6-5s-3-4-9-7l-11-4c-2 0-3-1-3-2l6-1c10 1 6-1-4-2-8-1-9-2-8-3 0-3 2-5 3-5l5-1 23-7 4-1 3-2h3l-3-2c-3-2-3-4-1-6 3-3 11-4 16-3h9c7 0 16 3 17 6 1 2 3 2 5 2 4 0 4 2 0 3m-40-3-3-1c-3 0-3 0-1 1 2 2 3 2 4 0m-8 18c-2 2-2 3 0 3 4 1 6 1 6-1s-4-3-6-2m-3-6h5l-6-2c-2 0-1 2 1 2m-10 3a202 202 0 0 1 13 0l-6-2c-3 0-5-1-5-2l-11 1c-3 2 0 2 9 3m3 1c-5 0-5 2 1 3h7c1-2-2-3-8-3m-1 6c2 0 6 0 5-1-2-1-15-4-16-3s0 1 4 2l7 2m12 9v2c2 2 2 2 0 3h-3l-1-1-1 2 1 2 4 2c3 2 3 2 4-1 2-6 0-9-4-9m5-3a2497 2497 0 0 1-12-1c12 3 13 3 12 1m1-17c-2-1-4 1-3 3l2-1 1-2m2 10-1-1-1 2c0 2 0 2 1 1l1-2m5-8v2-2m3-13-1 2v1l2-2-1-1m12-2v-1l-2 1 1 1 1-1m43-43c-3 0 0 1 7 4 5 1 9 3 9 4l3 1c5 0-14-9-19-9m19 13c-3 0-7 2-6 4l2-1h4l2-2-2-1m24 16 2 1c2 1 1-2-1-3-3-1-4 0-1 2m-59-40c0-2-2-2-6-2-3 0-4 2 0 3l6-1m207 510-2-3-2-2c-2 0-2 0-1 1l1 3 1 1h1l2 1c2 0 2 0 0-1M222 308l10 6-4-4-7-5-5-3c-2 1 1 3 6 6m-13 19c0 3 3 1 6-5 4-7 7-8 10-7l2 1-6-5-3-2-4 9-5 9m-5 22c-1-1-2-3-1-4l2-6c1-5 3-8 4-8l-2 6c-2 6-2 7 0 7l3-4c4-6 10-12 12-11l2-1c0-1 11-4 12-3s-1 2-4 3c-5 1-11 4-14 7-3 2-8 10-9 14-1 2-2 2-5 0m1-3 1 1 1-1-1-1-1 1m36-18c-3 0-9 3-9 4l2 1 5-2c3-1 4-3 2-3M89 617l4-13c0-2-2 0-3 5l-2 7 1 1m28-45 2-13q0-2-1 0a363 363 0 0 0-8 41l2-7 2-4c2 0 2 1 1 4 0 4 0 3 2-2 1-3 2-6 1-7l-1 1c-1 4-3 4-3 1l3-14m121-238-1 1-3 4-3 4c0 1 3 0 6-3 2-3 3-6 1-6m-90-69 5-7c4-4 4-5 2-7h-4l-2 4-1 3-3 6c-3 6-1 6 3 1M86 633l2-2 2-5 4-9v-2l4-8a3355 3355 0 0 1 2-13 518 518 0 0 1-5 9l-6 19-3 11m-4 55-6 16-1 8-1 5-2 7a1730 1730 0 0 1 0 14 1164 1164 0 0 1 11-50m306 110v2l1 1v-2l-1-1m2 5 2 7a609 609 0 0 1 7 12l-5-11-4-8m2-95-3 11-2 7v2l4-8c2-7 3-13 1-12m-2 36 1 1c2 0 7-13 5-14l-6 13M83 353l3-6 4-4 13-12 6-4 8-6 5-3 10-7c6-2 11-5 13-7l8-3c5-2 7-4 1-3a180 180 0 0 0-29 13c-1 0 9-8 11-8l5-2c5-4 21-6 23-3 1 1 4 1 6-1 2-3 0-6-4-7-4 0-5-1-3-4l7-13c5-9 7-11 9-11 4 0 17 5 21 9 5 4 6 5 6 3s-19-14-24-15c-3 0-3-2 0-5 3-2 3-2 8-1h12c0-1-2-2-6-2s-6-2-3-3c2 0 2-2 0-2l-2-1 9-6 5-4 5-3 4 4c4 3 5 4 9 4s19 5 22 8h3l-5-5-9-6c-4-2-5-3-13-1-2 1-3 0-5-2-10-10-9-10-15-10-5 0-5 0-7 3s-4 4-7 2l-7-2-7-2c-1-2-1-3 2-3s3-2 0-2c-4-2-5-1-5 2 0 4-4 13-6 15-2 1-2 2 0 2l8-6c4-4 5-5 8-4 6 1 6 2 1 7l-7 4-3 3-5 2-5 2c-2 2-3 3-1 3l4-1c2-1 2 0 0 3l-1 4 5-5c5-6 15-14 20-16l7-4c3 0 5-2 5-3 1-2 5-3 6-2l-2 2-4 4c-2 4-13 16-17 18-3 2-7 8-14 20-2 6-6 12-8 15-3 4-3 4-8 4-4 0-5 0-4-2a707 707 0 0 0 0 5l20 2h-7c-8 0-15 1-23 5-6 3-6 3-6 0 0-1 1-2 5-3 5-3 5-4 0-3-2 0-3 0-2-2l2-6 3-5v-3c0-1 0-2 3-3 3-2 5-4 2-4l-5 3c-4 2-4 3-5 6l-2 7-1 4-1 1c-2 1-2 9-1 10 0 1-1 3-4 5l-6 7-5 5c-8 5-17 11-21 16l-8 8c-3 3-5 6-5 8l-2 5c-1 4 1 3 3-2m311 374-3 6c0 2 4-2 5-6l1-4c-1-2-2 0-3 4m27 55v-9l1-10c2-1-2-28-4-28-1 0-1 5 1 11 1 6 2 18 0 14l-1-7-1-4-1 6v6l-1 8a414 414 0 0 0 6 61l1 1c1 0 1-2-1-24v-11c1-1 0-3-1-6 0-5 0-6-1-4l-1-6v-8l2 5 1 5Zm13 2v3h-1l-2-12a541 541 0 0 0-6-32v8l-3-11a466 466 0 0 0-3-27c3 13 4 15 5 14l-4-17-4-18-1-5c-2-1-3-8-2-8l-1-11-1-2 1 7c0 2 0 3-1 2l-2-8-10-31c-4-13-4-14-4-20 1-7 2-7 2 0 1 3 1 4 3 4 1-1 1 0 1 2l2 4 1 7c-1 4-1 4 1 4s3 0 2 4c0 4 0 5 2 5s2 0 2 4c0 3 1 5 2 5l1 5 1 3 1 4 2 6c1 0 2 2 2 9v10l1 5 3 17a524 524 0 0 1 10 70m-33-153c-1-2-2-3-1-5l-1-2c-2 0-2 1 0 7 1 4 2 4 2 3v-3m5 11-2-2v4c1 3 2 2 2-2m4 19c-1-1-1 0-1 1l1 1v-2m7 15c-1-1-1 0-1 3 0 5 2 6 2 2l-1-5M145 365l-1 4h1l1-4q-1-2-1 0m39-64c1-2-1-2-6 2l-18 10c-4-1-14 5-14 7s1 1 6-2c2-2 5-3 6-2 3 0 24-11 26-15m204 507-3-3 5 11a162 162 0 0 1 8 14c2 0 2 0-3-9l-7-13M176 334c1 2 2 0 6-8l10-13c6-5 6-6 4-6s-9 4-12 7c-4 4-6 8-7 14l-1 6m31-30-22-11h-8c-4 1-3 2 2 2s15 3 22 7l6 2m173 481v-2l-1 2h1M161 424v1a317 317 0 0 0 0-1Zm-56 167a616 616 0 0 1-4 18c2-2 13-40 13-43-1-2-4 8-9 25" fill="#000001"/>
    </g>
  </g>
</svg>
