<svg xmlns="http://www.w3.org/2000/svg" viewBox="0 0 322.2 306.4">
  <defs>
    <clipPath id="a">
      <path fill="none" d="M0 0h322v306H0z"/>
    </clipPath>
    <clipPath id="b">
      <path fill="none" d="M0 0h322v306H0z"/>
    </clipPath>
  </defs>
  <g clip-path="url(#a)">
    <g clip-path="url(#b)">
      <path d="M69 156h-1l-6-3v-1h1l5 3 1 1m-1 29 4 2 2 1h1v-1l-7-3h-1l1 1m-1-28h-2l1 1 2 1-1-2m4 18 7 3h1l-8-4v1m0 3 6 3h1l-1-1-4-3h-2v1m0 3c2 1 4 1 5 3h1v-1l-6-4-1 1 1 1m-7-30c-1 0 0 0 0 0l6 4h1v-1l-6-4h-1v1m8 22 7 4 1-1v-1l-3-1-4-2h-1v1m3 13v-1l-4-2-1-1h-1v1l6 3m4 44 5 1v-1l-5-2-1 1 1 1m-18-9-3-1v1l2 1h1v-1m-16-27v1l4 2-4-3m0 3v1l2 1-2-2m1-5h-1l5 3v-1l-4-2m1-3h-1v1l6 3h1-1l-5-4m7-3v-1l-5-3h-1l1 1 5 3m9-17-5-3h-2l1 1 6 3h1l-1-1m-7 40 10 4h1l-1-1-9-4h-2l1 1m5-2 3 2 3 1h1l-1-1-3-2-3-1h-1l1 1m2-3h-1l1 1 1-1h-1m0-3 6 4h1v-1l-5-3-3-1 1 1m2 5c0-1 0 0 0 0h1-1m-10 6 10 5h1v-1l-10-5h-2l1 1m12-19 5 4h2l-1-1-6-3v-1l-1 1 1 1m-18-6h-1l5 3-4-3m18 3 6 3h1v-1l-6-3-1-1-1 1 1 1m0-4 2 1 4 3h1v-1l-6-4h-1v1c-1 0 0 0 0 0m-9-24 1 1 5 3 1-1h-1l-4-3h-2m3-9v1l4 2-4-3m3 66-7-4h-2l1 1 6 3 3 1-1-1m-12-42 4 2-4-3v1m-1 2h-2l1 1 5 3h1l-1-1-4-3m10-6a311 311 0 0 0-4-1v1c0 1 0 0 0 0l-2-1h-1v1a330 330 0 0 0 6 2h-1v-1h2v-1m0-3-4-2v1l3 2 1-1m-6 17-6-3h-1a506 506 0 0 0 7 4v-1m10 11 5 3 1-1h-1l-5-3h-1l1 1m15-26-6-3h-1l1 1 6 4c2 0 1-1 0-2m110-80c-1-1-3 0-4 1v1l4-2m9-16-1 1-5 3h-1 1c3 0 4-2 7-3l-1-1m9 10-1-1 1 1m4-4v1h1v-1h-1m-2 5-2-1 2 1m-2-5-1 1 3 2-2-3m2-1v1l2 1v-1l-2-1m0 4 2 1s1 0 0 0l-2-1m-24-59 2 1h1v-2l-1 1-1-1h-2l1 1m24-4v-1h-1l1 1m4 61h-1l1 1h1l-1-1M45 258v8c0 3-2 6-4 8l-1 1-9 4-3-1c-4-2-8-5-9-10l-1-4h1c0 2 0 4 2 6l-1-6c0-1 1-3-2-4 1-2 0-4 2-6 2-1 2-2 1-4v-1c0-3 0-3 3-3l2 1h-2l-1 1v1h4-1l-3 2 1 4 2 5h2l-1-1-2-7 2-1 2-1c4-2 7-1 10 1s5 4 6 7m-5 1-4 3-1 2h1l4 1c2 0 3 0 2-2v-3l-2-1m-6-2-1 1c0 2 1 3 3 2l3-1 1-2-1-2c-3-2-4-3-5 2m-4 1c2 0 2 0 3-2l1-3-1-1h-3c-1 0-2 1-1 2l-1 1h-1l1 2 2 1m-7 13-2-1 1 2 1-1m1-8h-1l1-1c2 0 2-1 1-2l-2-1-1 2v1l1 4 3 1-2-4m2 0 1 1h1l-1-1h-1m3 14-1-1v1h1m0-10h-1l-2 2c0 1 1 4 2 3l1-2 1-2-1-1m2-2 1-1-2-1-1 1 2 1m7 6-4-4c-1-1-2-1-3 2l-1 1 1 3h7v-2m4-3c-1-1-1-2-3-2l-4-1h-1v1l3 4h1l4-1v-1m-12-11v1-1M212 24v2l1-1-1-1m-1 65 2 1-1-1h-1m-3-8c2 0 4 0 6 2l3 1-3-2c-2-2-4-2-6-1Zm3 8-1-1 1 1m5-8v1h1l2-1h-3M98 88v-1l-1-1h-2l1 1 2 1M79 213h-1l1 1 6 1v-1l-6-1m22-136 2 1-2-2-1 1h1m-5 7 3 2 1-1-4-2v1m-6-12v1-1m2 1c2-1 2-2 1-3h-1l1 1-1 1-2 1h2m-17 91v1l3 1c0-2-2-2-3-2m18-86-2-1h-1l1 1-1 1 2 1 1-2m-3 1Zm14-1h-1 1m17-51h-1 1m-2-1v1h1l-1-1m2 2v-1 1m75 27h2v-3l1-1c2-1 2-1 3 1v3l-1-1h-1l1 2-1 1-4-1v-1m4-2v-1 1m15 24h-1 1a135 135 0 0 0 4 2l-4-2m-114 2h-1l1 1h4v2h-1c-1-1-2-2-3-1l3 1v1c2 0 2 0 2 2l1 8v1h2v-4c0-4-2-9-1-13 0-2-3-4-5-4v2l2 1v2h-1l-3 1m16-15 2 1h1l-3-3-2 1 2 1m-6-7 3-2v-1h-1l-2 1-1 1 1 1m-9-32 4 2c0-2-1-2-2-3h-3v1h1m3 6h-2v2h-3l-2-2 2-2 1-1c1 0 4 1 4 3m-4 0h-1 1m1-2h-2l2 1v-1m197 197h1l-1-1v1m-102-71v2h1v-1l-1-1m-12 24h2l-2-1-1 1h1m6-21 1 1 1-1v-1l-2 1m4-2-1 1 1 1v-2m5-1h-1l1 1v-1s0-1 0 0m11 76Zm2-1Zm0 0-2 1h1l1-1m-99-116v1l1 1h1l-1-1-1-1m52 37Zm9 82ZM51 157l1-1-1-1v2m66-46 1 3 1-1-2-2m186 121v-1h-1l1 1M116 111h1-1m-4 7h-1l-1 1 2 1c2-1 2-1 0-2m4-8v1-1m-5 6h-1 1Zm4-1h1-1m48 86s0 1 0 0m0 10v-2h-1l1 2m1 0h-1 1m-1-9v-1 1m-69 64-3 2c-2 0-2-1-2-2-1-1 1-3 2-3l3 3m-2-2-2 1 1 2 2-2-1-1m82-34h-1l1 2 1 1-1-1v-2m-9-24c1 0 1 0 0 0v-1 1m-2-4v-1 1m136 26 2 1-2-1m-175 4-5-1h-1v1l5 2 1-1v-1m-5 4h-1v1c2 2 4 2 6 2h1l-1-1-5-2m33-40 1 3-1-3m-8 4c0-3 2-5 4-4 2 0 4 2 3 4l-1 2v1l1 1-2-1h-2c-2 0-3-2-3-3m5 1v1l1-1-1-1v1m-2 1 1-1 1-3-1-1-1 1-1 2c-1 1 0 2 1 2m-24 34h1l-1-1h-3l2 1h1m37-39 1 2-1-2m2 3-1-1 1 1m39-51c-2 2-4 2-6 2h-3l-1 1h6l-1 1h-10l1 1h8c3 0 6-1 7-4l1-1h-2m78 106c-1-1-3-3-3-5h-1c0 2 3 5 4 5m2-1h1l-3-4h-1l3 4m-4 4s1 0 0 0l-1-1 1 1m-5-1h1l-3-6-1-1v1l3 6m3 0v-1c-2-2-3-5-2-8l-1-1v1c-1 4 1 6 3 9m1 0h-1 1m19-16h-1 1m1 3-1-3 1 3m-3-4v-1 1ZM194 28l-1 1 2 1v-1l-1-1m4-8h-2v1l2 1v-2m10 2h-2c0-1 0-1 0 0l1 1h-1l1 1s1 2 2 1l-1-1v-2m-13 2h2l1-1h-3c-1-1-2 0-2 1v3l3 1 1-2h-2l-1-2h1m6-1 1-1 1-2h-1c-1 0 0 0 0 0l-1 2v1m66 236-1-1v1h1m1-3h1l-1-1h-1l1 1m53-2-5 10-5 6-5 5c-4 3-9 5-13 6l-5 1h-4l-8-1-3-1-6-3-6-4-4-4-5-9c-2-3-2-5-2-8v-9l3-12 2-5 3-5 6-6v-1l-1-4-2-5-6-15-3-6-2-5h-1v23c1 4-1 7-2 11v4l-1 3-2 8-2 4-1 1-2 6-5 8c-1 2-1 4-3 5l-2 4-5 7-5 4-2 3-5 6-2 1-3 3-1 2-3 3-7 5-8 5-2 1-8 3-1 1c-4 0-8 3-13 4l-5 1h-1l-8 1h-8l-16-1h-2l-5-1-1-1-11-4-10-5-10-5-4-3-1-1-14-10-11-13-4-5-4-4-6-8c-4-3-8-6-14-6h-1c-1 1-2 1-1 2v2c0 2-1 2-2 2l-2-1c0-1-2 0-2-2h2l1-1-2-1 1-1h3v-1h-1c-2 0-3 0-3-2l-1-1-1 1-1 4c0 1 0 2-2 1-1-1-1 0-1 1v4l-1 4H4c-1 0-2-1-1-2v-2c0-1 0-2-2-2l-1-2v-8l1-1 1-2 1-1c2 0 3 0 3-2l4-2h3c2 0 2 0 3 2l1 3v2l-1 3h1l1-2 3-1h4c2 2 4 1 6 1l1-1 2-1 1 1 1 2 3 1 1-1-1-4-4-12c0-1 0-2-2-2l-5-4-2-1c-4 0-6-3-9-5v-4l4-9 2-7 3-9 5-10 3-6c3-5 5-11 6-17l2-4 3-4v-4l1-2 5-4 11-5h1c5-2 9-5 12-10l7-8 5-2c3-1 4-3 5-6l-2-7c-3-4-4-8-6-13-1-1 1-3 2-4l2-4 2-5 1-1 4-5 1-2c0-2 1-4 3-4 2-1 3-3 5-3v-2c-1-1-2-2-3-1h-5l-1-2v-7l-1-3c-1-1 0-2 1-2l4-3v-4l-1-2h-3l-2-2c0-1 0-2 2-3h2c4-1 4-1 5-5l3-8 4-3h13l5 2 2 5-1 8v5l1 2 4 2c1 1 1 2-1 3l-3 1c-1 1-2 2-1 4l1 1v3h-1c-1 4-5 5-8 7l-1 3 2 1v1c4 0 4 1 4 5-1 2 0 2 2 3 5 2 10 2 16 0 2-1 5-2 7-5 3-4 7-6 12-8l12-3c2 0 3 0 4 2 2 2 5 3 7 3l10-2 1-1 1 1c-5 3-10 4-14 3-2 0-4-2-5-3l-3-2-9 2-7 3-8 5v1l-1 1h1l2-1c5-4 10-6 17-7 3-1 5 0 8 2s6 2 9 2c4 0 7-2 11-4v-2c0-1 2-1 1-3l-2-1-7-4h-3c-2 0-3-2-3-4v-2c0-1 0-2-2-2h-1l-1-3v-1h1v1l1-1v-4l3-3c1-1 2-3 1-5v-2l2-7 3-2 8-1 11 2 7 4c1 1 2 2 1 3v7l1 2-1 1h-1c-2-3-6-2-8-3l-4-3h-2l-4-1h-1v1l1 1 1 1c-1 1-1 2-2 1l-2-1 1 2 1 1h-1l-2-2c0-1-1-2-3-2h-3l-2 1 2 1h1v1c-2 1 0 2 0 3l-1 1-2-1-1-2-2 2c-1 1-2 2 0 3v1l1 2v6c0 2 1 2 2 2l4-2 2-1c1 1-1 1-1 2l-1 1 1 1c2 1 3 3 5 3l2 2h2l11-5 1-1-1-1-2-1h-1l1-1h1l-1-1h-2v-1h5l-1-1v-1l-2-1 2 1h1v-2l-1-1-1-1c1-2-1-1-1-1h-1c-1-1-3-1-3-3h-1l-1 2-2 5h-2v-1c-1 0 0 0 0 0l4-5c0-2-2-2-3-2l-1 1-1-1v-1l5-1 12 4 1 2-1 1-2 9v1l1 1c3 0 4 1 4 3l2 4h1l7-1 10-2 13-3h9l1 1c2 1 2 2 1 3l-2 2c0 1 0 2 2 3l7-1h8c2 0 3 1 3 3l2 2 2-1c4-1 8 0 12 1l3 1 1 1-1 1-6 5-1 4 1 2 3 2v2h-4c-3-2-6-1-9-1l-7-1h-4c-3 2-6 2-10 2l-7-1c-2 0-3-1-3-3l-3-2v1l-14 1-5 1-1 4-2 10-1 2v15l-1 9 1 1 2 9v5c0 2-1 4-3 4l-2 3 1 4 3 1 1-1c1-3 5-5 7-4l5 1c2 1 4 5 4 6 0 4-2 6-5 8-1 2-3 2-5 2l2 5 2 4 2 2 7 7c3 5 7 9 9 14l5 8 3 8 4 8 1 4 2 4c1 1 3 1 3 3l2 1 4-1c7-1 13 0 20 2 4 1 7 4 11 7 3 3 6 6 7 11l2 8 1 5c1 4 0 8-1 12M188 20h1-1m27-5-3-1-4-1h-2l1 1 7 2 1-1c1 0 0 0 0 0m-26-7c2 0 2-1 2-2l-1-1c-2 0-1 1-2 2l1 1m-1 3 1 1h7l1-1v-1h2l2 2h9l4 1 2-1c1-2 0-6-3-7l-11-2-8-1-2 1v5c0 2-2 2-3 2l-1 1m-5 15v-1l-1 2 1-1m-55-2v1h1l-1-1m-31-5h-1v1l1-1M7 230h6v-1H7v1m5 1v1h1l-1-1m-9 8v-4H2v7l1-1v-2m8-6h1l-1-1-6-1-2 3h2v-1h6m-2 4c-1 0-2 0-2 2v1l1 2 1 1 1-1v-3c1-1 0-2-1-2m3-1h1v-1h-1l-2 1h2m1 7v1-1m1-4-2 1h1l1-1m15-2-1-1v2l1-1m5-2v-1h-1l-1 3v1l1-1 1-2m3 3Zm2 1v-1l-1 1h1m252-27 1 1v-1h-1m-5-1h1-1m-13 2h1l7-2h-2l-5 1-1 1m-41-84v1h1c2-1 5 0 6 2l1 3-4 3-4-3v2c2 3 6 4 9 1 3-2 3-6 0-9s-7-2-9 0m3 12h-1 1v1-1m-4-12 2-2v-1l-2 2v1m-2 5c1 2 1 2 3 0l1 1h-1l3 1 2-5h-3l-2 1-2 1h-2l1 1m1-79v-1l-1 1h1m50-5-1 2c-2 2-1 5-1 8-1 0 0 0 0 0l1-1v-2l1-2c0-2 0-3 2-3h9v2h-1c-3 1-3 2-2 5v1c1 1 0 2-1 2h-6l-4-1-3-1-6 2h-10c-2 0-3-1-3-3v-5l-1-1-1 1-1 2-5 2h-15l-1 2 1 1h4l14-2c2 0 3 0 3 2l3 3h8c3 0 6 1 9-1h3l9 1h9l-1-1-2-4 3-5 4-3c1-1 1-1-1-2h-1c-4-1-8-2-12-1l-2 1c-2-1-2 0-2 1m-39-3h1-1m4 2c1 0 1 0 0 0m4-2h1-1m5 2v3l1-2h1l-1-2-1 1m5-4h-2l-1-2-1 2v1l2 2c-1 1 0 2 1 2l11-1 7-2 2 1 2-1-1-2c-1-1-3-2-4-1l-10 1h-6m-1-2 1-1h-1v1m-35 1h1c2 1 4 0 6-1l9-2 17-1h4l2-3-2-1h-3l-12 2-11 2-5 1-6 1-1 1 1 1m-9-22h1c0-1-4-4-5-3h-1 1l4 3m-13 22c1 2 2 3 4 2l11-5 1-2v-2c-1-1-1-2-3-1l-7 2c-1 1-2 3-4 3-2 1-2 1-2 3m-5 4Zm-5 8 2-2-1-1c-1 1-2 2-1 3m-7 21v1l-3 9v1l1 2v-1l3-5c2-2 4-4 4-7 1-3 3-5 3-8l2-4 2-2v-4l-1-1 1-1 2 2v2c-1 3 0 5 3 7l1 1h-1c-2 1-3 0-4-1-4-2-3-1-4 3 0 4-2 7-4 11-1 1-1 2 1 2h5l1 1h-1l-3 1h-6c-2 0-2 0-1 2l-1 2c-1 1-3 2-3 4l-2 2 2 2h2l9 5 6-5c2-2 3-5 3-8 0-2 1-3 2-3l1-1v-3l2-3 2-3 3-6 2-3 4-7 1-1c1 2 3 1 4 2v1h-3l-2 1 2 1h5l-1 1h-4c-3 0-3 0-4 2v3l-1 1c-1-1-2 0-2 2h-1l-1 4v1c-2 0-2 1-2 2l-2 1 1 4-4 4 1 1 5 2 1 1h-2a291 291 0 0 0-6-2l1 1 3 2v1h-1v-1c-2-1-2-1-3 1l-7 7v1l2 1 7 4a88 88 0 0 1 15 13l5-1 2-2v-9l-2-8 1-4-1-2-1-2 2-5 1-5-1-1-1 2v2h-1v-5l1-1 1-2 2-10c0-4 2-8 1-12l-1-3-1-3-4-5-3-3-1-1-13 5c-3 2-3 2-4-1h-1c0-1 0-1 0 0l-3 3a198 198 0 0 0-11 22c0 2 0 4-2 6m38 48-1-2v1l1 1s1 0 0 0m-30-22Zm-14-11h2v-2h-2l-1 1-3 2 1 2h2c1-1 2-2 1-3m-1-4 2-2 2-2 1-5v-2c-1-2-1-3 1-4 2-2 1-4 2-5v-1l-5-2-8-1-7 2-1 1c-4 3-8 6-13 7l-5 1h-13l-1 1-2 10v3h3a62 62 0 0 1 32 1l6 2c2 0 5-3 6-4m-4 6-1 1h2l-1-1m-34-3h-1l1 1 4-1 13 1 7 1h1l-1-1-16-2h-3l-5 1m4-2h1-2 1m4 0 12 1h2-1l-5-1c-3 0-5-2-8-1l-1 1h1m17 2-3-1 3 1m-29-1Zm-4-19 1-1h-1v1m52-17c-1 0 0 0 0 0m-36 17-6 1h-10l1 1 8 2 9-2 6-2 8-5c3-2 6-3 10-3 3 0 6 0 9 2 2 1 3 0 3-2l-1-1-10-1c-4-1-7 1-10 2s-5 2-6 4l-11 4m-22-12 9 3c6 0 11-2 14-6l-1 1c-6 3-12 3-18 2l-3-1h-1v1m-4-21-4-2v2l3 2h1v-2m-8-7h1l1-1v-2l-3-1-1 1c2 0 2 1 2 3m2 2 1 1c0-1 0-2-1-1m3 2 1 1h1l-1-1-1-3-1-2h-1v2l2 3m6-4-1-1-3 3v1h1l3-3m-1 3-1 1h2l-1-1m0 5v-2l-1 1v1l1 1v-1m2 0-1-1v1h1m1-6-1-1-1 1c0 1 0 0 0 0h2m-5-20v-1 1m-1 4 3 4h2v-2c-1-2-3-2-5-3h-1l1 1m-2-3-2-2-3 2h-1 6m-1 10-1-1 1 1m-3-12 1-1-1-1-1 2h1m-7-7c2 0 2 1 1 2l2 1c1-1 1 0 1 1h1c2-1 3 0 4 2l1 1 1-1-1-1-2-2V7l-3-2-4-1h-1v1m-4 11 2-1 3-1h1v-1l-5 1-1 2m4 23 2-5 1-1c1 1 1 3 2 1 2-1 1-1 0-2l-1-2c-1-1-1-3 1-4 0 0 1 0 0 0l-1-1-2-1v-2h1l3 3c2 1 4 3 6 2l1 2h-2l1 3v-1l3-2h5l-2-1-3-2c-1-1-3-2-5-1h-1l-3-2-4-2-7 1c-2 1-2 2-2 4l-1 2-1 1-2 5v1l1 1c1 1 2 1 0 2v3c-1 2 0 3 2 3 3-1 6-2 8-5m-2 5h1c1-2 2-2 3-2h10l-1-1-3-5h-3c-3 0-3 1-4 3l-2 3-1 1v1m13 0h-1l-5-1h-4c-2 1-2 2-2 3l2 1 9-1v-1l1-1m0 4-2-1-2 1h-7l-1 1 1 1 10-1 1-1M92 90l2 3c0 2 1 3 3 3 3 1 5 2 8 1 6-2 11-4 17-4l1-2-1-8-1-8-1-6 1-2 1 2 1 9 2 13 2 1 1-2v-3l2-12c0-2 0-3-2-4v-2l-1-3-5-7-1-1c0-2-2-2-3-3h-2v-1h5l2-1-1-2-1-1h-10l-2 1h-2a205 205 0 0 1-6 3l1-1 1-1h-2l-2 1c-1 0-2 0-1 1l1 1h1l-1 1c-2 0-3 2-4 4 0 0-1 0 0 0 0 1 0 0 0 0l6-2c2 0 3 0 4-2s1-2 3-1l1 1v1c-2-1-3-1-4 1l-3 1-7 3c-2 0-2 1-3 2l1 2v-1 1h2v-2h1v3h-5c-1 1-3 3-3 5v1c-2 2-2 4 0 6l1 2 1 1c3 2 3 2 2 4v4m-1 12h2l2-1 3-1c1 1 2 0 2-1v-1l-6-1-1 3h-1c0 1-2 1-1 2m-11 8s0-1 0 0m-15 14-7 9-4 5v1h1l1-1 13-15 1-2 3-1v-1c-2 0-3 1-3 2l-5 3m23-4h4l4-3 1-4 4-6 1-1h-2a69 69 0 0 0-14 7l-8 5-9 10-8 10c-1 1-1 2 1 2l4 3v1c0 1 0 0 0 0l-3-2-3-1c-1-1-2 0-2 1l1 2 2-1h1v1l-1 2c-3 7-7 13-9 20l-4 8-5 9-3 11v12l1 11h3l-1 1v4c0 3 2 4 4 5l11 4 7 2h1l2-6 1-7 3-15 1-4-1-2-6-3h-1v-1h2l5 3c2 1 2 1 2-1l3-9 4-10 1-4v-1l-7-5-2-1v-1h1l5 3 4 2c-1-2-2-3-4-3l-1-2 4 2h1v-1l-4-3-4-2v-1h1l3 1-3-2v-1h1l5 3c1 1 2 2 1 3v1l1-1c1-1 0-3-1-4l-3-2-3-1c-1 0-2 0-2-2l-1-1-1 1-5 11-1 3-5 10c-2 2-2 5-3 8l-5 9-5 9-1 2c0 3-2 4-3 6h-1v-1l1-1 1-2 2-4 5-8c2-4 2-8 5-11l1-6v-2l-6-3v-1h1l5 3h2l6-12-1-1-4-3-2-1h2l5 3 1-1-1-1-7-4v-1h2l6 4h2l2-6v-2l-7-4v-1l2-2v-1l1 1 6 7 11 8 1 2-4 15-5 16-4 12-3 15v1l-1 8-1 4-1 2-2 3c0 2 3 1 4 3h1c1-2 2-2 3-1l8 2c2 1 2 0 3-2v-2a470 470 0 0 1 0-12l-2-1h-1l1-1 3 1c1 1 1 0 1-1 1-1 0-1-1-1l-5-2h-1l1-1 2 1 4 1 1-1h-1l-1-2-8-1v-2l3 1 6 2 1-1-1-1-6-2-2-1h2l6 2h1v-1l-2-1h2l1-1-1-1-7-2v-1l4 1 3 1 2-1v-4l-1-2-5-1s-1 0 0 0l1-1 3 1h2c1-1 0-1-1-2h-1l-4-1-1-1 1-1 1 1 5 1 1-1c1-1 0-1-1-1l-6-2 1-1 4 1 2 1 1-1-1-1-3-1h-1l1-1 3 1h1v-1l-1-1h-4v-1l1-1 1 1 3 1 1-1-1-1-3-2-2-1h3l3 1h1l-1-1-4-2h-2v-1h1l4 1h2l-1-1-5-3h-1l1-1 2 1 3 1c1 1 2 0 2-1l1-5-2-2-4-2-1-1h1l4 1h1v-1l-1-1-5-2-1-1h1l5 2h2c1-1 0-3-1-4l-4-2-2-1h3c3 2 6 2 10 1l4-1 8-3 2-2-1-2h-1l1-1c2 1 3 0 4-1l3-2c0-1 1-2 3-2l2-1v-2l-4-2-14-6-4-1-3-2-2-1-4-1c-1-1-3-2-4 0l-1 1c-3-1-5 0-7-2l-4-2v-2l4-4 1 1-1 5 1 1v-1l2-3h1v1l-1 2v2l1-1 1-1 1-1 1 1v2l1-1 1-2 3-2 2-3 3-2c2 1 4-2 6-3 2 0 2-1 1-3l-4-5c-2-1-3-1-4 1l-3 5c-1 2-1 3-3 3l-4 1-1-1v-1m21-18-3 2-3 4v3l3 3h3l2-1 6-8 3-4h2l2 2 1-1 1-3-1-1-8 2-8 2m4-2h-1 1m13 9 1 3 5 11 2 9c0 3 0 6-2 9 0 1-2 2-1 3l3 1c3 2 6 3 10 2h2l1-1 1-6-1-5v-1l-1 1c1 3-2 6 0 9l-1 1-1-1v-4l2-11 1-2 2 2 1-1v-9l-3-3-1-2-1-3v-3l1-3c0-2 0-3 2-2 3 1 6 0 9 2h1l5-4h1l1-1-1-1h-4l-9-1c-2 0-5-2-8-1h-12c-3-1-4 0-4 2v10m88 32 1-1 3 1 8 3 1-1h-1l-7-10h-2l-2 2-7 12c-1 1 0 1 1 2h3l8 1 6 3h1l7 4h1v-1l-2-3-3-5-2-2-12-4h-2v-1M66 255h-2l-5-2h-1v1a203 203 0 0 0 20 19l19 14 18 7 12 4 13 1 8-1 11-1 5-1 6-1 10-4 9-4 7-6c4-1 6-5 9-7l3-3 5-5 3-4 5-5c1-3 3-5 5-6l4-9 6-13 5-22 1-14-1-14c0-5-1-10-3-14-1-3-2-6-5-7h-1l-1 1 1 2c1 3 2 7 1 11v4c1 7 0 13-2 18a107 107 0 0 1-13 31l-2 2-2 5-5 6-2 1-7 7c-2 2-2 3-1 6 1 2 2 5 1 8l-1 3c0 2-1 2-2 2l-5 2h-5l-2 1c-3 0-4 1-5 3l-2 2h-5 1l2-1 2-1 1-1-1-1c-2 0-3-1-4-3h-4l-4 1-1 2 2 1c1 0 2 1 2-1s1-2 3-1l1 1v3h-1c-2 2-2 2-3 1l-3-2c-2 0-3-1-2-3 0-1 1-2-1-2-1 0-1-2-2-1-4 1-7 0-11 2h-8c-2 1-5 0-7-1l-12-2c-4-1-7-2-9-4-3-1-5-3-8-3-2 1-3 0-3 2l-1 2v5c1 2 0 4-3 4h-2l-3 1-2 1-4-2c-1-1-3-2-4-1-2 0-2-1-3-2s0-3 1-4l1-1c1-2 2-2 4-2 3 0 5-2 5-5l-2-2h-5c-2 0-3-1-3-3v-4h-1l-1 1c-3 4-6 6-10 7h-2l1-1 2-1c4-1 7-3 9-7l1-1h-1l-2 1-5 4c-3 2-7 3-11 3l-5-2-4-5v1c0 2 1 3 3 4l8 4 2 1m-2-16 1-3-1-1-11-4-8-4-1 1 4 11 3 3 7 6 5 2c5 0 9-2 13-5 1-1 1-1-1-2l-3-1-1 1 1 1h-2l-4-2c-2-1-2-2-2-3m31-57-2 14-2 7-2 13-4 25-1 8c-1 1 0 3 1 3h6c3-1 5-1 8 1l7 1h5c2 1 4 0 5-2v-33l-1-5v-9l1-13 1-9v-7c1-4 2-8 1-12v-8l-2 1c0 3-1 4-4 5-4 1-9 4-14 4l-1 2-1 6-1 8m29 3-1 1h-4l-1 1h1l5 1 2-2-1-4h-5l-1 1 1 2h4m-5-5h5l1-2-1-1h-4l-1 1v2m3-22h-1l-1 1-1 1 2 1c2-1 3-1 2-4v-2c0-2-1-2-2-3l-1 2v3h1l1 1m19-3v1h-1l-1-2-9-5v1l1 3 1 2-1 3 1 7 2 15 1 7 1 1c1-2 3-2 3-4l1-1v4c0 1 1 2 2 1l3-1v-2l-1-5 1-10 1-13v-2c0-3-1-4-3-3h-1v-1l3-1h1l-1-1h-3l-1 3v3m6 24v-2h-1v7l1 1c2 0 2 2 3 2v1h-4l-2 1-4 3c-2 2-3 5-2 8h1v-2c1-5 4-8 10-8l3-1v-3l1-2v-10l-2-5c0-1-1-2-3-1v2l-1 5v1c2 2 1 4 1 7h-1v-3m1-28v1l3 3 2-1-1-2v-2l-3-2-1 1 1 1c1 1-1 0-1 1m0-16v1l1-1v-2l-1 1v1m4-22-2 1v2l1-1 3-1h1l-1 1-2 1-1 1 1 1 4-1 7 1 2 1c2 0 2 0 1-2l-3-4c-2-3-5-5-8-6l-3 1-1 2-3 2v2h2l2-2 1-1-1 2m-5-4v1l1 1 3-3h-1l-3 1m0-2h1-1m20 18h1l1-2-3-3-4-1h-2v8l1 4c2 1 2 2 2 3v2c1 1 3 2 4 1h2c1 1 2 0 2-1h3-1 1l1 1h3l1-1-1-1-1-1 2 1h1l-1-1v-1c1 0 2-1 1-2h-7v2l-1-1h-4v-1h1l1-1-1-1h-3l-3-1v-1l1-1h1l1 1 3 1 3 2 1-1c-1 0-2 0-2-2l-1-1h-3v-1m3 1 5 2v1l-2-1v1c1 0 2 2 4 1h2c1-1-1-2-2-3h-1l-4-2c-2-1-2-1-2 1m2-1 1-1-1 1m11-6v-1l-2 2-5 1-1 1-1 1 2 1h3c1 1 2 2 3 1l1-3c2-1 1-2 0-3m-2 9 2-1h-1l-1-1-3-1v1l3 2m0 1-1 1h1v-1m-14-1h-1l1 1v-1m-4 27h1v-1l-2-2v1l1 2m0 7-1 1h1v-1m-1 2v1-1m-6 30v1l1 4 4 7 1 1h-2l-1-1-2-3-1-2-1 2-1 1v1h1v-1l4 5 1 1v-1s0-1 0 0h1v4h1c1-1 1 0 1 1l2 3 4 7v1c-2 1-1 2-1 4l1 1 1-1v-2l1-1v1c1 3 2 6 5 7 1 1 2 2 0 3v2h2v1l-4 4-1 1v-1l1-1v-7l-4-4c-3 0-7-1-9 3l-1 1v-1l2-3c1 0 2-1 1-2-1-2-2-5-1-7l-1-3h-2v3l1 5-1 3v-3c0-2 0-3-3-2l-1 1 2 6 1 4c2 0 2 2 2 3 0 3 1 5 3 7l2 1v-7c0-2 2-3 3-3 2 0 4 2 4 4v11h2l3-2 1-1c3-1 5-3 5-6l1-5-1-2-2 1-1 1h-1v-1l3-1c2-2 2-5 0-6h-2l-3 1h-2l2-1c2-1 2-2 2-4h-1l-1-2v2l1 1h-1c0-1-2-3 0-4l-1-1h-1l-1-2v-1l-1-1-3-6c0-2-3-3-2-6l-4-7-2-5c0-2-5-2-6-1m8-29h2l-1-1-1 1m1-2 1-1h-1v1m11 55v2l5 8 1 1v-2l-2-8-3-16-2-12-4-15h-1v2c-1 3 0 6 1 9l1 13 1 3 4 11c0 2 1 3-1 4m12 31-4-1h-1v1l6 2 1-1h-1l-1-1m1-24v-1h-1l1 1m-3 37v1h1l-1-1m-2 1v1h1l-1-1m-1-60h1-1m-5 50h-1a186 186 0 0 0-5 3c-1 1 0 2 1 2 2 0 3-3 5-4v-1m-7-8q0-3-2-2h-1l-1-1h1l1-2h-1c-2 0-3 1-2 3v2l1 11 2 2c2 0 1-1 1-2l1-11m-4 13v-1h-1l-2 1-4 1-3 1-12 1-13-2-15-4h-3v1h1a85 85 0 0 0 29 7l16-2h2c2 1 3-2 5-3m-1 6h-1l-1-1v1l2 1v-1m-5-2v1-1m-7 1-10 1-15-2-13-4-3-2-1-1-1 1c3 3 6 4 10 5 8 2 17 5 25 4l8-1 4-1h-4m-31-45-1 1-4-1h-1v2l2 1h5l-1 1h-6v1l2 1h4v1h-6c-1 1 0 1 1 2l5 1h1v1h-2l-4-1c-1-1-2-1-1 1v8c0 1 0 2 2 2l4 1v1l-5-1-1 1 1 1h1l3 1h1l-1 1h-4l1 1a100 100 0 0 0 7 0l2-5-1-15v-6l-1-9-1-4s0-1 0 0l-5-1-2-1-1 1c-1 1 0 2 1 2l2 1h3v1h-6l1 1c2 0 3 2 5 1v1h-3l-2-1-1 1v1l2 1h5v1h-7c-1 1 0 1 1 1l4 1 1 1m1-17v1h-1l-5-1h-1c-1 1 0 2 1 2l4 1h3l1-1v-9l-1-4c-1 2-2 2-3 2h-5l1 2h5l1 1h-7v1h2l4 1v1h-1l-4-1-1 1c-1 1 0 1 1 1l6 2m5-44-2-2-2-1v1l4 2m-4 12h-2l-2 1-2 1 2 1h1l2-1 1-2m0-11 4 2h1v-1l-4-2h-1v1m5 4-4-2-1 1 2 2h3v-1m-4 3 3 2c1 0 1 2 2 0l-1-2h-1l-2-2h-2l1 2m10 24h-1v6h1l2-4c1-1 1-2-1-2h-1m2 0 1-2h-2l-1 2h2m4 8c-2 1-1 2-1 3 2 3 3 6 7 6s8-5 6-9c0-1-2-2-1-4l-1-1c-2-2-7-1-9 1l-1 3v1m12 11c-2-3-1-3-5-1-2 0-2 1-1 3l2 5 2 3c1 1 4-1 4-2l1-1v-1l-3-6m1 23-1 2v1h1v-3m-2-3h1v-1l-1 1m0 1v1-1m5-4v-1c0-1 0-2-1-1h-2l-1 1v1h4m1-13-1-1-1 1 1 2 1-2m-12 4 2-2-1-1-1 2v1m0-5v-1h-1l1 1m2 7 1 1 1-1-1-1-1 1m1 3 1 1 1-1-1-1-1 1m2 4h1l-1-1-1 1h1m-6-17h-1 1m-5-3h1-1Zm-1 2h-2v1l1 2c1 7 1 13 3 19 1 2 0 5-3 5l-6 1h-2c-2 0-2 0-2 2 1 3 1 6-1 8-1 2-2 2-3 2h-6l-2 1v3c0 3 0 3 3 4l9 3 15 2 5-1c5 1 10-1 15-3 1 0 2-1 2-3 0-1 0-3-2-4-3-1-4-3-5-5 0-1 0-2-2-2-1 1-2 0-2-1l-1-4-2-6v-1l-1-1c0-2-1-4-3-4-2-1-2-2 0-4v-1l-1-3c-1-1-2-2-1-3l-2-5v-1l-4-1m16 29v-1 1m1 5c-1 0 0 0 0 0h1v-1l-1 1m0-3c0 1 0 0 0 0m-28-15 5 3a156 156 0 0 1 5 3l-1 1-2-2a362 362 0 0 0-8-3l1 3 8 4h1l3-2-2-3h-1l-8-5-1-1h3l6 4h1v-1l-1-1-6-3-3-1h-1l1 4m0-6 9 5h1l-1-1v-1l-9-6h-1v1l1 2m5 15-4-2-1 1c-1 2 0 3 3 3l2-1v-1m3-16-2-1-6-3h-2l1 1 3 1 6 4h1l-1-2m1-2-2-2-6-3-2-1-1 1 1 1a520 520 0 0 0 10 4m-11-12v1l8 4 1-1v-1l-1-1-6-3h-1l-1 1m1-3 1 1 5 2h1l-1-1-5-3h-1v1m0 8 8 3h1v-1l-1-1-7-3h-2l1 2m7-9-6-3h-1v1l6 4h2l-1-2m-1-3-6-3-1 1 2 1 4 2 1 1v-2m-2-8-4-2h-1v1l1 2 3 1 1 1h-1a367 367 0 0 1-3 1l3 2c3 1 3 1 3-2v-1c0-2 0-2-2-3m1-2-1-1-4-3h-2l1 2 5 3 1 1v-2m-1-4-5-3v-1l-1 1v1l6 4h1l-1-2m0-3-1-1-3-2-2-1 1 2 3 3h2v-1m0-4-1-1-4-2-1-1v2l1 1 3 2h1l1-1m-1-3v-1l-5-3v1c1 1 2 3 4 3h1m-5 17h-7c-1-1-1 0-2 1l2 2 6-1v-1l1-1m34 29 1 1 1-1-1-1-1 1m3 2-1 1 2 1 1-1-2-1m1-2h1-1m-1 8 1 6h3v-2l-2-2-1-2-1-1v1m4 0-2-2v1l1 2 1-1m-6-35-1-3-1-2h-4l-3 3v3l2 1 2 1 4-1 1-2m-11-65c0 2 1 2 2 2l2-1v-2l-1-2-2-1h-1v4m1 5h3l-1-1-2 1m10 5c0-3 0-3-3-3s-3 0-3 2v10c1 1 1 2-1 1 0-1 0 0 0 0v37c0 2 0 2 2 2l3-1 1-5 1-11v-32m-3-13q-3 1-3 4v4l3 1h1l-1-2h-2l1-1 1 1 1-1v-5c1-1 0-2-1-1m0-3h-4l1 2h1l2-2m-8 25-1 1v1l3 3c1 1 1 0 1-1l-3-4m1-8h1v1l1-2-1-1v-1l1-1-1-1-2 1v3c0 1 0 2 1 1m0 2-1 1 2 2 1-1-2-2m-1 3-1 1 2 2 1 1 1-1-1-1-2-2m-1-11-1 1h1v-1m1 24-1 1 1 1 1-1-1-1m-2 9 1 2v-1l-1-2v1m-10-15-1-1-10-4-11-5-8-4-1 1v1l2 1 14 6 15 8c2 1 2 1 2-1v-1c0-1 0-2-2-2m-11 1-1 2 1 1 1-1-1-2m-1 3h-1l-1 1 4 2h1l-3-3m-3 15-2 1-2 1 2 1 2-1c1-1 2-2 1-3l-1 1m1-5-1-1-3 1-1 1h3l-2 1v1l1 1c2 0 3-1 3-3v-1m-5 14h2v1l3-1 1-1c0-1 0-2-1-1h-4l-1 2m-25 87c-2-2-2-2-4-1l-2 1c-1 1-3 2-4 1h-2v2l2 1 4 2c1 2 4 2 5 1l4-1h3l1-2-1-1-3-1-3-2m3-5v-1 1m76 11-2 1-1 1h2l1-2m21-83v2c2 2 3 5 3 8l2 5 1 5v3l-1 8-1 10-1 12 1 2 1-1 3-4c2-2 5-4 7-8l7-11 2-5 4-12 2-6 1-14v-15l-1-8-1-2h-1 2l1 1c0 2 2 5 1 8v16a84 84 0 0 1-14 46l-4 6c-3 3-5 7-9 9l-1 2v1h2v-1l6-5 1-1 2-3v-1q3 0 3-2l1-1 3-3v-2l-1 1-1 2v-2l3-4 7-14 4-12 1-8 1-17-2-14-1-2-5-3-12-2c-2 0-3 0-3 2l-2 3-7 11v1c1 1 0 2-2 3v2c2 2 2 4 0 6l-1 3-1 5m11-33h-1 1m25 4-1 2 1 1h1l-1-2v-1m1 27-2 13v1-1l2-6 1-14c1-5 1-9-1-14l-1 1 1 14v6m-5 22c0 1 0 0 0 0m0 0-1 1h1v-1m-1 4Zm-6 10v1l1-1h-1m-2 4h-1v1h1v-1m-11 14v1h1v-2l-1 1m-1 2v-1 1m0 0c0-1 0 0 0 0m-1 1h-1v1l1-1m-12 10-1 1h1l4-1 1-1h-1l-4 1m4 10h-1l1 1v-1m-4-17h-2l1 1 1-1m-2 18 1 1 1-1h-2m27-132-5-6-1-1c-2-2-5-1-7-1-5 0-9 0-14-2l-3-1h-1v1c2 1 0 3 0 5l-1 2-4 17v3l-4 9v3l-2 5-1 2-1 2-1-2v-1l4-10v-4c-1-1-3 0-4 1-2 1-4 1-6-1h3-1l-3-3-1 1h-1v-1c0-1 1-2 2-1l9-1c3 1 3 0 4-3l1-2-1-2-8 1c-2 0-5 1-7-1l-1 1-1 8 1 4s1 0 0 0l1-1 1 2h2l1 1h-1v2c2 3 2 6 3 10 1 1 1 3 3 3h1l1 4v6l1 1 1 4v2h4l10 1h1l1-1h-1l-3-1c-4 0-7 0-10-2v-1h1l2 2h10l2-1-1-3v-1l-8-2 1-1 4 2c2 1 4-1 6-2v-1l-2-3v-1l-1 1v1c0 3-1 3-3 2-4-1-7-3-9-5v-2l1 1c1 2 3 3 6 4h4v-1l-2-1h-2l-2-1h2c3 1 6 0 8-1l1-2v-2l2-3-1-1-3 1h-3c1-2 2-1 3-2 3 0 5-1 7-3 1-1 3-2 3-4l-1-1 3-3 3-6 5-8 2-2c2 0 2-2 1-3m-41 18-1 1h2l-1-1m-4 1h2l-1-1-2-1-1 1 2 1m-1 0-1-1h-3v1l3 1h1v-1m5 7Zm31-37c-3-3-7-4-10-8-4-2-7-5-11-6l-10-3-2-1-1 2-1 1-7 4h-4l-4-2c-3-2-6-1-9-2l-1 1c1 1 1 2 3 2l6 1 8 5 4 8c1 2 2 2 3 1l2-3 7-6 2-1 4-3h2c1 1-1 1-1 1l-4 2-8 7-2 1v1h1l2-1 6-2c2-1 3-1 2-3v-1h1l1 2 3 2 10 2h9l-1-1m-47-14 2 2v-2h-2m11-4c-1-1-1 0-1 1l-1-1h-3l-2 1c0 1-1 2-3 2v1h1v1c1 0 2 2 3 0 0 0 2 0 1-1h1c1 0 3-1 3-3h2l-1-1m-24 30v-1 2-1m-23-20-4-1-1 1v1l-3-3c-2 1-2 2-1 4l2 2h-2v-1h-2l-1 1 2 2v1l-1-1-1-1-1-1-1 1-1 2-1 4-6 3c-3 1-6 2-7 4l-1 2h1l2 1 3 1-2-3-1-2h2l7 4-1 1-1-1-2 1 1 1h5l9 4 9 4c2 2 5 1 5-2 2-3 2-7 0-11l-1-3c1-1 0-2-1-3l-2-5-1-3-2-4m1-5-1-2h-4c-1 1-3 2-3 4l5 1c3 1 3 0 3-2v-1m-43 22v1-1m-25 18h-1v1l2 2v-2l-1-1m1-1 2 1-2-2v1m-3 3h-1c0 2-2 3-1 5h3v-1l-1-1v-1h1c2 1 2 1 2-1l-3-1m-4 7-2 2-3 7-2 8-2 8v1l1-1 3-5 6-14v-2h1l1-1 1-2-1-2-1-1c-2 0-2 0-2 2m0-25v-1 1Zm-4 2 1 1 3 2c2 1 2 1 4-1l3-3c1-3 3-4 5-6v-1h-1l-5 2-3 2-1 1h3l1 1h-1l-8 2h-1m4 4v1h1l-1-1m-3 2 2 1h1l-3-3-1 1 1 1m-2 3 2 2 1-2-2-2-1 2m0 5 1-1-1-2-2 2 2 1m-2 4 1-2-1-2-2 3 2 1m-10 57v-5c-1-1-1 1-2 2-1 2 0 3 1 4h1v-1m6-46 1-3 2-4c1-1 0-3-1-3l-1 1v2c-2 1-3 4-4 6l-5 11-6 14-2 8c-2 4-2 8-5 11v2l4 2 6 4 3 1 1 1v-2l-3-4v-3l4-5v-1l1-15c1-8 2-16 5-23m93 143h-1 1m114-115v-5l-2-16-2-3-3-8-3-6-1-2-4-7-6-8-7-9-3-3-16-13c-2-1-4-3-7-3l-1-1-9-5-8-3-12-2-9-2h-21l-10 1h-3a1032 1032 0 0 1-35 10l-4 4h1l2-1 3-1-2 2c-2 1-4 1-5 4h-1l-2 1-4 5c0 1 0 0 0 0l7-5 7-5 10-4 8-3c3-2 6-3 10-3l11-2 15-1 13 1 15 2 7 2 11 4c4 2 7 3 10 6l15 11 3 4 6 7 6 8 4 5 3 4c2 2 4 4 4 7l3 8 2 13 1 5 1 12-1 1v3l1 3-2 8c0 6-2 12-4 17l-5 11-4 9-4 5-1 3-4 5-7 8-3 3-2 2-5 6-9 6-8 6-6 3-4 2h-3l-16 4-13 1h-14l-7-1-5-2-11-3-10-5-6-4-7-5-10-7-11-9c-3-3-6-5-7-9l-3-4-5-7-5-13-2-5c-1-4-3-7-3-12v-2c-2-3-1-7-1-11l1-9 1-13 1-4 1-10 4-11 3-3 1 1 1-2v-1l-1-1 4-6v-2l-2 1-2 2-5 10-1 4-4 10-3 12-1 11v21l1 8a85 85 0 0 0 13 30c3 4 6 10 11 14l2 2 10 10 18 13 18 8 12 3h2l6 3 16 1h8l7-1 7-1 12-5 6-2 11-7 6-4 6-6 4-4 10-13 4-5 4-5 5-10 7-14 3-9 1-8 1-5v-15m2-12h-1v1l1-1m3 2v-1h-1v1h1m13 27v7l4 6 6 17c3 5 6 9 11 12v1c0 1 0 1 0 0l-2-1h-1l1 1 3 2c2 0 3 0 3-2l1-3-1-2-4-1-1 1v1l3 1v1h-1l-2-1c-3-2-5-6-6-9l-2-5c-3-5-4-11-5-16v-5c1-1 1-2-1-3l-2-1v-1l-4-9-2-5-4-9-5-10-8-12-2-3h-1v1c0 3 2 4 3 6l4 9c3 3 5 7 6 11l9 21m-4 15h1l4-3v-1h-1l-4 4m-4 12c-2 5-3 10-2 15s1 9 4 13l1 4 3 1 12 8 8 2 8-1 8-2 5-4c2 0 3-1 4-3l5-8 2-5 1-4v-11l-3-11-3-3-5-4-10-5c-3-1-6-2-9-1h-7c-5 1-6 2-5 6l4 12 4 9c1 2 2 2 3 1h6l1 2v2c0 5-2 7-6 6l-4-2-1-3c1-1 0-2-1-2l-3-4-3-5-5-13-1-3h-2l-4 3-5 10m-4 20v-6c-1-5 1-9 2-14 0-3 2-6 4-9v-1l-1 1-4 6c-2 5-2 11-3 16l1 6 1 1m67-10-3-13c0-3-2-5-3-7l-8-7-4-2h-1l1 1 2 2c6 3 9 8 11 13 3 7 4 14 3 21-1 5-3 9-6 13l-3 3-9 7c-4 2-9 4-13 3h-9l-6-3-5-2-7-7c-3-2-4-5-5-7-1-1 0-3-2-2v2l1 1 5 9 5 4c4 4 9 5 14 7h12l10-4c4-1 6-4 9-6l7-8c4-6 4-12 4-18m-54 15-2-4v1l2 3m-3 1h1v-1l-2-2v-1l-1 1 2 3m38-24-1-1 1 1m-7 5v1-1m4-3h1-1m2 3v1-1l-1-2c-1 1 0 2 1 2m2-3v-1l-1-1 1 2m-3-5h-1l1 1v-1m1 2h-1 1m-1 4v-1 1m-5 0c0-2-1-2-2-3h-1v1l3 2m1 0h-1 1m-4 0 1 1-1-1m4-3-2-1 2 1m1 0h-1 1m1 7c0-1 0-3-2-3l1 3h1m-3-4h1-1m-2-5h1-2 1m-189 1 2 2v-1l-2-1m-19-89 1-1-2-2v1l1 2m2-1h1l-2-2 1 2m3 1 1-1-1-1-1-1v1l1 2m-5-24-3 1-3 5v1l1-1c2-2 3-5 5-5h1l-1-1m-8 26h-2v2l4 4c4 3 9 4 14 6l5 1 3-1 2-1h-6l-13-4c-3-2-6-3-7-7m10 0-1 1 1 1 3 1 4-1h2l8-2c3 0 5-1 7-3 1 0 2 0 1-1h-2l-2 2c-3 1-4 1-6-2l-1-2 1 2 1 1c1 1 1 2-1 2-5 2-10 3-15 1m12-2h1v-1l-2-3v-1l-1 1 2 4m12 8-1-1v1l1 1h1l-1-1m-6-10v-1l-1-1 1 2m-9 2h1l-2-4-1-1v1l2 4m52-19h1v-5l-1-1-1 1v5h1m-54 20 1-1-3-4h-1c1 2 1 4 3 5m17 2v1l2 3h1l-3-4m-14 64v2l2 1 1-1c0-2-3-5-5-5h-1l1 1 1 1 1 1m10 12h1v-1l-3-3v1l3 3m1-3-2-3v1l1 2h1m0-53 1 1 1-1h1l-1-1h-4c-1 1 1 1 2 1m0 30h-2l1 1 1-1m-2 4 1 1 1-1-1-1-1 1m-3 21v1a211 211 0 0 0 5 3h-1l-4-4m-4 24h-1v1l3 2h1v-1l-3-2m-4-5h-1v1l1 1c2 1 5 1 6 3l2 1v-1c-2-3-5-4-8-5m14-56h-3v1l3 1 1-1-1-1m-3 58-8-4-3-1h-1v1h2l11 6 1 1v-1l-2-2m4-63-5-1-1 1 1 1h6l-1-1m-9-28-2-2 1 3 2 1-1-2m-7 0h-1 1l2 2c0-2-1-2-2-2m3 3-1-1 1 1m-11 22v1l6 2h1v-1l-6-2h-1m28-28c0 1 0 0 0 0v-1h-1l1 1m-25 17 4 1h1l-1-1-4-1h-1l1 1m-1 9h1c1 1 2 2 3 1l-4-2-1 1h1m10-25h1-1m-9 2Zm15-3v1l1 1v-1l-1-1m-10 5-1-1-1-1-1 1 2 1h1m14-1-3-2 2 2 1 1v-1m-1-6-1 1 1 1 2 2-1-2-1-2m-2 6c-1 0-1-2-3-2l3 3h1l-1-1m-15 0h1l-2-1 1 2m10 1h1l-1-1-4-3a153 153 0 0 0 4 4m1-5h1v1-1h-1m74-15Zm-10-1h-1 1m1 1h-1 1m-1 0v-1 1m2-1Zm7 0h-1 1m-2 92-1-2-4-8-2-3-1-1v1l3 5 4 9s1 1 1-1m1-93h-1 1m-68 37h5l1-1h-7l1 1m76-49v-1 1m-19 86h-1 1m-1 4h1l-1-1v1m15-81h1-1Zm5-10h-1 1m0 0Zm-2 2v1h1-1v-1m3-1h-1 1Zm-8 13 1 1-1-1m-4 0 1 1h1l-2-1s0-1 0 0m0 2Zm-73 99 3 1h1l1-1a97 97 0 0 1 6 4c-1 1 0 2 1 3l-1 1h-1c-2-3-7-5-11-6v-2h1m44-77-1-1v1l-1 2v20l1-1 1-12v-9m11-6Zm-72 54 1 1 5 1h1-1l-4-3h-1l-1 1m15 0v1l4 2 1-1-5-2m10-32h7v-1l-1-1h-7l-1 1 2 1m-2 2 4 1h4l-1-1h-2l-4-1-1 1m0 17h5c0-2-1-1-2-1h-3l-1 1h1m-1 33 5 4h1l-1-1-4-4h-1v1m4 6-2-2s-1 0 0 0l2 3v-1m67-99v1-1m5 0h1-1m-8 3v-1 1m0-1c-1 0-1 0 0 0m0 0Zm0 1h1-1" fill="#050503"/>
    </g>
  </g>
</svg>
