<svg xmlns="http://www.w3.org/2000/svg" viewBox="0 0 437.6 466.2">
  <defs>
    <clipPath id="a">
      <path fill="none" d="M0 0h438v466H0z"/>
    </clipPath>
    <clipPath id="b">
      <path fill="none" d="M0 0h438v466H0z"/>
    </clipPath>
  </defs>
  <g clip-path="url(#a)">
    <g clip-path="url(#b)">
      <path d="M204 133Zm11 162h-1 1M66 66Zm0 11Zm52 386c1-1 3-2 1-4-1 0 0-2 1-1 1 2 1 0 1-1l2-2c2-1 1-3 0-5l-3-4-1-1 2-3h4c1 2 2 1 2 0l1-2 1-13-1-3c0-3-2-4-3-6l-6-16-1-7v-2l1 1 2 2 4 12c1 2 1 5 3 6 2 2 2 4 2 6v4c2 0 3 2 3 4l-1 5-1 3v10l1 1 1-1 5-16 10-49 9-24c4-7 7-14 14-19v-1l5-4c4-3 10-4 14-6 9-4 19-6 28-9l11-5c3-2 3-2 1-5l-1-1-3-3-2-4c-1-4-3-7-8-5h-1l-2-1v1h1c-2 1-3 2-5 0l-2 1c1 3-1 2-2 2-4 0-9 0-14-2-4-1-8-3-11-7-1-3-4-6-4-10l-1-4-7-8-21-25c-6-9-13-19-13-32l-1-1-1 1c0 2-2 3-4 4-5 1-10 3-15-1h-4c-2 1 0 2 0 4 2 4 0 6-5 5l-7-3-3-2 3 1c1 1 1 0 1-1 2 1 3 3 5 3h4v-4c-1-3-3-4-6-6-2-1-3-4-1-6 1-3 3-4 6-3l2 1c3 0 5 2 7 3l11 5c4 1 5 0 6-4l1-5c0-2 0-4-3-5-1 0-2-1 0-2s1-2 0-3l-3-1-4-1-4-5h5l1 1-1-1-5-5c-4-4-7-9-6-16 1-3 0-6-3-8s-5-5-5-10l-1-2c0-1 0-2-2-2v2l-1 3c0 3-1 7-3 10v4c1 2-1 4-3 5l-19 8-7 1c-6-2-12-3-19-3H28l-16 1h-1l-2-1 1-2h2c7 0 13-3 18-6l15-13c7-5 11-12 13-20l2-3c0-1 0-2 1-1l1 1c-1 3 0 5 1 7v1l1-1-1-4 1-1v1l1 2v-4c-1-3 2-3 2-5h2l1-1c-1-2 1-2 2-3h1l-1-1-2 1-2 1h-2c-1-1 0-1 1-2l1-1 8-5c1 0 2-1 1-2-2-1 0-2 0-2l-3-3c-6-6-8-13-10-21-2-9-2-19-3-29L60 5l1-4 1-1c0 2 3 2 2 4 0 1 1 4 3 3 1 0 2 1 1 2 2 2 4 5 3 8l1 2 5 7c7 10 16 19 25 27 7 6 11 12 10 22l-1 18v1h1l10-9 22-30 4-5c1 0 1-2 2-1s0 2-1 3l-1 1-12 16-2 4 12-13c2-2 5-4 6-8l4-4c2 2 2-1 3-2h2l15-1c1-1 3-2 3 1h2c1 0 4 1 4-2l1-1 3 1c1 2 2 1 2 0l5-1v1c1 2-1 3-2 3l-16 8-5 3s-1 0 0 0h1c-1 1-2 2-4 1l-5 2-1 2h1l24-3 7 1h4-1l-1 1h1c11 2 22 5 32 9l7 4h1l-1 1-3-1-18-2a367 367 0 0 0-45 2h2c8-1 15-2 22-1l2 1c-1 2 1 2 1 2h2l1 1h-1l-8 1h-1 10c1 0 2 0 2 2h-15l-8 1-2 1h14c1 0-2 1 0 2h3l3 1h-2c-7-1-14-3-21-2l-6-1v-2l1-1 3-2-4-1h-1v-1c1-1 0-1-1-1-3-1-5 1-8 1l-17 5-1 1h2c2 0 4-2 6 0 1 2 3 2 5 2h6l9 1 1 1h-7l1 1 14 2c11 2 22 4 32 10 3-1 4 1 5 3l10 6c4 2 9 5 12 10v1h-1l-8-7a78 78 0 0 0-14-8l1 1 1 1h-2l-1-1h-1v1l2 4v6l-2 1v-7l-1 5c0 1 0 2-2 1 2-1 2-3 2-5l-5-7-1-1v1l3 4c1 2 2 5 1 8l-1-4-1-2v2l-1 1v-1c-1-4-3-8-6-10v-1c1-2-1-3-2-3l-25-7-1 1 1 1c2 1 2 3 2 5l-1 3-4-2-1-2v-1l-1 1 1 2c-1 3 0 3 3 4 9 2 19 5 28 9h3c0 2 1 3 2 3 2 0 2 1 3 2v1h-1l-9-5c-1 0-3-2-4 0l-1-1-2-1a132 132 0 0 0-28-8l1 1 15 5 13 5c11 6 22 12 35 15 5 2 8 1 9-5l1-1v1c1 4-1 7-6 7-4 1-8 0-12-1l-3-1c-1-2-2-3-4-3l-7-4a289 289 0 0 0-60-20l-17 1-3 2c-1 1 1 2 2 3l5 4c1 2 1 4-3 5h-5l1 1 8 3h6l16-5 1 1-1 1 1-1c1 1 3 0 2 2 1 0 3-1 2-2-2-2-3-4-6-5l-18-5-3-1 2-1c5-1 9-2 14 0l5 2c4 1 6 3 7 8v1c2 3 2 3-1 4l-19 5h-8c-7-2-14-3-19-8h-1c-1 0 0 0 0 0 0 2 2 3 3 4 5 3 11 4 16 6l3 1 1 1h-2l-13-5h-2l1 1a32 32 0 0 0 17 5v1h-3c-3 1-5-1-8-1 1 2 3 1 5 2l1 1h-1l-20 5h-1v-1h5l1-2h-1c-4 1-7 1-10-1l-2 1c-1 2 1 6 4 6 5 0 10-1 14-3l4-1 16-2 12-1h12c5 1 11 1 16 3l14 3 5 2c1 2 2 3 4 3l11 5 6 2 9 6 17 9 19 12 10 5 13 4c3 0 4 0 4-3l-1-1c-2 2-4 0-5-2l-2-2v-1 1l-1 3c-1 1-1-1-2-1l-1-1c-7-8-12-18-19-27-1-1 0-2 1-2l-1-1-13-7c-4-3-7-3-11-2-2 0-2 0-1 2l5 7c1 1 2 1 2 3l-3-2-1-1h-1c-2-5-5-10-11-11l-4-2-8-2 5 3h1-2c-3-1-6-1-9-4h-2l-1-1h-3l-2-1-2-1v1h-2c-11-4-21-8-31-10-1-1-3-1-3-3h4c12 3 25 6 37 11l23 8c3 1 7 2 10 1l10-1 8-2c1 0 2-1 1-2l-2-7c-1-1-1-2 1-2v-3h1l2 1 2 1h-2l-1 1c3 2 3 5 3 8 0 2-1 3-3 3l-8 3-2 1 2 1c14 5 26 13 37 23l5 5 2 1v-2l-6-15-3-2-13-4c-3-1-7-1-8-5v-3l1-2-1-3v-1c1-1 1 0 1 1l1 2c4 1 7 4 11 4l2 1-2-1c-1-2-4-3-6-4l-1-1 2 1c2 0 4 2 5 3h2l-1-2-14-10c0-1-2-1-1-2l2 1h1c0 1 1 2 2 1s-1-1-2-2h-1l-1-2h2l6 4 16 13 8 5-4-8h-2c-3-1-7-3-9-7l-3-5c-4-7-7-14-12-20v-1h1l1 2h2l-1-1-2-2-16-11v-1l1 1 12 7 3 1 1 1v-1c1-1 2 1 4 1l1 1v-1l-1-1-9-11-2-2h-4l-25-8c-2 0-3 0-5-2l5 1 23 6c6 1 10 5 13 9l1 1c4 5 9 11 16 15l14 7 4 2 4 3 5 2c3 0 4 2 4 5 1 3 1 3-2 4l-6 2c-2 1-3 3-1 5l2 1 12-13c1-1 0-2-1-3-3-2-5-4-6-7l-1-2v-2c0-3-2-5 0-7v-1l-5-3c-11-4-21-10-30-17-4-4-7-7-9-12l-3-8-1-2c1-1 1 1 2 2 2 4 4 9 8 12l1 1-1-1v-2c-3-2-3-6-4-9v-2h2v3c0 1 0 2 1 1v-1c0-3 1-4 4-4l2 1c4 1 8 3 10 8 0 4 2 7 5 10 0 1 0 2 1 1l2-2-1-2a330 330 0 0 0-13-20c-4 0-7-2-10-1l-2-1 2-1 9 1c2 0 3 1 4 3l3 4v-2l-2-6v-1h1l8 15v1l-1-1-4-6v1a83 83 0 0 0 21 30l1 1h-2l-2-2-7-7v-1h-1l1 1 1 2c3 7 9 12 14 18 3 3 5 7 5 12l1 3a562 562 0 0 1 0 10c-2-2-2-2-3 0l-4 5-5 5c-3 3-6 7-4 12 1 3 0 4-2 5l-5 4c-1 1-2 1-1 2l1 6h1l2-3c2-4 6-6 9-8h2l-1 1c-4 2-7 5-9 9-2 3-4 5-7 6-1 0-3 1-2 2 1 4-1 8 1 12v2c-4 13-3 25 0 37l3 12v1-1c-4-8-6-16-6-25 0-7-1-14 1-21v-3c-3 3-6 6-6 10-2 8-3 16 0 24 4 9 8 18 14 27 7 10 14 20 24 28s17 18 27 25l19 17c6 6 13 12 18 20l11 16c6 10 10 20 14 31l6 24c1 3 2 5 1 7-1 3 1 6 1 9 2 7 3 15 6 22a888 888 0 0 1 5 13h-1l-2-2c-5-10-9-21-10-33-2-11-4-23-8-34l-2-5a130 130 0 0 0-22-42 65 65 0 0 0-3-3v1l3 9a179 179 0 0 1 6 63l-3 18v3c2 2 1 4 0 5l-3 9-3 10-2 1-1-2v-4a186 186 0 0 0 7-75c0-1-2-3 1-3v-2a177 177 0 0 0-6-21l-1 1 1 5a257 257 0 0 1-8 98c-1 2-2 3-4 3h-25c-3 0-3 0-2-2l9-22c3-8 7-16 9-25l2-6 2-7 1-7c-1-2 1-3 1-5 1-7 3-12 1-19v-1c2-3 1-3-2-5l-1-1 2-1h2l-1-2-5-2-1 1-1 8-1 22-6 33c-1 3-1 6-3 7-2 2-2 5-3 8l-5 12-1 2c-2-1-1-2 0-3v-1l2-7c1-1 2-2 1-4 1-1 3-3 1-4v-6l3-10c0-2 2-3 0-5l1-2 2-4 2-9 3-21c2-9 2-17 2-26-1-10-2-20-5-29-1-4-1-8-5-12l-38-37c-7-9-14-17-19-27-4-7-8-14-9-22l-1-2c-4-1-7-4-10-6l-3 1c0 2 0 4-2 5l1-4v-1l-1 1c-2 2-2 5-5 6v1c2 0 1 1 1 2-1 1-1 2-3 2-2-1 0-2 0-3l-2-4-1-4c-1-1-2-1-1-2h5l-3-3c-1-1-3-2-3-4s-1-2-3-3h-4l5 2 1 1h-3c-5-2-10-2-15-2h-4l4-1h2v-1c-1-1-7 0-8 1-2 1-1 1-1-1h-2l-3-3c-5-3-6-7-4-13l2-3 4-4c1-2 0-3-1-3l-9-2-1 1h1l6 2h-4l-4-1h-1v1c3 0 3 3 6 3l1 1-1 1c-5-2-10-4-15-4h-2l-5 1h-5c-1 0-2 0-1 2s-1 2-3 2c-4-2-8-2-13-3 1 2 4 1 3 3h-7c-1 0-3-1-1-3l-3-1v-2l2-1-3-1h-2l1-2-1-2c-3 1-5-1-7-2-1 0-2 0-1-1h1l3 1c3 1 6 1 10-1l-2-2-2-1c2 1 2 1-1 2 1 1 0 2-1 1l-9-3-2-2c-1-3 2-9 5-10l7-2-1-1 1 1 2-2h9c2-1 2-2 1-3 0-3-2-5-4-7 0-2-1-2-2 0-1 3-4 4-7 5l-8-2-1-1h1c3 2 6 2 8 2 3-1 5-2 6-4v-1h-1l-2 2c-2 1-5 2-8 1l-6-4c-1 2-2 1-2 1-2-2-3-4-5-3l-14 1-1 2c2 2 2 5 1 8 0 3-5 7-8 6l-1-1h1l2-1c4-2 6-7 4-11l-1-1v1c1 8-4 12-11 10-1 0-3 0-2-2l2 1c6 2 11-2 10-7v-1h-1l-1 4c-3 1-5 3-8 2s-5 0-8 1h-1l1 1 5 2h1-7l1 9 3 1 12 3 1 1c0 2 2 2 3 3l10 9c2 1 4 4 4 6v11l-1 7-2 9h-1l-1-7 2-8c0-2 0-2-3-3-2-1-2 1-4 2l-1 1c-2-1-3-1-3 2l1 12 2 11 7 12 9 13c1 1 2 3 3 2s-1-2-1-3h-1c-1-2 0-2 1-2 2-1 5 0 6 1 2 1 3 0 4-1 0-3 2-3 5-3l16 2c2 1 4 2 5 1l5-1c2-2 3 1 4 1 0 1 0 3-2 3l-3 2-9 11-1 1h-1v-1l2-4-6 2-2 1 1 2 2 2v1c-3 1-6 3-10 1-2-2-4-3-5-6l-5-6h-2l1 1 1 2 15 17h2l1 11 2 3c3 3 6 6 11 6h15l18-7 5-3 9-5c7-4 15-9 21-15h1v2l-6 5-3 4-5 9c-5 6-8 13-10 20-1 1-2 3-1 4 2 0 2-2 3-3 1-3 2-4 4-5 1-1 2-2 3-1l1 3-2 4c-1 1-1 4-4 3l-1 1-6 3-5 2-1 1 1 2 11 5a92 92 0 0 1 35 26c5 7 12 13 16 21 6 9 12 18 16 27l11 26 8 23c2 5 2 11 3 16v3l-1 1-2-1v-1l-3-14-7-25a297 297 0 0 0-34-65c-9-12-20-22-33-30-1-2-3-2-5-1l-1 1h1c2-2 2 3 4 1v1c0 2 0 2 2 3l8 9c7 6 14 14 19 22a408 408 0 0 1 29 57l7 20c2 7 4 13 4 20 0 3 1 3-3 3h-69c-1 0-2 0-1-1 3-3 3-8 5-11l5-16 3-23-2-26c-2-11-6-22-10-33l-2-2c-1-1-2-1-2-3 1-2-1-3-4-3h-1l1-1 1-1v-1l-5 1c-1 1 1 2 1 3l10 26c5 17 7 34 4 52-3 14-9 26-16 38l-2 1h-1v-2l9-16 5-14c4-12 4-25 3-38l-6-25c-4-12-10-23-16-34-4-6-9-9-15-12h-5l-11 3-11 4-10 8c-5 3-8 7-10 11-2 5-5 9-6 14l-5 16c-5 15-7 30-11 45v1l-2 7-2 7c-3 8-5 16-10 23-1 2-2 2-4 2h-3c-1-1 1-2 1-3l1-1 1-1h-1l-3 3c-1 1-2 3-3 2s1-2 2-3m11-252c-8-1-14-5-21-9h-3c-2 0-4 0-4 2-1 2-1 4 1 5l1 2h1v-1c0-2-1-3 1-4 1-1 2 0 4 1 5 1 8 5 14 6l6-1 1-1h-1m60-136Zm-11 3a112 112 0 0 1 16-1l-1-1h-6l-9 1-1 1h1m35 32-1-2 1 2m-1-2-1-2 1 2m-2-4v-1l-1 1h1m-6-3v-1l-1 1h1m-44-15h-1l1 1h1l-1-1m1 10v1h1l-1-2v1m0-6c1 0 1 0 0 0m7 6-1-2-1-1v3l-1-1-3-3-1 1 2 3 3 2h2v-2m-8 4 6 1h2l-1-1-6-1h-1l-1 1h1m-2-3-1-1v1h1m-2 0v-1l-1 1h1m-6-2 1 2 1-1-2-1m-6 0 2 2v-1l-1-1h-1m-1 2v-1 1m10-33-3 2 3-2m3-13Zm1 1-1 1h-2 2l1-1m74 21v-1h-1l1 1m-63-2h1c2-1 4 0 5-2l-6 1v1m-11 4v-1h-1v1h1m-17 8v-1l-1 1h1Zm-4 10 1-1h-1l-1 1h1m-2-12 12-4c1-1 3-1 3-3h3l5-1 18-6h3l-2 1h4v1l-3 1-3 2 4-1h49l-1-1a135 135 0 0 0-47-8l-13 2c-2 0-3 1-4-1l-3 1-12 8v1l-13 8m40-12 2-1-2 1m-24 37-1 1h1v-1m2 1 1 1-1-1m1 1h1-1m6 11h-1 1m-58 11 1-1v-4c-1-3-1-7 1-10l-3 4c-3 4-1 7 0 10l1 1m-3 11 1-3c0-1 0-1 0 0h1v-4c-1-1-1-3-2-2-2 0-1 1-1 2v3l1 4m-1 5h1l-1-2-1 1 1 1m-28 26h2l-1-1h-2l1 1m1-4-1 1h1v-1m-32-4c-3-1-7-1-9 2 3 0 6 0 9-2h1l-1-1m14-10v-1l3-9c-2 2-3 6-4 9l1 1m4-11-1 1 1-1m0-2Zm10 8-1 1 1 2v-3m-5-3v-1 1h1l1 1-1-1-1-4v-1l1 1 2 5 1 1v-1l-4-13v-1l-1 1-5 15-2 6c-2 5-6 8-10 11l-2 1 2 1h4l1 1h-1a175 175 0 0 0-20 1l-2 1h16c7-1 14 0 22 1h1l-1-1c-1-1-1-1 1-2h1l-2-3h-2l-1-1 1-1h1-1v-1l3 1v1c1 2 3-1 3 1 3 0 4 2 5 4s3 2 4 2l18-9c2 0 1-1 2-2l-1-15-1-10v-1l1 1v1l1 3v-10l-2-2-2-2v25c0 3-3 5-5 7h-1c-3-1-5-4-6-7l-1-4c-2 0-2 3-3 4l1 4v6h-3c-3 0-5-2-6-4-4-3-6-7-7-11m2 1v1-1m1 18-1-1 1 1m31-61v1l1 1 1-1v-1l-1-4-1 4m-2 16v-2l-1 1v1l1 2v-2m-2 23v-10l-1 1v6c1 4-1 7-3 11 0 1-1 2-2 1-3 0-2 1-2 2l3 2 1-2 2-2c0-2 3-1 2-4v-5m-11 1 1 6h2v-8c-2 0-3-1-3 2m1-24v1m2 21 1-6v-1l-1 1v6m-11 6-1 3v1c1 1 1 0 1-1v-3m1-26h1-1Zm-1 9-3-6h-1v1l-1 11 1 11 1 2c2 0 1-1 1-2l7-13 1-4c2-2 2-4 2-6v-1 1l-2 6-1 1c-3 2-4 2-5-1m2-7Zm0-5v1-1m2-3c-1 1-2 2 0 2l1 3 1 1 1-1 1-4c0-2-1-2-2-2l-2 1M65 82c1 9 5 17 10 24l2 2c5 4 11 4 16 1v-1c-4-1-6-4-7-7-4-5-6-11-9-17l-1-1v-1l-1 1v10c0 1 2 2 0 3-1 1-1-1-2-2-4-4-6-9-8-14v-2 4m9-19v-1h-1l1 1m-1 17v1l1-1v-1l-1 1m-3 0 1 1 1-2-1-3-1-1-1 1 1 4m-1 5h1-1m2-12-1-1 1 1m-1-3h1-1l-1-1 1 1m1-8v-3 3m1 0v4-4m0 4 1 1v-1h-1m-5 15v1-1Zm-2-3c0 1 0 2 1 1v-2c2 2 1 5 3 7 0-4 0-9-4-13v-1l-2 1 2 7m3-8-1-1 1 1m-5-3 2 2v1h1l-1-1v-2h-1 1v1h1l1 1v-1l-1-1v-1l2 1 1 1v1-1l-1-1-3-3-2-3 2 3c-3 0-3 1-2 3m1-59c0-1-1-3-2-2v3l2 9v5l1 1v-1L64 9l2 8v1-1c0-3 1-6-2-9m-1 15v-4 4m0 0 1 1v-1h-1m0-4v-1l-1-1v1l1 1m2 12v-1 1Zm2-9-1 1 1 1v-2m0 15Zm1-24-1 1 1 3v-4m1 32v1-1c-1 0 0 0 0 0m15-7-2-2 1 2v3l1-3m0 3 2 13 1 1c3 6 2 12 2 18v3c-2 0-3-1-3-2l-1-4-1-7v-4h1l-6-11-1-1v1l5 10v1-1c-3-3-4-7-6-11l-6-16-1-1v19l-1-3c-3-4-3-9-5-14l-1-7-1-1v26c0 6 4 11 7 16h2v-1c0-3-1-5-3-7-1 0-2-1-1-2l-2-1v-6l-1-1 1 1 5 2c2 0 2 1 2 3l1 3c4 9 9 18 16 26l4 8 1 3 1 1V85l-1-1c1-10-2-19-6-28l-3-13-1-2M68 57v1l1-1h-1m23 3v1-1c1 0 0 0 0 0m15 0c-6-8-13-14-20-21h-1c1 5 2 10 5 14l8 15 2 6 1 13 1 1v-1c3-5 4-12 6-18 2-4 1-6-2-9m-4 33 1-1c2-3 3-6 3-10v-1 1l-4 10v1m5-13v-1 1m2-7-1 2 1-2m1-3h-1v3l1-3m0 7-1 1v1l-1 3h1l1-4v-1m2 36 1 1-1-1m3 2 4 2-4-2m11-28-2 1 2-1m0 26 2 1v-1c-1-3-7-7-10-7h-1l1 1 4 3 4 3m-7 4c3 2 5 3 8 3-2-2-5-2-8-3m14 5h-1 1m-18-7-2-1 2 1m0 7h1-1m3 10 2 1-2-1m1-1v-1 1m-1 1-2-1c0 2 1 1 2 1m-3-1c1 0 0 0 0 0m-4-4 5 3v-1l-4-3h-1v1m-3-6c1 3 2 4 5 4l4 2c3 1 6 3 10 3l-4-2c-4-2-9-4-13-8h-2v1m-4-10 6-6 1-2v-2c-1-1-1 1-1 1l-1 1-1-1 1-6-1-1h-1c-5 7-10 15-11 24v3h1v-1c2-4 4-8 7-10m4 38-1-1c0-1 0-2-1-1v1l1 2h1v-1m90-19v1-1m0 1h2-2m2 1h2-2m7 0Zm9 3v1h1l-1-1m50 18h-1v1h1v-1m16-11h-1 1m2 2v-1 1l1 1v-1h-1m-22-56h1-1m53 43Zm-5-5 1-1c1 0 0 0 0 0l-2 1h1m-1-25-1-1v1h1m-19-10h-1 1m-12-20h-1 1m2-4h-1 1m4 1v1-1Zm5 18-3-2h-1c0-2 1 0 2-1l-4-2h-1l1-1h4l-3-1-4-1-2 1 6 6 1 1h4m2 6-1-1 1 1c2 3 6 4 9 5h1-1c-3-2-5-4-9-5m19 7-8-13h-1l-1 1v2l10 10m1 3h1-1Zm7 8h-1 1m-7 33v-1 1s-1 0 0 0m-14-6-1-1 1 1m-1-1v-2 2m-2-4 1 2-1-2m-1-1 1 1-1-1m2-1-1-1 1 1m1 4h-1 1m-1-3v-1 1m-1 5-1-1 1 1m-2-4c-1 0 0 0 0 0m-12-19h-1l4 5 3 3h1v-1l-7-7m10 6-1-1-1-1v-1h-1l-1-1-1-1 1 1v1l1 1 1 1h1v1a638 638 0 0 0 1 0m1 9 1 2-1-2m2 2v1-1m1-14h-1 1l9 4c-3-3-6-3-9-4m7 27v1-2h-1l1 1m0 1 1 2-1-2m1-22-1 1v1h1l1-2h-1m-2 12h-1 1m0 8v-1 1m0-20-1-1v2l1-1m-1 10v1-1m-1 0c0-1 0 0 0 0m5-12h1-1m2 3-1 1v1l-1 1 1-1 1-1v-1m0 11h1-1m3-10-1 1 1-1m0 18Zm-1-11 1-1h-1v1m0-3h-1v1l1-1m-1 7s1 0 0 0m0 8v1-1m0 0-2-6h-1l-1 1c1 2 1 4 4 5m-4 5v-1l-4-5 3 6h1m-3 24v1l2 1v-2c-1-5-3-10-7-14l5 14m-4 20 1-2h-1v2c-1 0-1 0 0 0m68 127s0-1 0 0c-1 0 0 0 0 0m6 8-1-1h-1l1 1 1 1v-1m-1 25c0 1 3 1 0 3l2 2 1 1h-3v1l6 2v-1c-2-1-1-3-2-4s0-1 1-1l-3-3v-1l1 1h2l-1-1-2-1-3-2 1 4m-1-9c1 1-1 3 1 3l1 1h1v1-1l-1-1h-1l2-2-2-1-1-1v1m1-3v1h1l1 1-1-1v-1h-1m-1 0-1-1 1 1m-2-5 2 1 5 5c-1-3-3-4-5-5l-1-2h-1v1Zm0-3 4 3h1l-1-1-3-3h-1v1m-1-5 5 4 1 1v-1h-1l-5-5c0-1 0-1 0 0v1m-2-5 2 1h1-1v-1l-2-1v1m-73-127h1l-1-1v1m0 2h-1 1m-63-2 1 1 1-3h-1l-1 2m2-7-1 2v1l1-2v-1m4-2h-1l-1 4v2h1l1-5v-1m-43-34-2-2-1 1 2 2 1-1m11-5-7-1v1l5 1h3l-1-1m10 6v1h1l-1-1m8 3v1-1Zm-1 2 3 1-3-1m4-1c0 1 0 0 0 0m0 1h2-2m3 0 1 1-1-1m5 4-7-2-2-1 2 1 6 3h1v-1m9 7v1-1m0 1v6l-1 1v-5l-1-1v1l-1 10 1-1c5-3 5-5 2-11m5-1h-2l1 2 4 1-3-3m3 3 1 1-1-1m2 4h-4c1 2 3 1 4 1h1l-1-1m20 11c0-2-1-3-4-3l4 4 2 2 1-1-3-2m3 14h1-1m4 4v-1h-1l-2 2s1 4-1 1l-1 1v1c0 2 0 2 2 3l1-2c2-1 1-3 2-5m-5 11 1-1c1-1-1-1-2-2l-1 1c0 1 0 2 2 2m-4-19h1v-1h-1v1m-11-12h-1v1l1-1m-2 22h1l-1-1h-1l1 1m0-9 1-3c1-1 0-2-1-3l-2-2c-2 1-2 2-2 3l1 3c1 1 1 3 3 2m-19 5h1c2-1 3 1 5 1h8l2-1-2-2h-2c-1 2-3 0-4 0h-4l-3 1-1 1m7-13c-2 4-2 5 1 8l-1-8Zm-8 1c1 1 1 0 1-1 2-1 3-1 3 1s1 2 1 1c2-4 4-6 9-6l2-2-3-1-7 2h-1l1-1c2-2 5-2 9-2 3 0 7 1 10 3l6 4 3 3 1 1v-2c-5-7-12-12-20-12-7-1-13 3-15 10v2m-18-10 2-2-1-1-2 2 1 1m0-7h-3 3m-5 0h2l-1-1h-1v1m-3-1v-1l-1 1h1m-27 11h1-2 1m-3-2c4 0 8 0 12 2h3l1-1h-1c-3-1-4-2-4-5l-2-3c0-2-1-2-3-2l-3 1c-2 0-3 1-3 3l-2 3 2 2m0-16v1-1Zm-1 6 12-2h1l-1-2h-7c-3 0-5 2-5 4m-8-2 3 1-2-2h-2l1 1m-3-3h-1v1h1v-1m1-3h1-1m1 0 1 1v-1h-1m2-3 1 1-1-1m-2 5v1l5 2c-1-2-3-2-5-3m5-3h1-1m0 3c1 1 3 3 4 1l-2-1h-2m4 0h-2 2m6-9-7 2-1 1 1 1 10 4c1 0 3-1 4 1h2c2 0 3 0 3-2 1 1 0 2 2 3 1 1 2-1 3-1 0 1 0 2 2 2l8 2 7 4 3 1h-4l8 2c3 2 6 1 9 2l2-2c2-5-1-11-6-13l-11-4-2-1 2-1c-3-2-6-2-10-3l-1 1 1 1 4 1 1 1h-1l-17-2h-6c-2-2-4-1-6 0m-24-17 1 1-1-1-1-1 1 1m-1-1s0-1 0 0m-27 8 1-1v-2l-1-2v2l-1 2 1 1m-7-1v-1h-1v1h1m-1 24v1h1l-1-1m1 1 1 1-1-1m0 2 2 1-2-1m3-3c-1 0 0 0 0 0m0 0 1 1-1-1m4 1h-1v1l1-1m0 2c-2 0-4-2-6-1l3 2h1l-1 1 1 1h3l-1-3m-5 1 2 1-2-1m2 3-6-3-1-1h3l-4-2h-2v2l1 2 9 8c2 2 2 2 3-1 2-4 2-4-3-5m11-1-2-1h-2v1l2 1h2v-1m-2 3 2 1v-1l-2-1v1m1 2c-2-1-3-2-4 0l-1 2-1 1 2 1 3-1c1-1 3 0 3-2l-2-1m-1 13 2-1v-4l-2-2h-2l-1 3 1 2c0 1 0 2 2 2m32 62c2 1 3 3 5 2 5 0 9-1 13-3h1c1-1 3-2 2-3l-3-1-8-1c-3 0-7 0-10 2l-3 1 3 3m35 38-1 1h1v-1m44-14h-1l-17 10h-1l-3 1v1h1l2-1 2-1c6-2 12-5 17-9v-1m-2 5-1-1-1 1-15 8h-2v2h1l6-3 11-6 1-1m-3 5v-1h-1l-13 7-1 1h1l12-5 2-2m-2 5h-1l-10 4-1 1h1a73 73 0 0 0 11-5m-8 10 2 3h1l3-9-1-1a310 310 0 0 0-6 5l1-1h3l-2 1c-1 1-2 1-1 2m10 23 2-1h-3l1 1m-3-2h1v-1l-1 1m-2-2h-1l1 1v-1m-4 21 2-1 3-1-1-1c-1 0-3 0-4 2v1m-3-6 2 3c2 0 3 0 4-2h-1c-2 0-3 1-4-1h-1m0-2 1-1h-1l-1 1h1m-6-6 2 3c1 1 2 1 3-1l-2-3c-2 1-2 0-1-1l-1-1-2 1c-1 1 0 1 1 2m-3-3 2-2-3 1 1 1m-2-2 2-1v-1h-3l1 2m-2-2h1l1-2h-3l1 2M99 398l-5-3-9-7-13-11c-2-1-3-2-3-4l-4-7c-1-5-4-9-4-14l-2-11-3-5c-1-1-1-1-2 1h-1v-3c1-3-1-5-3-7l-1-1-1 2 3 12c2 6 3 11 3 17l-1 2-3-2v-2l-1-13-3-15 2-4c1-1 2 1 3 2l6 8 1 1v-1l1-10c1-11-1-21-3-32l-3-21c-1-4-1-4 3-5h3l12-2 16 1 25 5 17 5 9 5 9 6c2 2 3 3 1 6l-6 7-12 17c-6 10-9 21-13 31-1 6-3 11-3 17l4 26v2c-1 1-2-1-2-1l-1-2c-3-7-3-16-3-24l-1-2-1 1-4 6-2 2 1 8 2 20c0 3 2 4 4 3h3c1 0 3-1 3 1v4c-2 1-8 2-9 0-2-3-4-4-7-5l-1-1c1-2 0-2-1-3m16 8c0-1 0 0 0 0m-1 0h1-1m-16-24h-1 1m-4 1h1l1-1h-1l-1 1m-1 5h1v-1l-1 1m-10-6 1-1 2-7-1-1v1l-2 7v1m-1-15 2-1h-1l-1 1m-1 3h-1 1m-4 0h-1 1m-5-5h6l7-1h1-14l-1 1h1m-1-2h12l2-1H71l-1 1h1m7-3h-1 4-3m2-4h-7 7m-7 3h5l-5-1h-4c1 2 3 1 4 1m-6-8 1-1h-2l1 1m2-7 18 2h2c1 1-1 1-1 2h-1l1 1c1 0 2 0 2 2-1 1-1 3-3 3H73l-5 1h18l2 1-1 2h-3l-2 1h2c1 0 2 0 1 1 0 1 3 1 4-1v-2l3-12c1-3 1-4-2-4H69c-1 0-3 0-3 2s2 1 3 1m4 9h1l-2-1-2 1h-2 5m3-3 2-1v-1h-5v1h1l2 1m3 3h1-1Zm4-3 2-1-1-1-2 1 1 1m64-62-2-2-17-10c-12-4-24-7-37-9l-22-2h-6l-3 1-2 2 2 1c4 3 9 4 13 5l29 8c8 3 16 4 25 5 6 1 11 2 17 1h3m-32 55 1-1-1 1m0 3h-1v1l1-1m-1 2s0 1 0 0v-1 1m0-8 4-11 1-2v2c-2 3-2 7-3 11v2l2-6c5-14 11-26 20-38l5-6 1-1-2-1c-19-1-37-4-56-9l-13-3c-5-1-9-4-14-6-1-1-2-2-4-1-1 1 1 2 1 3a183 183 0 0 1 6 63c0 1-1 3 1 3l1-3c2-8 1-17 1-26l-1-13v-1l1 1 2 19-1 20c0 2 0 3 2 2l24-1c2 0 2 0 2-2l8-22a218 218 0 0 1 3-6v2l-5 15-9 30-2 11-3 15c-1 3 2 6 4 7l1-2 3-15 9-30 1-3h1c1 3 4 3 7 4 2 1 2-1 2-2m-3 8h1-1m0-2 1-1-1-1c-4-2-7-2-8 2l-1 1c0 2 2 2 2 1 2-2 4-2 7-2m-4 17h-1v1l1-1m-1 2v-1 1m-6 0c-1-1 0-3 1-3l5-1c2 0 3 0 3-2l1-2v-3l-2 2h-2l-1-1h-1l-1-1h1l2-1h-4c1-2 2-1 3-1l1-1h-1l-3-1h3v-1l-3 1c-2 2-2 4-3 7l2 1 4-1h2l-2 1a203 203 0 0 0-6 2h8l-2 1h-5l-2 2-4 16v1l1-1c1 0 2-1 1-2v-1h3l-2-1 2-3h1-1l-1-1h1l1-1h-1c-2 0-1-1-1-2s2-1 1-2c0 0 3 0 1-2M3 392c4 2 7 5 9 8 4 3 7 7 9 12 0 2 2 4 4 3 3-1 6 0 8 2h2c5 1 10 2 14 6l6 4 2 1 1 1 13 10 14 10c3 2 3 2 5 0l-6-3c-1-1-3-1-2-3l-2-1-21-13-1-1h2l20 12 14 9 4 4v2l-1-1c-1-1-2-3-4-3v1l2 2c1 2 1 3-2 3v2l1 5c1 2 0 2-2 2l-2-3c0-3-2-7-5-9l-34-26c-4-3-7-5-11-6l-15-4c-3-1-5-2-7-5l-4-6-2-2-1-3-9-8-1-2h2m87 57 1 1-1-1m1 6v1-1m238-67-2-10c-1-9-3-18-6-26l-7-26v-1c1-1 1 0 1 1 3 5 4 11 6 17 3 10 6 21 7 32l4 21v1l1-1v-2l-4-27 1-1c1-1 1 0 1 1l3 13c1 8 3 16 3 25l2 31v12l-2 9-1 1-1-2v-3l1-6-1-13c0-2 1-3-2-4v-2l-1-20-3-20m4 17 1-2-1-1v2s0 1 0 0M45 389l5-8c2-3 2-6 0-9h-3l-4 5-4 5h-1v-1c5-6 9-12 12-19l1-1c1 2 4 2 5 5l4 14c1 1 2 3 1 4l-1 3 1 4-2 6c0 2-2 2-2 0-1-2-2-2-3-1-2 2-3 2-5 1l-4-3c-1-1-2-3 0-5m3 2v-1h-1l1 1M214 82Zm3 7 1 1 4 1h1l-1-1-3-2c-1 0-3-1-2-2l3 1c-1-3-4-3-5-5h2l-2-2-2-1v-3c-1 0-2 0-1-1h1l14 5 11 5 1 1h-1l-4-2-17-7h-1l1 2 1 1c8 4 16 7 25 9 2 1 4 1 4 4s-5 7-8 6l-20-6-15-5-5-2c4 0 7 1 11 3 2 0 4 2 7 0m9-4h-1 1-2l1 1h4c0-2-2-1-3-1m8 4h-1l1 1h1l-1-1m11 4-6-2v2l6 1v-1m-11 3 5 1c3 1 4 0 6-3h-9 1l1 1h1l-1 1-4-1h-2l2 1m0-4c-1-2-3-2-5-2l-9-3c2 3 6 3 9 4 1 1 3 2 5 1m-17-1 1 1 1-1h-2m24 60h-1 1m0 1h1c0 3 3 3 4 4l1 1v-1h1l2 1 1 1h1v1-1l-1-1-1-1-4-5-5-6v-2l1 1 1 1c4 7 11 13 17 20l3 2v2h-4c-8-3-15-6-21-10-4-3-9-5-12-10h1l-4-4h3v1-2c0-1 0 0 0 0l8 6 1 1c1 2 2 3 5 3l-4-3-1-1-3-3v-1h1c1 1 1 2 2 1l-2-2-1-1v-1h1l7 8 1 1m11 7h1-1m-25-10 1 1-1-1m14 3v-1 1m-18-99-1-1h1l13 3h14l2-1-2-1-9-1-10-3c-2-1-3-2-3-4-1-1 1-2 2-2l3-3 2-1-1 2-1 1v1h1c1-3 4-1 6-3l1 1 11 8 1 3c2 2 1 3-1 4h-18l5 2 9 1 1 1h-5c-1 2-2 1-3 1l-24-6-4-1h5c0-1 1-2 2-1h4-1m12-8h3-3m-1 1-2-1-1-1h-1l1 2c2 1 5 3 9 3l-6-3m6-3v1-1m0 3h1-1Zm4 4c-1 0-3-2-4-1l4 1h1-1m-25 4 3 1-3-1m14 2h1l-1-1h-1l1 1m-4-1v-1 1m-3-1-1-1h-1l1 1h1m-1 1Zm18-28h1l-1-1h-6l2-1h1l2-1-2-1-14 2-27 6-8 1-4 1c-5 0-10 2-15 4l-20 8-2 1-1 1h1l2-1 30-5h1-1c-5-1-10 0-15 1h-1l1-1 17-5 5-2 8-2 32-5h14M28 403l-1-3 3-5h1l8 8c2 3 5 5 5 8l1 2 1-1 1-3-2-4-9-9c-2-2-3-5-2-8v-3c-2-1-2 1-2 2l-2 4-5 6c-1 3-1 3-3 1l-3-3h-2v2c3 2 4 5 6 8l1 1c4 1 6 4 10 6l2 2h3v-2c-1-2-3-3-5-3-3-2-5-3-6-6m284-282-2-1-19-15v-1h2v-2l-2-2-16-9-5-4c3 0 4 2 6 3s3 3 5 3l5 1 18 12c4 2 8 4 10 8l1 2v4c-1 1-1 2-3 1m-14-17-2-1h-1v3c1 1 1 2 3 1s2-2 0-3m3 4v-1l-1 1 1 1v-1m0 1v1-1m2-1-1 1h1v-1M172 224h1l1 3-4 6h-1c-1-2-3-1-5-1-2-1-3-1-4 1-1 1 1 2 1 3 1 1 2 2 1 3l-4-1c-2-4-4-5-8-6-3 0-6-2-7-5v-3l2 1 6 3 2 1c1 1 1 2 2 1l1-1-1-1h-2l1-2 4-1c5-2 8-1 12 2h2v-3m-17 4h1-1m1 3h-1l1 1 1-1h-1m2 2h1-1m52 231v2l3-1 1-2c2-7 4-14 8-20l4-5c3-2 4-4 4-7v-1c0-1 1-2-1-3-1-1-3 1-4 2l-7 14-6 15-2 6m75-409v-1l-9-5c-1-2-4-2-5-5 4 1 7 4 10 6 1 0 2 2 3 1 0-2-2-2-3-3l-23-14-7-7h-2l1 2 5 4c9 8 18 15 28 21l1 1h1M131 66v-1h-1l-1 2-11 16-1 1-1-2 1-7v-9l-1 2v7l-1 5-1 7 1 1h1l1-2 5-5 1-1a1525 1525 0 0 0 8-14m88-45-1-1-42 11-10 3h-2v1l1 1 3-1c14-5 28-9 43-12l7-2h1m-32 35-13 2c4 2 7 0 10 0 10-2 21-3 31-6l1-1c2 0 4 0 5-2l-5 1-29 6m164 383c-1-1-2 0-2 1l-3 4c-1 6-5 11-7 16-1 2-3 2-4 1l-1 1c1 1 2 1 2 3v1l2-1 2-3 10-19 1-4M197 58l1-1 3-1 11 1c5 1 10 1 15 4h-3l-1 1-7-1-2-1-15-2h-2m25 3h1l-1-1v1m-7-2h1-1m-13-1v-1h-1l1 1M84 425l-9-12-1-1-1 1v1l10 13 1 1v-3m220-203-1-13-1-2v6c0 8 1 15 3 21l1 2v-2l-2-12m-148-40-1 1-1 6c-1 5-1 11-3 15v4l2-2v-2c0-7 2-14 3-20v-2m158-34-1 5 1 1v-2c1-6 4-10 9-12l3-2 1-2h-1l-12 8v4M109 54v-1l-2-2a64 64 0 0 1-16-17h-1v1c5 8 11 14 18 19h1M0 390l1 1a95 95 0 0 1 14 2v-1l-9-3-5 1H0m68 10-4-3h-2l-1 2c0 3 3 5 6 4 2 0 2-1 1-3m-12 7c0 2 2 3 3 4 1 0 2 1 1 2l-2 1-4-2c-2 0-2-2-2-3 0-2 2-2 3-3l1 1m-1 3h1-1M191 32c4-3 10-4 15-5l12-3h1l2-1v-1l-2 1-1 1c-7 0-13 2-20 4l-8 2-1 1 2 1Zm-3 9h-1l1 1h12a906 906 0 0 0-12-1m-8 230v3l6-2 1-1-3-4v1c1 3-1 3-4 3m51-64c-1-1-3 2-4-1-2 2-4 1-6 0l-1 1v1c4 0 8 1 11-1m1 0v-1l-1 1h1M109 371c0-1 1-3-1-3v5c0 1 1 2 2 1v-1l-1-2M95 215l-5-4-3 1v1c2-1 3 3 6 1l2 1M240 62l-13-4 3 2 9 3h1v-1M115 80V65l-1-1v16h1M47 418l3 2 1-1c1-2-1-2-2-2l-2 1m35-203-1 1c0 1 0 2 1 1 2-2 3-1 5 0h1l-6-2M216 61l-7-1h-1l1 1 8 1h1l-2-1m-6-5h1l9 1-10-1m31 9-6-2 6 3 1-1h-1m-31 70Zm-6-2h-2l6 3 2-1-1-1h-3l-2-1m71 94 1-3v-2l-1 2-1 3h1M134 61l1-1h-1l-1 1-1 2c1 1 1-1 2-2m-30 163-7-2 6 3h1v-1m33-167 1-4-2 4h1m91 9h-1l-6-2c2 2 4 2 6 2h1m-30-6h6l-2-1h-1l-3 1m147 329v-4c-2 1-1 2-1 3v3l1-1v-1M220 57l7 1-7-1m-7 26-1 1 2 3s1 0 0 0l-1-3v-1m-68 333v1l1-2v-1l-1 2m159-171-1 1 1 2 1-1-1-2M235 63l-5-2-1 1 6 1m-5-2h-1 1Zm5 6 3 1h1l-4-1M57 428h1l-2-2-1 1 2 1m0 0Zm69 2-1 2h1v-2m103-287h-1l2 1-1-1M93 220l4 2-4-2m128-78Zm0 0 2 3c1-2 0-3-2-3M185 31h2l-1-1-1 1m63 266v-1l-1-1v2h1M134 457v1-2 1m92-308-3-2c1 1 1 2 3 2m77-72-1-1v1l1 1v-1M180 271l-1-2v1l1 1m-82-54-3-2c0 1 1 2 3 2M214 63l-4-1 4 1m131 315v1-1M77 388l1-1h-2l1 1m99-238v1l1 1v-1l-1-1m-86 69v-1 1m0 0 3 1-3-1m64-76 1-1v-1l-1 1v1m119 80-1 2 1-2M204 62h1v-1l-1 1m19 0h2-2m-15 0h2-2m14 1h1l-2-1v1h1m2 141 1 1v-1h-1m-1-141 2 1-2-1m3 1h-1 1m87 258h1l-1-1v1M226 64h3-3m-6 0h1-2 1M60 368l-1-1v1h1m283 64h1-1M229 181h-1v1h1v-1m-73-2h-1 1m179 281v1h1v-2l-1 1M233 66l2 1-2-1m0 0-2-1 2 1m4 0v-1h-1l1 1m-6-1-2-1 2 1m-17-2h1-1m15 0h1-1m2 0h-1 1m-10 141h-1 1m8-141v-1l-1 1h1ZM69 396v-1h-1l1 1m157-255h-1 1m1-80h2-2m-38 209c0-1 0-1 0 0m14-25c0 1 0 1 0 0m188 147v-1 1m-330 3h1v-1l-1 1m171-189h1-1m19 128v1-1m0 0h1-1m-31-141h1-1Zm91-45 1 1v-1h-1M182 45Zm45 138h-1v1h1v-1m9-118c-1 0 0 0 0 0m-19 392v1-1m6-310-1-1 1 1m-1-1Zm-1-4v-1 1m51 83Zm68 238v-1ZM67 161v-1l-3-1c-4-3-4-3-7 2-1 1-2 3-4 3l-4 1h-1 1c3-1 6 0 9-2-1-2 2-2 2-5h2l4 3h1m-10 8h4l-3-1-1 1m12-6 3 2h1v-1c-2-1-2-3-4-1m-6-2c0-1 0 0 0 0m0-1v1m-2 1Zm-10 5v1-1m18-4h-2v-1 1h2m-11 0v1-1m134-4 2 1 1-1-2-1-1 1m32 18v-1 1m-1-13v1-1M70 49h1-1m-6-1Zm83 25v1-1m-81 3v1-2 1m40 259c1 1 1-1 1-2l11-26 1-2h-1l-1 1-3 8-8 18v3m-26-51-1-1H66l-1 1h1c4 1 8 2 13 1l1-1m20 56h-1l-1 1h1l1-1m-2 6-1 1v1l1-1v-1" fill="#050503"/>
    </g>
  </g>
</svg>
