<svg xmlns="http://www.w3.org/2000/svg" viewBox="0 0 415.6 883.6">
  <defs>
    <clipPath id="a">
      <path fill="none" d="M0 0h416v884H0z"/>
    </clipPath>
    <clipPath id="b">
      <path fill="none" d="M0 0h416v884H0z"/>
    </clipPath>
  </defs>
  <g clip-path="url(#a)">
    <g clip-path="url(#b)">
      <path d="M23 679Zm391-157-4 23-1 2-1 1-1-1v-33c1-12-3-22-8-32l-8-13h-2v3a419 419 0 0 0 6 66l1 8v1l-2-1-2-4c0-2-1-5-3-7l-1-3c-2-15-4-31-4-46l3-20v-5l-1-2-1 1-2 9c-3 17-2 33 1 50l3 18v1c-1 1-1 0-1-1-2-4-2-9-3-14l-2-17-1-2-1-1v1l-1 5-8 50v5c-1 2 0 5-2 6l-1 2c0 1 1 3-1 3l-2-3a225 225 0 0 1-7-66v-1l-1 1-1 10-5 41-3 19v1l-2 3c-2 0-1-2-1-3l-4-28-2-22v-2l-1-1-1 1v15l1-7v-2l1 2-1 8 1 18-1 6-1 4-1-4v-8l-1 2-2 13c0 3 0 7-4 8v1l-1 1-1-1-1-3a544 544 0 0 1 0-14l1 2v-3c-2-20-4-40-4-61v-2l-1-1-1 1-2 17c0 3-2 6 0 10l-1 1c-1 2 0 2 1 4 1 1 0 4-1 6-1 5-2 9-1 13l2 17 1 6-1 2c-2 1-2 0-3-1l-1-9a297 297 0 0 1 5-74c0-2 0-3 3-2v-8c1-3 3-4 6-2 2 1 4 3 7 2h7l6-1c1 0 3 1 3-1l-3-1-10 1-8-1-1-1c-10-2-14-9-18-17-4-12-7-24-8-36 0-8-2-15-3-23-2-10-2-20-1-30 1-16 1-31 4-47 1-5 1-10-1-15v-7c0-3 0-5-2-7l-8-12h-2c-2 8-6 15-10 22l-10 15-2 2h-2v-1c9-12 16-24 21-37l1-5c-2-1-3 2-4 4-4 12-11 22-18 33l-2 2c-2-1-1-2-1-4l18-30 3-7-1-1h-1c-4 3-9 5-12 10-2 3-10 5-14 2-2-1-4-2-6-1h-2c-4-1-4-1-3 3l11 20c4 5 5 10 8 15l5 16c3 15 6 30 11 44 4 12 5 23 6 35l3 28 4 22 1 2c1 4 0 5-4 7l-10 3c-2 0-3 1-3 3-3 10-8 20-10 31v2c-3 5-2 10-2 16l-2 21-2 24-1 8c-4 9-9 17-16 23-8 6-10 14-11 22a583 583 0 0 1-14 82c0 6-2 11-3 15l-10 37c-1 4 0 8 3 11 6 6 9 13 9 21v2c3 3 2 8 3 12 1 3 0 5-4 5-4 1-6 0-8-4-2-6-4-12-4-18v-8l-1-1v14c1 6 1 12 5 17v1h-1c-3-3-4-6-5-9-1-1-1-4-3-1l-2-1c-2-2-4-4-5-8 0-5 0-9 3-13l2-3-1-2c-4-1-8-2-11 1-2 2-1 2 0 3 1 4-2 8-2 11l-3 12v3c-2 2-1 5-2 7v1l4 1 8-2 2 1h-2l-12 3-1 1h1l11-1-5 1-3 1 1 1h3l-2 1h-2l-4 1c1 2 3 0 5 0h3l-3 2h-1l-4 1h6l-1 1h-1l-2 1h2c4 0 8 0 12 2h-2l-11-1-1 1h2c1 0 2 0 1 1l-1 1h-1l-1 1h3l-2 1-4 1-2 1h8l-1 1c-1 0-3-1-4 2 1 1 3-1 5-1h1l7-3 1-1h-3l-1-1h14c-1-2-4-2-5-3l-3-3v-1l2 1 4 3 3 1-2-2-1-1-2-1-2-1-1-1-2-1-1-1 2 1 4 3h2l3 2h2v-2c-2-1-5-2-6-4l6 3h1c3-3 0-9-3-10l-16-5-4-1c-2 0-2-1-2-3 4-3 9-3 13-1l8 4 2 1c2 5 6 7 10 10l13 16 4 6c3 3 5 5 9 6 6 2 12 2 18 5l10 8 2 4c0 2-2 2-4 2h-24l-9 1c-4 0-8 0-12-4-1-1-4-1-6-4h-1c-4 1-7 0-10-1l-2-2c-1-1-1-2 1-2 7 2 14 2 20 8 3 4 8 4 13 3l11-2h4c2 2 4 2 7 1h2c1-1 4 0 4-2l-3-3c-3-3-7-6-11-7-3-1-4-2-7 0-8 5-23 2-29-7-2-4-7-7-11-10-2-2-4-2-7-1l-9 3c-4 1-7 3-11 2h-1c-8 1-8 2-8 9v2l-2 1c-1 1-1 0-1-1l-1-7c1-5 1-10 4-14l1-5c1-2 1-4 4-4l1-1-2-1-1-2c1-6 3-11 3-17l2-23 1-28v-2l-3-23-1-4v-4c0-5-1-11 1-16l1-6v-1l-6 8-9 12-12 16c-3 3-5 8-6 12l-6 18-7 14-1 3-9 22a262 262 0 0 1-16 32l-6 9-6 15-6 20c0 2-1 3-3 3-2 1-4 0-5-1-6-9-9-18-11-28-1-5 0-11 2-16l2-7c4-14 11-27 18-40 2-5 6-9 11-12l3-3 5-7c3-3 3-5 2-9-5-9-8-19-9-30l-4-29-2-18-1-1-1 1 2 14c2 18 4 36 9 54l4 12v3l-2-2-5-19-5-29c0-1 0-2-1-1v1l2 18 2 18-1 1v-1l-4-26-1-1v44l-1 2-1-2v-5l-1-2-1 2 1 5v7l-1 4c-2 0-1-2-2-4l-1-4c-8-20-13-41-18-63l-1-5v6l1 26 2 43 1 4-3 1 1 3v3c0 1-1-1-2 1l-1-1c-1-11-9-19-13-30l-5-5h-1l1 3 4 16 2 22c0 1 1 2-1 2 0 0-2 0-2-2l-4-7c-4-6-4-13-7-19-2-12-7-23-9-35l-3-15-1-2-1 3v3l1 33c0 10 2 20 5 30 2 4-1 8 0 12l-1 1c-1 1-2 0-2-1l-2-5a325 325 0 0 1-12-107c-4-6-5-12-7-19 0-3 2-6 1-9h1l1 1 4 10 1 1 4 3c2-1 0-3 0-4L7 640v-2l-1-1-1 1c0 2 1 4-2 4l1-3-1-3c-2-2-2-4 0-6v-4c-2-2-2-4 0-6 1-3 1-4-2-4l-1-2 1-8 2-13a206 206 0 0 1 24-70l6-12 7-9c4-3 7-7 9-12 3-4 6-9 10-12v-2c-2-1-1-2 0-3l3-5c6-8 8-18 11-28 3-12 5-25 9-37 2-5 2-11 3-16 4-15 10-28 17-41l6-11c6-10 13-18 20-27 4-6 11-9 16-13h2c4-1 4-1 1-6a376 376 0 0 1-22-36c0-2-1-4-3-5l-1-3c-5-16-7-31-9-47l-2-21 1-6 1-6 1-4 1-1 1 2-2 11 1 9c2 4 1 7 1 11l2 15 3 7c5 5 10 11 17 13l3 1c1 1 2 0 1-1 0-2-1-3-3-4-11-5-17-14-20-25l-1-5 1-1 2 4c2 7 6 13 11 19 4 4 8 7 14 7h2l-1 1c-2 1-2 2-2 4 0 10 1 19 5 28l10 23 1 3c0 4 3 7 6 10l9 16 1 2c0 2 2 3 3 2 2-1 1-2 1-3l-5-13-2-3c-1-2 0-2 1-2l7-1c1-1 3 0 3-2h-4l-4 1h-1l1-1 12-2v1l1 1c2-1 3 0 4 2l1 2c6 1 0 2 0 2l-1 1 1 1h4c2 0 4 1 2 3l-1 1c4 0 1 2 1 3-1 3 0 3 2 3l7-2c5-2 10-4 14-8l-4-1-1-1c1-2 0-2-1-1l-2-1 1-1 5-2 3-1 6-2c-3-1-5 0-6 2h-3l-3 1c-4 2-6-2-8-3l-1-1c2-1 2-3 5-3l8-3c-4-1-6 1-9 2l-6 1h-1l1-1 5-2c-2-1-4 1-7 1l-6 2-3-1c-1-1 1-1 2-2h1c-6 0-12 1-17 3l-8 1h-2l1-1 5-2 1-1h-2l-6 1c-3 1-3 1-1 4v3l-1-1-2-3c-8-14-13-29-17-45l-1-4c0-3 0-5 3-6l2-2c1-1 2-2 0-3l-10-4h-1l1-1h3l-3-2c-2 0-5 0-6 2h-1l-1-1c2-3 4-3 6-3 5 0 10 2 14 5a360 360 0 0 0 96 66l6 2c3 1 7 0 9-2l11-8c10-7 18-15 25-24l2-5c3-8 8-12 15-16h2l1 1h-1l-4 3 3 3c2 4 5 5 9 5l17-1 17-2 6 1c1 0 2 0 1-1l-1-1h-3l-3-1c-6-2-12-3-18-1-1 1-2 0-2-1-3-8-9-14-17-18l-4-1-3-3-1-2c-5 0-4-3-5-5l-1-1v1l-1 2c0 2 1 3 3 4l2 1 1 1h-2c-6-1-11 2-15 5l-14 13-13 8-13 7c-2 2-4 3-2 6l-1 2-1-1-3-2c-4-1-7-3-9-6l-23-18-21-15-8-10-10-16h-2l-8-12c-5-6-10-11-16-15l-10-7-3-1c-4-1-8-1-12 1l-1-1 1-1c5-3 11-3 17-2h3l2 1c-2 2-1 2 0 3 5 2 9 6 13 11l10 12 2 2 15-9 14-7c2-1 2-2 2-4 0-5-1-10-3-14l-7-20-1 1-2-2-1-1v1l4 12 6 15c1 3 0 5-2 6-6 4-12 8-20 10-3 0-4 0-6-2l-4-5c-5-8-13-13-21-17-2-1-4 0-4-3 0-2-2-1-4-1l-4-1c0-2 3-2 4-1 3 0 5 0 7 3s6 4 9 5l8 5 10 12c2 3 3 3 6 2l17-9c2-1 3-3 2-5-4-6-6-13-8-19-2-4-3-8-8-8h-1c-4 2-5-2-7-3v-4c1-2 2-1 3-1h5c3-1 7 1 10 1l7 2c5 2 8 1 12 0 3-1 4-3 3-5v-4l1-3c-1-3 1-5 3-7s5-4 4-8c0-2 3-3 5-2 1 1 2 0 3-1v-4c-3-4-5-10-5-15v-8l-2 1c-2 3-2 6 0 9 1 3 1 4-3 4-4 1-6 0-7-4v-2h2c1 0 2 2 3 1l1-5-1-1c-5 3-12 4-17 8h-4c-1 0-2 0-2 2l3 1 4-2 1 1c0 4 1 5 4 3 2-1 2 0 2 1l-1 2v4l4-1v-2c-2-1 1-2 0-3h1c0 2 1 2 2 1 2-2 2-1 2 1 1 5-1 9-4 13l-2 3c-2 4-6 4-9 5-1 1-1-1-1-2 0-2-1 0-1 0-2 4-4 4-7 3-2-1-2-1-1-2l1-1c4 0 5-2 4-5h-2c0 3-2 3-3 4-1 2-3 5-5 2h-18l-3-2c-4 0-6-2-8-5 0-2-1-2-2-1-1 2-2 2-3 1-1-2-2-1-3-1l-8 2c0 4-3 4-5 5v1l2 1-1 2c-3 0-3 1-3 4l-1 2-6 9-9 20v2h2l7-4 2 1-1 1-3 1c-5 2-10 6-12 12l-4 6 2-7c3-10 7-19 12-27s6-16 7-25v-8c-1-2-3-1-5-1s-4 0-4-2c-1-2 0-5 1-5 2-1 4 0 5 2l1 1 1 1 2-2c1-1 0-1-1-1l-1-1 1-1 14-2 29-4 15-2 2-1c1 0 2 0 2-2h-2l-31 5-2 1h-1l1-1 2-1h1l-2-1-5 1c-3 0-5-1-7-4-1-3-1-6-3-8-1-1 0-2 1-2l4-2 5-2 3-2h-3l-5 2c-2 0-4 0-4-3-1-2-3-2-2-4 1-1 1-4 4-4l2-1-2-1c-2 0-4 1-4-2l-3-1h-2l2-2 3-2c-1 0-3 1-4-1 0-2 2-2 3-3l1-1c-1-1-2-1-1-3l4-1 14-5c3-1 5-3 4-6-1 1-1 3-2 2v-4c-2 1-2 3-3 5l-1 1c-2 0-1-2-1-2l-2 1-1 2c-1 1-3-3-4 1 0 2-3 1-4 2h-2v-2l1-4c-2 1-2 4-3 6s-1 4-4 4l-1 1c-1 1-1 3-4 4-2 0-1 4-1 6 2 3 4 7 2 11-1 4 1 6 3 9 4 4 8 8 6 14 0 3-2 5-5 5-3 1-5-1-6-4l-1-2-1-1v1l2 6v2h-2c-2-3-5-5-3-9l-1-1-4-3c-1 0-2-1-1-2 2-2 0-4-1-5-2-2-3-6-4-9-2-6-1-12-2-18v-3c3-2 3-6 5-8 2-4 6-7 10-10l16-8c4-2 9-4 14-4l5-1h17l13 1c4 0 7 1 10 4 1 1 3 2 4 1l5-2 4 1c6 4 11 9 13 16l3 11v4c-1 4 1 7 1 11l2 2 5 5c1 3 1 6-1 9-1 1-2 2-3 1h-7c-2-1-3 0-3 2 0 5 1 9 3 13l3 5c2 4 1 6-3 9-2 1-4 2-4 6l-1 1-5 7-2 6c0 4-2 7-7 8-1 0-4 0-5 2l3 4c7 6 11 13 14 20 7 16 15 32 25 46l9 10 1 1 4 4h1v-1l-2-6-3 2v-7c-1-1-1 1-2 1-2 0-4-1-4-3l1-1c2 2 3 1 4 0l1-1c1-1 2-3 3-2v5c1 1 1-1 1-1h2c0 10 4 18 6 27 1 5-1 10-1 15l-1 2-2-2-1-18c0-3-1-5-4-6-9-7-16-16-22-26-5-7-9-15-12-23l-9-17v4c3 8 3 16 3 23l-1 2v-2l-1-9c0-11-3-20-7-29h-2l-2 1c-2 1-2 2-2 4 2 8 4 17 4 26l1 3 1 1 5 14c0 7 2 14 4 20 0 1 1 4 2 3 2 0 2-2 2-4l-1-34v-3l1 14v26c0 4 2 6 4 8h1v-1l-1-7-2-32v-3l1 2 4 41c0 2 0 4 2 6l1 1v-1l-1-6c2 1 2 4 3 5l1 3v-3l1 1 1 1c2 11 11 15 19 20h5c5-2 11-5 15-9l8-7 11-8 1-1c7-2 5-8 7-13 0-2-2-2-2-3v-1c1-4 1-4-2-6-1-2-3-3-6-3-2 0-3 0-5-2l-1-1 2-1c7-2 13 2 16 9l1 6c1 3 2 6 5 8l1 2c1 3 3 4 7 5 5 1 9 5 12 9 3 3 4 6 5 9 1 2 2 3 3 2 5-1 9-1 14 1h15c2 0 2 1 1 2-2 4-6 6-10 5-5-1-11-2-16 0-2 1-3 3-3 5l-1 7c1 4 2 7 5 8s3 4 4 6 2 4 5 4c2 0 3 2 5 3 7 6 14 14 19 22 4 7 5 14 7 22a125 125 0 0 1 4 19c2 4 2 8 2 13 0 9 0 17 3 26 1 4 2 9 5 12l1 2h-2c-3 0-5-3-6-5v4l7 22 2 9c3 9 3 18-1 26v5c8 9 7 20 8 31l-2 37M255 198s0 1 0 0m0-1v1-1m-12-17h1v2l6 9 1 2 2 3h1v-1l-2-2c0-2-1-2-2-3l-5-8-1-2h-1m-29-48v-2l-1 1 1 1m29-77 1 2h1l-1-3-1 1M123 38h-1l1 1h1l-1-1m3 8v-1l-1 1-1 1h1l1-1m0 6v-1h-1l1 1m8-32-1-2c-2 0-1 1-1 2v2c2 0 2-1 2-2m0 12v-1h-1l1 1m16 5v-1l-1 1h1Zm0-6-1 1 1-1m10 37-1-1v1h1m-1-40h3-3m-2 1 2-1-2 1m-4 2v-1 1m0 4v1-1m2 0h-1 1m1-6-2 1 2-1m7 3h-2c-1 0-2 0-3 2h-1 1l4-1 1-1m4-6-5 1c2 0 3 1 5-1m-33 61-3-1-1 1 3 1 1-1m8 11-1 1h1v-1m2-9h-1l-2 1h2l1-1m3 0h1-1c0-1 0 0 0 0m1 2v-1 1m2-7h-1l1 1v-1m18-1v1-1m3 5v-1h-1v1h1m4 0-1-1-2 2 1 1 2-2m4-1c-2 0-2 2-3 3l1 2c2-1 2-1 2-3v-2m28 10h-1 1m3-9h-2 2m-2 0v1-1m2 8h-1 1m1-8h-1v1l1-1m4 7-3-2 1 3 2-1m2-6c2-1 2-2 2-4h-1l-1 4m-2 4v2l1-1-1-1m-1-4v1h1l-1-1m-2-1 2 1-2-1m-1 0h1-1m0-7v1h1l-1-1m-4 5c1 1 2-1 3-2l1-2h-1c-1-1 0-4-2-3v3l1 1-1-1c-1 2-2 3-1 4m-4 9h2c0-2 1-2 2-3 0 2 0 3 2 3l-1-3c0-2-1-3-2-3-2 0-1 2-2 2l-1 4m37-36v3h1l1-2-2-1m-1-1h1-1m-2-10-1 3v2h1c2-2 2-3 1-5l-1-2v2m-2-8v2l1 2v-3l-1-1m-2-11-2 1 3 2 1-1-2-2m-5-5c0 3 3 2 4 2h2c0-2 0-4-2-4-1 0-3 0-4 2m0-6c-1 0-3 1-2 2h2l2-1s1 1 1-1h-3m-1 11c-1-1-2 0-2 1l-2 5c2 0 2-3 4-4v-2m-4-13c1 1 3-1 4-1l1-1-2-1c-1 0-3 0-3 2v1m-4-7 2 1 1-1-3-1v1m-48 7v1-1m2 32h-3l1 1 2-1m12 24h1-2 1m10-2c-3 0-6 0-8 2 3 0 5 0 8-2m2-3h-5c-5 1-9 1-13 4l13-2 5-2m-9-2h7l2-1-2-1-2 1-5 1m3-13h1l-1-1-1 1h1m-2 9h-1l-1 1h1l1-1m-4 1h1-2 1m13-2h-2l-3 1h4l1-1m-16 28-1 2 1 1 1-1-1-2m4 2v-2h-1l-1 2 1 3 1-3m4 2-2-5-1 1 1 4 1 2 1-2m1-7-1 1 2 5 2-1-3-5m3-2-1 1c0 2 1 3 3 4 1 1 2 0 2-1l-4-4m5 1-2-3v1l2 2m1-6-2 1c-1 1 1 2 2 2l1-2c1-1 0-2-1-1m0-12c-1 0-1 0 0 0m20-9-2-2c-1-1-3-1-5 1-1 1 1 2 1 2 2 2 2 4 0 6v1h1l4-2c3-2 3-4 1-6m10-24c-1-1-2 0-2 1l-7 6-3 2h-2v-2c4-2 4-7 6-10v-4c0-2-2 0-3 0-1 1-3 2-2-1v-2c1-2 1-2-1-2l-3-1c-1-2-2-2-3-2l-5-1c-3 1-4-1-5-3-1-1 1-2 1-3h3c3 4 8 3 12 4h2v-1c-5-4-8-9-14-8-5-2-9-1-13-2-9-1-10-1-14 8-2 6-7 11-4 18v1a418 418 0 0 1 12 8c4 2 7 5 9 9l3 3h7c13-1 18-1 26-8 3-3 3-7 0-10m-14-15s-1 0 0 0v1l1-1h-1m6 18 1-1-1 1m11 21Zm-44 63-1-1-1 1 1 1 1-1m-31 39 1 1-1-1m-1 0v-1 1m87 63v1-1m-11-7h1-1m-1-2 1 2-1-2m-2 7h1c1-1-2-4-2-4h-2c0 2 1 4 3 4m-4-6h1v-1l-1 1m-14-56h1-1m0 13-2 1h2c3-1 3-4 3-6l-1-2-1 2c1 2 1 4-1 5m-2-44v1-1m-1 0v-2 2m-10-4-1-1v1c0 1 0 2 2 3l-1-3m4 3-2-4v1l2 3Zm9 21-1-6c-1-3-3-6-3-10v-1l-1 1c-1 0-3-2-2 1l4 10 3 5m-2 26s0-1 0 0m-2-7 1-1-1 1m-2 1 2-1-2 1m-2 1 2-1-2 1m-2 2 2-2-2 2m-2 1 1-1-1 1m-5 9 2-1-2 1m-5-1h1-1Zm45 55 1-1h-3l1-1c0-1 3-1 2-2h-3l-1 1v-2l1-1c2 0 2-1 1-3l-2-1-5 3c-1 0-2 0-1-1l1-1 1-1h-2l-1 1v-3c0-2 0-2-2-2l-2 1 1-2 2-2c-1-1-2 0-3 1l-1-1v-1l2-2-3 1-4 2h-1l1-1 6-3 1-1-1-1-6 3-2-1 1-1 6-3 1-1h-1l-6 2c-1 1-2 2-3 1l2-2 8-3 2-2h-2l-5 2-8 3h-1l1-1a97 97 0 0 1 13-7h-2l-6 3-5 2 4-4 7-4h1-1c-3 0-5 2-8 3h-4l2-2h-2c-1 1-3 3-3 1-1-1 2-2 3-2 3-2 7-3 10-6l1-1-1 1-3 1-12 5h-2l1-1 9-5 1-1 6-2 1-3-1-1-3 1 2 1v1l-5 3-2 1-6 2-4 2c0-2 2-2 3-3l1-1v-1h-1l-2 1-1-1 1-1 14-6 2-2h-3l-3 2-13 5h-3l2-2 3-1 12-6 4-2-4 1-15 6-2 1h-2l1-1 2-2 17-7c1 0 3 0 3-2-1-2-2 0-3 0l-14 6-8 4h-2l1-1 6-3c-2-1-3 0-4 1h-3c-2-3-6-2-9-1l8 11 11 16c9 12 21 19 33 27h4m3 1-1-1-1 2c-1 1 0 1 1 1l1-2m0-13 1 3v-3l-1-1v1m1 17v-1 1c-1 0 0 0 0 0s1 0 0 0m1-13h-1 1m23 17c-4 0-6-2-9-4l-12-11-2-2 1 2 5 16c0 3 6 7 9 7l1-1c1-2 5-3 7-4 2-2 1-2 0-3m-50 26c-2 0-3 0-4 2l4-1v-1m-3-1h1l-1-1v1m-2 3h1-1m-2-1 1-1-2 1h1m0 2 1-1-1 1m-2 1 2-1-2 1m-1-9 1-1h-1v1m-7-5h2l1 2 1 1v-2l-2-1-1-1h-2l1 1m-8 7h1l1-1c3 0 5 0 7-2v-1 1l-7 2-2 1m1-6h-1v1l1-1m3-1-3 1 3-1m-19-20 1 1 5 4 1 1 8 7h1v-1l-8-6-1-1-6-5h-1m13 27v1h1l-1-1m-3-14-2 1h2v-1m-8-8 1 1v-1l-1-1v1m-2 5h3-3m0 24 1 1 3-1h-4m4-6-1-1v1h1m1-18c1 0 3 0 2-1l-2-1-2 1 2 1m-9-6h6-6m3 7 1-1-1 1m-3-3s0 1 0 0m0 4h1s0-1 0 0h-1m0-16 1 2h1l-1-2h-1m-3 9 3-1-3 1m-3 1 3-1-3 1m-4-10 3-1h1-2l-2 1m2 11-2 1 2-1 2-1-2 1m-5-10 3-1-3 1m-5-4 1-2-2 2h1m3 5 2-1c-2 0-3 0-4-2h2-2c-2 1-1 2-1 3 1 2 2 1 3 0m-1 4h-1 1m3 7 3-1c-1 0-3 0-4-2h-2l1 3h2m1 5 9-4 3-1h-3l-9 2c-1 0-2 0-2 2l3 1m10-1 1-1c-1 0-2 0-1 1m-3 0-1 1 1-1m-2 1h1-1m-2 1-1 1 1-1m1 6 10-4 3-1c-5 0-9 2-13 4h-2l1-2v-1c-2 0-1-1-1-1-3 1-3 1-2 4 1 2 1 3 4 1m5 11 6-3 1-1h-1c-1 0-3 2-4 0l-3-1h-2l2-1 5-2 1-1h-1l-7 1c-4 1-4 1-2 5v2c1 2 3 2 5 1m-2 4 2-1-1-1-2 1 1 1m11 2c-2 1-3-2-5-1h-3l-2 1c0 2 1 3 3 2l7-1v-1m4 3v1c-1 0 0 0 0 0v-1m2-1-2 1 2-1m6-1h-5l4 1 1-1m0-8 11-4 1-1h-1l-11 4-3 1-2 1-6 2c2 1 4 0 6-1l3-1 2-1m9 6-2 1h-2l1 1 1-1h2v-1m22 0Zm1-2-2-2c-1-1-2 0-3 1l-12 4-4 1h4l15-3 2-1m-7 9v1-1ZM3 623Zm23 163 2 8 1 1v-4c1-1 0-3-1-5 0-1 0-3-1-2l-1 2m143 49h1-1m1 3 1-1h-2l1 1m0 4h1v-1h-2l1 1m2 3-1-1v1h1m1-16h-2l1 1 1-1m58 24c0 4 5 7 9 6 1-1 2-1 1-2l-1-1-8-3h-1m-14-4-1-1 1 1m2 4h-1l1 1h1l-1-1m6 3-1-1v-1h-1l-1-1-1-1-4-3c1 2 2 3 4 3l1 1v1a70 70 0 0 1 2 2h1m-10-16 13 11 1 2-1-2c-2-6-6-11-10-16-1-1-2-3-3-2l-1 3c-1 2 0 3 1 4m-1 4 1 1 4 3 1 1 1 1 1 1 4 4h1l-1-1-3-3a38 38 0 0 0-2-2l-1-1-1-1-3-2-1-1-1-1h-1l1 1m-34-18h2l-1-1-1 1m36-20-3-1c-1 0-2-3-3-2s0 3 1 5l2 3 1 1c2-1 2-3 3-5l-1-1m-7-18c0 3 1 7 3 10 0 1 1 2 2 1l1-2c0-4-2-7-4-10h-2v1m33-505 3 1-3-1m-2-1 2 1-2-1m0 3 1 1v-1h-1m-4 1 1 1v-1h-1m-3-2v1-1Zm-1 7h1l9-2-1 2-4 1-1 1h6c1 1 2 0 2-1l-2-4c-3-1-6 1-9 2l-1 1m-2-5 1-1-1 1m-6-5h1-1Zm-5 5h1-2 1m4-1c-1 0-2-1-3 1l3-1m6-2c-3 0-5 0-6 2 2 0 4 0 6-2m0 14h2-2m-2 1h1l1-1h-1l-1 1m-37 3h1v-1l-1 1m-6 8 4-1v-1c-2 0-3 0-4 2m0-3c1 0 3 0 3-2l-3 2m5-2h-2 2m1-3-6 1h-2l-1 1 2 1 2-1 5-2m-13-8 6-1 3-1c-1-2-2 0-3 0l-6 1v1m4 1v1l1-1h-1m-3 1h3-3m0 1h-1 1m11 1v-1l-1-1-9 3v2h1l9-3m-21 8-4 3 6-1 1-2c-1-2-2-1-3 0m-2 5h-1 1m1-10-2 2h2l2-1-2-3v2m-7 2v1l4-1h-4m3 46v1h1l6-3-7 2m1-4h1l-1-1v1m-1 13 3 22c2 13 5 27 11 40l1 2h-1l-1-2v2l2 7c2 3 2 7 5 10 1 1 3 3 2 5v7c1 2 2 5 1 8h4l1 1-1 1-5 3-2 1-3 2-2 1 2-1 4-1 2-1 5-2h1l-1 2-9 4-5 3c2 1 4-1 6-1l6-3h3l-1 2-4 4-2 1-1 1-2 1 2-1 2-1h1l8-4c2 0 2-2 1-4l-4-19c0-2-1-3-3-5s-3-5-3-8c0-2 1-3-1-2-3 0-1-4-3-4l1-2v-2c-2-1-2-1-1-2l1-2c-3 0-3-2-2-4-3-1 0-3 0-5h-3v-2c1-1 1-2-1-3v-3c-4-1-1-2 0-3l2-1 2-1h-2l-1 1-3-1 2-2h1-1c-2 0-3 1-4-1v-4c3-3 3-3-1-3h-1c-1-2 0-5 1-6 1 0 3-1 2-2h-4v-2l8-4h2l-1 2c-1 1-3 1-3 3l5-1c1-1 2-4 1-6h-4l-4 2c-2 1-4 3-6 1l4-3 2-1 2-1 4-1 1-2-1-5-4 2-1 1-2 1-2 1h-1c-2 0-3 3-4 1-2-2 1-3 2-4l1-1h-1c-4 0-4 0-2-3l1-3 1-1h-1c-3 0-3 0-2-3h-2v4m8-12v1-1m6-9c-1 0-2 1-1 2 0 1-1 3 1 2l1-2c0-1 1-2-1-2m0 15-1 1h2l-1-1m-2 9-1 1h1l4-1v-1l-4 1m8 45v1h1c1 0 3 0 3-2l-1-1-1-3c-2 1 0 2 0 2 0 2-1 2-2 3m2-13Zm2 24v-6c0-1-1-2-2-1v2l1 5v1l-1 2h1l1-2v-1m0 10h-1l1 1v-1m-3-41-1-1-1 1v1l2-1m-1 18-3 1v1l3-2m0-23-2 1v1l2-1v-1m28 121-1-1c-2 0-4-1-5-3h-2v1c2 1 2 3 3 5l4 15c2 3 2 6-1 8v1h1c6-2 12-6 18-7v-1l-6 1h-1l1-1 7-2c3-1 5 0 7-2-6-1-11 1-16 2l-1 2c0 3-1 2-2 1l-1-1c-2-3-3-5-3-8 1-3-4-6-2-10m18 22c-8 1-15 4-23 7-1 0-3 2-4 0v-1l-1 1c-2 2 0 4 1 6 1 3 1 3 5 2a106 106 0 0 1 48-9c5 1 5 1 5-3 0-2 0-3-2-3l-4-1c-9-1-17 0-25 1m10-5h-1 1m3-16c-1 1-1 2 1 3 2 0 3 4 1 5-2 2-2 3 0 5l1 1c0 3 1 3 3 3h2c5 0 6 0 8-2 1-1 3-2 0-2-2 0-2-2-3-3l1-1 1-1c-3 0 3-4-2-3v-1c0-3-2-5 0-8v-1c-3 0-1-2-1-4l-1-1a304 304 0 0 0-10 3c3 3 0 5-1 7m17-2v-1 1m-64 5h-1l-1 1h1l1-1m0 6h-1 1s0-1 0 0m-1 1v-1 1m1 4h1l4-4v-1h-1l-4 3v2m4 1 1-1-1 1m-3 1c-1 0 0 0 0 0h1l2-1h-2l-1 1m1 3h2l1-1c1-1 2-1 1-2l-2 1-1 1-1 1m3 3 1-1 2-2-3 2h-1v2l1-1m-1 1c-1 0-1 0 0 0m4-23v-1l-1 1h1m0 27v-1 1m-3-3h2-2m0 1s0 1 0 0v-1 1m31-8h1l-1-1-2 1h2m6-8h-5l-12 3-2 1 2 1 16-4 1-1m-21-5h1l7-2h1l-1-1a252 252 0 0 0-8 3m0-3h1l-1-1-1 1h1m1 6h1l12-3h1l-1-1-12 3-1 1m13 0 1 1v-1h-1m-4 1c-1 0-1 0 0 0h1-1m-4 0v1h1l-1-1m-4 2h1v-1l-1 1m18-17-6 2c2 1 4 0 6-1v-1m-6 2-5 1 5-1m-5 1-4 1 4-1m-4 1h-4l-3 1h3l4-1m-18-11c0-2-1-2-3-1-6 2-12 6-19 7h-1c-1 1-3 2-2 4 0 2 1 3 3 3h2c7 0 13-2 18-5 4-2 4-4 2-8m-23 3v-1 1Zm7-3 1-1c4 0 7-1 9-4l2-1-2 1-9 4-1 1m12-15c-2-2-3 0-4 0l1 1v1l-3 2-12 6-1 1h1l6-3 8-4 1 1v1l-5 3-11 5c-1 0-2 0-1 1h1l10-4 8-4c2-2 2-4 1-7m-17 3-2 1 2-1m-2 4c5-1 9-3 13-6l1-1-1 1c-5 1-9 4-13 6m0-3h-1 1m2-4h1-1m2-1h-1 1m-12-57-3-4 2 5c0 1 0 2 1 1v-2m-1 29-1-1-2 2 2 6v1l1-1v-7m-2-11-1-1v2l1-1m2-24v-2 2m0 1 1 1-1-1m2 3-1-1 1 1m2 5 1 1-1-1m-1-2 1 1-1-1m0 10h-1 1m-1-13 1 3-1-3m-1 59 1 1v-1h-1m1-41 2-1 1-1h-1l-2 2m1 4 3-2v-1l-2 1-1 2m0 30c2 1 4-1 5-2l5-2c1-1 2-1 2-3-3 0-5 2-8 3l-4 4m5-10v-1 1m-2 13 1-1-1 1m-17-116v-6c1-3 0-5-1-8l-1-9c1-6-1-12-2-18v-2l-2 1-2 4-18 16-7 8-15 24a168 168 0 0 0-27 73l1 2 1-1 8-18 13-28c0-1 0-2 2-1v2l-10 23c-3 5-5 10-6 16v3l-10 21-1 1h1l13-12 2-1a288 288 0 0 0 44-52c2-2 2-4 1-7-1-1-1-2 1-2 3 1 4-2 4-4l4-8c2-2 3-2 5 0h1c0-2 1-2 1 0 1 10 4 19 7 29l3 9v-2c-3-8-4-17-6-26-3-8-4-17-4-27m7 71v1-1Zm-16-34c3-3 3-7 6-10v-5l-1-4-3 3-1 3c-2 5-5 11-4 16l-1 2-5 12c-1 0-2 1-2 3l3-3 7-9 4-8v-1h-1l-1 2h-1v-1m-6 4v-2l-1 1c-2 7-7 12-11 17l-1 1-1 1v1l-3 3-1 1-3 4-1 1v1l-1 1 1-1 1-1 1-1 2-3 1-1 3-4h1l1-1 1-1v1c6-5 9-11 11-18m-12 19 1-1-1 1m4 0 1-1-1 1m1-1 1-1-1 1m-31 27-13 14-1 1v1l-1 1 1-1 1-1 1-1 13-13 1-1h-2m-15 17s-1 0 0 0m-7 3v1l-1 1 1-1 1-1v-1l-1 1m-2 3 1-1-1 1m27-100c0-1 0 0 0 0m1-2-1 2 1-2m45-56Zm1-3h1-1Zm1-3h2l-2-1-1 1h1m-1 8c-1 1 0 2 1 3 0-1 0-2 2-2v-1h-3m5 23-1-1v1c0 3-1 5 1 8v-8m-1-6v-1l-2-4c-1 1 1 3 1 4v2l1-1m-2-29h-3c-1 1-2 0-1 1l1 1 3-1 3-1c-1-2-2 0-3 0m-1-4-5 1-1 1 2 1 4-1 2-1-2-1m0-3-5 1-2 1 2 1 6-2 1-1h-2m-35-63-2-1v1l2 1h1l-1-1m-7-7v2l1-2c-1-1 0-2-1-1v1m1 7c0-2 1-4-1-5l1 5m1 0v2-2m2-3 2 1v-1l-3-3h-1l2 3m23 58Zm6-5c4-1 4-2 2-6-5-11-9-21-10-33l-1-2c-4 0-8-2-11-5l-8-2v2h3l1 1-2 1h-1l2 1h3v1h-4l-1 1 1 1h5l1 1-1 1h-4l-1 1 7 1h2l-1 1h-6l1 1h6l1 1h-7l-2 1c0 2 1 2 2 2h7l-2 1h-5l-1 1 1 1h10c-1 2-3 1-5 2-2 0-4-1-4 1s2 1 4 2h5l-5 1c-1 0-3 0-3 2s2 2 3 2l2-1 6-1c-2 3-4 2-6 3-1 0-2 0-2 2l2 1h3c1 0 3-2 4-1-1 2-2 1-4 2l-2 2c1 2 2 2 3 1h1l5-1c-1 2-3 2-4 2l-1 1s-2 0-1 1l2 1 6-1h2l-1 1-6 1-1 1 2 1 6-2h1l-1 1-5 2-1 1 2 1c2 1 4 0 6-1m-1 10 6-2c2-1 3-2 2-4-1-1-2-3-4-3l-6 1-2 2 3 1h2l3-1-3 2h-2c-1 1-2 1-2 3 0 1 2 2 3 1m9 1c1 0 2-1 1-2h-2l-8 3v1l1 1 8-3M83 430h1l2-10 3-14 10-23 13-29 14-23c4-5 8-11 13-15l11-7h1l-1 1-5 5c-5 2-9 5-12 9l-19 28-3 7 4-5c4-7 8-14 14-20l21-22q6-5 2-12v-1c-2-3-4-4-7-2l-15 12c-6 6-10 13-15 20-1 1-2 2-1 3s0 2-1 2c-2 0-2 1-3 2-3 8-8 15-12 23-4 9-8 17-10 26l-2 15-3 27v2m-1 33 1-1-1 1m-6-26 1-1v-2l-1 2v1m-1 4h1-1m-3 19h1l1-2c2-5 6-10 6-17v-6l2-20v-1l-1 1c-1 6-4 13-4 19h1v8l-5 13-2 4 1 1m9 4 1-1-1 1m-6 3 1-1-1 1m3-2 1-1-1 1m-1 0h1-1m-1 1 1-1-1 1m-8 4c3-2 6-4 7-8l-2 1c-3 1-5 3-6 6l1 1m-6 5 1-2-2 2h1m-26 45v1l1-1 2-4 1-3c4-2 5-5 7-8l16-20 6-7c1 0 2-1 1-2h-3c-2 1-4 3-5 6-1 1-1 3-4 1l-3 3c-4 5-7 13-13 18-6 4-6 10-6 16m-7 24c-1-1-2-1-2 1l-6 15c-1 5 5 11 10 10h5c3-2 3-2 3 1l1 2 1-2c1 0 1-2 2 0 1 3 1 2 2 1 1-2 2-2 3 0 0 2 1 1 1 0 1-1 1-2 2 0 1 1 0 2 2 2l1-3v-1l1-1h1c0-1 0 0 0 0l1 2 1 2 1-2 1-2 1 2v2l1 1 1-1 1-5 1-1 1 1 1 1 1-1c0-1 0-3 1-2l1 3v1l1-1a393 393 0 0 0 1-25l1-2v2l-1 36v31a643 643 0 0 1 1 39v-2l1-11 1-45 1-13v-1l1 1v15l3 4c0 1 0 2 1 1v-1l-2-25c0-2-1-3-3-1l-3-2 1-12c0-1 0-2 1-1 3 1 2-1 2-2l-1-11v-4c-1-1-1-2-3-2-2-1-2 1-2 2s-1 2-2 1l-2-2v-2l1-10v-1l-1 1-1 17 1 3-2 2h-2l1-2c0-1 2-2 0-3-3-1-3-3-3-6l1-4-1-2v1l-2 13c0 4 0 4-4 3q-4-1-5 3v1c-1 2-2 3-4 1l-1-1c-1-1-1-2-2 0-1 3-1 3-3 2-3-1-3-3-2-5 1-3-1-4-3-4-3 1-4 0-6-2m51-26v2l1 2v-2l4-13c0-1 0-3 2-2 3 0 4-2 5-4l5-18c1-5 3-10 3-16v-3l-2-4-4 1a852 852 0 0 1-7 20l-7 37m7-44v-1 1m6 65v1-1m-10 39v-5l-1-1-1 1 1 6c0 2-1 4 1 5v-6m0-18 1-1 1-3 1-12q0-8-4-12l-2-1-1 2 1 21v2c3 0 3 1 3 3v1m2 17v3l1-1 1-2 4-27c1-3 2-7-1-11 0 0 1-2-1-2l-1 2v2c-2 11-1 23-3 34v2m1-101-1 1-3 11-4 21v2l1 1 1-1v-2l6-32v-1m-9 206c0-2 0-4-3-5l-2-1v3l5 9v2l1-2-1-6m-6 0 1-1-1-1-1 1 1 1m-2 1h-1l1 2 1-1-1-1m3-11v-2 2M31 525v-2 2m-6 6v1-1m-1 2 1-1-1 1m-1 2 1-1-1 1M3 614v-1 1m0-6-2 1 1 1 1-2m1 25H3l1 1v-1m11-68 1-3c2-1 3-3 3-5l6-15 5-15 1-2c-2 0-1 1-1 2-2 1-2 3-2 4l-4 9-1 1-1-2 1-4-2 4c-9 17-14 36-17 55l-2 9 1 2c2 0 1-1 1-2l2-8c3-10 7-20 8-30m2 119 2-2v-1l1-1v3c-1 1-1 2 1 2 4 0 8 1 11-3l6-5 3-1c2 1 6 5 6 8-1 2 1 2 3 2 6-1 12-4 17-8l2-4c2-5 2-10 2-15v-26c-2 2-6 1-6 3-1 3-4 2-6 2v-2l-1-1v1l1 2c-3 2-4 2-4-1l-1-3-1-8v-1l-1 1v2l-1 11-1 2-1-2v-10l1-6-1-1-1 1c0 2-2 4-1 7l-1 8-2 1c-2 0-1-1-2-2v-6l-1 1-1 4-2 2c-1-3-4-3-4-6l1-27 1-5v-1l1 1v9l1-2 1-2 2 2h1c1-1 2 0 2 1v2l1 2 1-1c0-2 1-4 3-1h2c1-2 2-1 2 0l2 5 1 4c2-1 1-3 1-4v-3c0-1 0-2 2-2 2-2 6-2 5-6 0-2 1-3 3-2 1 1 1 0 1-1l2-8 1-16c0-2 0-5-2-5s-1 3-1 4l-1 3c-2 1-2-1-2-2l-1-1v2l-1 3-1 2-2-1v-2h-1v3c-1 1-1 2-3 2l-1-2v-3l-1-1v2c-1 4-1 4-4 3h-6c-3 0-6 1-10-1l-3-2c-2-1-5-3-6-2-4 2-5 0-7-2-3-2-3-2-4 1l-4 12c-1 3-3 6-1 10l3 4c3 2 3 0 3-2l1-1c1-1 2 0 2 1v5l1 1 1-1 1-2 1-3c2 0 1 2 1 3v2l1-1 2-1v2l2 12v18l-1 2-2-2-1-2-2-1h-2c-2 1-3 0-3-2v-7l-1-14v-2l-1 2 1 18c0 4 0 4-5 4-3 0-3 0-2 4l7 21 8 21h-2c-4-3-9-5-11-11l-1-2H8v1l5 15c1 2 2 3 3 2m-5-61v-8l-1-1-1 1 1 8 1 2v-2m8-2h1v-5l-1-2-1 1v13l1 1v-8m0 11Zm49-27v1h1l-1-1m-18 15h1-1Zm12 81-1-6-1 6v29l1 6v2-1l1-19v-17m-3 40v-6a322 322 0 0 0-5-41c-1-1-1 0-1 1v8l2 15 3 24 1 4v-5m-17-38 6 14 8 32 1 2c1-5-1-9-1-13 0-6-3-11-2-16l1-2-2-12-2-8c-1-3-3-3-4-2-3 0-2 1-2 3v1l-2-8 2-4-2-4c1-3-1-5-3-7h-2l1 2c2 2 2 4 1 6-2 3-1 6 0 8l2 8m-3-3 1 1-1-1m0 33v1-1m-6-5-1-1v1l7 13 1 1v-2l-7-12m8 5v-2c0-4-2-7-3-10l-6-22-1-2c-2 0-1 2-1 3v2l5 15 5 14 1 2m-7-44v-1c0-2-1-2-2-2l-2 4 1 3c2 0 3-2 3-4m-1 6a87 87 0 0 0 3 14l1-1-2-14-1-1-1 2m15-3v-1 1m3-1v4l1-1v-2c0-2 1-3-1-3s0 2 0 2m7 60v1-1m2-63v-2l-1 2v1l-1 5-1 4 1 1 1-1 1-10m-32 2-1 1h1v-1m-3 0s-1-2-2-1l-3 1c0 2 2 4 3 3 1 0 2 0 2-3m-3 40v-16l-2-11-1-1-1 2v2l1 23 2 22 1 1v-22m-4-37 1-1-1-1h-1l1 2m5 84-3-21c-3-17-4-34-4-51v-4l-1-1-1 1v14l2 28 6 36 1 1v-3m3-67-4-12-1-2-1 2 2 8c1 2 1 4 4 4m0 3v-3 3m1 3v-3 3m1 2-1-2 1 2m0 0 1 1-1-1m10 14 1 1-1-2-1-4-7-20-3-10-1-2c-2 1-1 1 0 2v1c-2 1-2 2-1 3 3 11 7 21 13 31m1 27-1-5-5-19-1-1v3l5 22 1 1 1-1m2 10v-5l-1-1-1 1c0 2 0 5 2 7v1-3m7 16v1-1m-4-26-5-14-1-1v2c4 11 5 23 9 34v1l1-2-4-20m17 14-3-10c0 1 0 1 0 0v-2c-4-19-10-38-17-57l-1-2v2l6 19 10 36v1l-1-1-2-6-13-44-1-3v4c1 10 4 19 6 29l8 21 6 14 2 1v-2m2-7-1-13-1-1v1c-1 4 0 9 1 13 0 2-1 4 1 5v-5m0-56v-1 8l1 44 2 13 1 1v-3l-1-22-1-21-2-19m21 51-8-29c-2-8-5-15-5-23l-2-6-2-9-1-3-1 4 1 3 4 24c3 14 8 27 12 40l1 2c2-1 1-2 1-3m-13-52 1-1-1-1v2m2 8 1 3c0-1 1-3-1-3m-1-4 1 4c0-2 1-3-1-4m0-3v3-3m2 12 1-1-1-1v2m11 29-1-17-4-19c-1-9-2-19-5-28l-1-3-1 3 3 21-1-2-2-16c0-3-1-6-5-6h-2c0-2-1-1-2 0l-1 2-1 2c1 1 1-1 1-1l2-3h1l2 4 11 45c2 6 5 12 5 18l1 2v-2m3-15v-1l-1-11c0-10-1-20-4-30l-3-13-1-1-1 2 1 10 7 45 1 3 1-4m-9-65c0 1 0 0 0 0m1 4 1 2 1-2-1-2-1 2m9 59v-1l-1 1h1m0-7v-1l-1 1 1 1v-1m0-15-1-24-4-8-2-1v2l1 5c2 1 2 3 2 4l3 31 1 1v-10m1-31-1-2-2-3c0-1-1-2-2-1v2l4 4 1 1v-1m-1-4 1-2-1-1-1 1 1 2m4-16v-2l-5-34-2-9-1-1-1 1v8c0 2 1 4-2 4-2 0-2-2-2-3v-1c0-1 0-2-1-1h-1v3l-2 15c0 8-1 15-3 22 0 2 0 3 3 3l8 2c4 2 9-2 9-7m0 11s0-2-1-1l-1 2 1 1 1-2m2-2 1-1-2-2-1 1 2 2m8 14 1 2-1-2m0-2-1-2-4-6v-1 1l3 7 1 1 1 2v-2m-7-4 1 3 5 15c4 13 8 26 9 40l2 12 1 1 1-1c3-7 5-13 2-21l-19-47c0-1 0-2-2-2m9 9-1-1 1 1m17 72c1-1 0-1-1-2l-3-3h-2c-1 2 0 3 1 4 0 2 1 3 3 3l2-2m-1 8c-1-1-1 0-1 1v1l1-1v-1m-6-1 3-3c-1-1-3-4-4-3-2 0-2 2-2 3 0 2 1 3 3 3m-4 1-2 1c0 2 0 3 2 3l2-3-2-1m6 7h1l1-2-1-1-1 3m5-10v1l1-1h-1m1-7h2l-1-1-4-2-1-1 1 1 3 3m1-5-3-7-1-1v1l-1 1c0 3 2 6 4 7h1v-1m-6 0 1 1-1-1m-8-15c-3-18-8-36-14-54v-2l-1-1v3l10 39 4 17 1 1 1-1-1-2m-14-60v1-1m14 84c2-1 2-4 2-5l1-2-1-2-10-36-6-24-1-3v3l2 17c2 16 5 32 10 47 1 2 1 5 3 5m-5 12 2 2c1 0 2-1 2-3l-2-1-2 2m-8 15h1-1m0 7v-1 1m-2 2-4 9v3c1 1 2 0 3-1l5-1 2-2-4-8h-2m-6 9-1 1h1v-1m-1-4-1 2-1 1h1l1-1v-2m1-1-1 1 1-1m2 1-2 4 2-4m2-9 1-2-1-1-1 2 1 1m-1-7h1l1-1v-1 1h-1l-1 1m-1 15s1 0 0 0m-2 0 2-5-2 5m-3 1c2-1 2-3 3-5v-1l-1-1c-1 1-3 6-2 7m-1 21v1c2 1 3-1 3-2v-2c-2 0-2 2-3 3m-9 9 1-1-1 1m-1 3 1-3-1 3m-1 5c1-2 2-3 1-5-1 1-2 3-1 5m0 5h1v-1l9-21v-2l-1 1-4 10-4 12-1 1m3-15v1-1m-1 18s-1 0 0 0m0-1c2-1 2-3 3-5l6-13v-1c-1-1-1 0-2 1l-5 13-2 5m8 9c-6 1-12-5-13-12 0-7 3-14 7-20 2-4 6-6 6-11 2-2 1-4 0-6l-2-2-1 2-6 17-5 15c-3 4-3 8-2 12a140 140 0 0 0 10 29c1 2 3 2 4 0l1-2 5-17c1-5 1-5-4-5m7-10-1 1-5 6v1h2l3-6 1-2m1-1-1 1 1-1m0 0 1-2-1 2m3-11v2-2m1-1 1-2-1 1-1 2 1-1m1-4v2l2-3-2 1m4 2-1 1c-1 2-3 4-3 7l-1 1 1-1 4-6v-2m-1-16-8 3-2 2-11 26-2 4c0 2 2 3 3 4 2 1 3-1 4-2l4-8 9-15 2-6c1-2 3-4 3-7 0-1-1-2-2-1m8-21c2 0 0-3 1-4l2-1c1-2 1-3-1-4l-2-1h-1 5l-1-1c-1-2-2-4-5-6l-2-1-1 1c-4 3-4 10-1 14 1 2 3 3 6 3m0 1h-1v2l7 2 2-1-2-1-6-2m4 15-3 2-1 2 1 2 1-1 1-2c0-1 2-2 1-3m4-9h-3l-6-2h-2l3 5 5 1 3-2v-2m4-13c-1-1-3-2-4 0-3 0-4 1-3 4l-1 2c-1 1 0 1 1 2l3-1c1-1 1-1 1 1l1 1 1-1 2-6c1-1 1-2-1-2m0-7-4 3c0 3 2 2 3 2 3 1 3 0 4-2 0-2-1-3-3-3m4-5-1-1-1 1-1 2 1 2 1-1 1-3m3-6-1-1c-1 1-2 1-2 3 0 0 0 1 0 0 1 0 3 0 3-2m-1-16Zm2 12-1-1-1 2h1l1-1m4 0-1-1-1 3h1l1-2m2-5-2-2-1 1 1 2 2-1m2-7h-1v1l1-1m4-11Zm0-5-4-2-9-2c-2 0-3-1-3-2l-1-2v4c0 1 0 4 2 6 3 1 6 3 10 3h1c1-1 0-1-1-2l-2-1-6-2c-1 0-3 0-2-1h2l12 3 2-1-1-1m2-4c1-1 0-1-1-1-4-2-8-1-12-2h-3l2 2 12 2c1 0 2 1 2-1m1 3h-1l1 1v-1m3-11-1-1c-3-3-8-4-12-4-5-1-5-1-6 3s0 7 4 6h8c1 0 3 1 3-1l-2-1h-3l-6-2c-1-1-3-2-2-3 1-2 3-1 4-1l6 4c2 1 4 2 6 1l1-1m-12-2h-3c-1 1 1 1 2 1l2 1h1l-2-2m11-1v1l1-1h-1m6-5-2-1-17-1-1-1-2 2 1 2h2l13 2c2 0 4 1 5-1l1-2m-16-12 1-1h-3 2v1m-3 0c-1 1 0 1 1 2a1348 1348 0 0 0 15 4l-2-1-5-2-6-3-2-1-1 1m-1 3v1l6 2h1v-1l-6-2h-1m-1 3 1 2 3 1 9 1h4l1-1h-1l-15-4-2 1m29 2-1-1h-6l-2 1 2 1 6-1h1m6-7-14 2-2 1 1 1h4l8-2 3-2m2-4h-1l-5 1c-6 2-11 0-16-2l-8-5-2-1c-2 1-2 6-1 7 4 2 8 5 13 5 7 0 13-2 19-5h1m-24-11v1-1m0 0-1-1v-1l-3-2h-2c-2 1-2 5 0 7 7 7 16 9 26 8l1-1-1-1c-8 0-13-5-20-8-2 0-2-2-3-3h1a74 74 0 0 1 2 2m28 7h-1l-2 1 1 1 2-2m4-8c-1-1-2 0-3 1 0 0-1 2-2 1-2-3-3 0-4 1s-1 2-2 0c0 0 2 0 1-2 0-1-7-2-8-1 2 3 0 2-1 1l-8-5-3-2c2-1 2 0 3 1 5 3 10 4 15 4 3 1 4-1 6-3 1-2 0-3-2-3l-6-1c-3-1-1 3-3 4v1h-2v-1c0-2 3-3 1-4l-3 2h-1v-4c-1-1-1 0-2 1v1h-2v-2l1-1v-1h-1c-2 1-2 1-2-1v-2c-2 1-2-1-1-2l-1-2-2 1-3 5c-3 5-3 7 2 11l4 3c4 3 8 5 14 5h5-5l-3 1 2 2h2c5-1 10-2 14-5 2-2-2-2 0-4m-32-22 1-3-1 3m36 28v2l1-1 10-11 2-4-1-1-1 1-11 14m10-22 1-1h-1v1m-12 24-1 1 1 1 1-1-1-1m0 10 11-15v-1h-2l-10 12c-1 1 0 3 1 4m2-19v-1l-1 1v1l1-1m0 21 2-3 2-4 2-2 1-1 2-3v-1l3-3c-2 0-2 2-3 3l-1 1-2 2-1 1-1 3-3 4-2 2-1 3 2-2m10-21h1-1m-8 1c1 1 1 0 1-1l1-1h1-1l-1 1-1 1m1-5v-1 1m6-8-1-1-4 4 1 1 4-4m-5-4-2 2 2 1 2-2-2-1m-2 7h-1v1l1-1m0-2h-1l-2 2v2c1 1 2 0 2-1v-1l1-1v-1m-1-5-1-1-2 3v1c1 0 3-1 3-3m-4 14-1 1h1l2-3v-1c-2 1-2 2-2 3m-5 1c2 0 2-1 2-3-1 0-2-1-2 1v2m-5-8c0 2 2 2 3 2s4-2 4-4l-4-2c-1 0-3 2-3 4m0-4-1-1c-2 0-4 2-4 4l2 2c1 0 3-3 3-5m8 6c2 0 2-1 2-2l-1-2-2 3 1 1m2-10-3-2c-2 0-3 2-3 4s1 2 2 2c2 0 5-2 4-4m-6-2c0-2-1-2-2-3l-3 5 2 2c1 0 3-2 3-4m-6-5c-1-1-1 1-2 1l-2 7-2 1c0 1-2 2-1 4l3-2v-3l2-1 3-4c1-1 1-2-1-3m-4 12v-1 1m2-14h-1c-1 0-4 4-4 6h2l3-6m-4-3h-2l-3 6 2 2 1-1 2-6v-1m-5 9c-1-1-1 0-2 1v3-1l3-1c1-1 0-2-1-2m0 3 1-1-1 1m1 3 1-1 1-2-2 1v2c-1 0-1 0 0 0m2-18-1-1h-1l-4 8v1h2l4-8m-2-4-1-1-5 9v1h1l5-9m-5 18v1-1Zm1-4-1 1 1-1m-2-3-1 1-1 1c0 1-2 3 1 3l1-4v-1m-2 1h1-1m-3 3v1-1m2-3h-1 1m31 56 1-1 10-15 9-10 2-2-2-1c-2 0-3 2-4 3a148 148 0 0 0-16 24v1m25-44v1h1l4-4 1-1v1l-2 3-1 1h1c1 2-2 2-2 4 4-1 6-3 8-7 1-2 0-3-2-4-3 0-7 2-8 6m8-12-1 1 1-1m7 14-1 1 1 1v-2m1-3 1-2v-1l-1 2v1m-3 10 1 1 1-2v-1c-2 0-2 1-2 2m0 4v1h1l-1-1m1-17-1-1-1 2 1 1 1-2m-3 6v1c2 0 2-2 2-3v-1l-1 1-1 2m-1 5h1v-1l-1 1m1 3-2 3 1 1 1-3v-1m-26 31v-1l1-1 1-1v-1l2-1 1-1v-1l5-6 10-10 2-3v-1l-1 1c-4 4-9 8-12 13l-4 5c-2 1-3 2-3 4l-1 1-1 1v1m19-26c2 0 2-2 3-3-2 0-2 1-3 2v1m-21 31 1-1-1 1m1-4-1 1 1-1m0 3 1-1-1 1m1-3h-1 1m0 2v-1 1m2-3-1 1v1l1-2m0 0 1-1 1-1 4-4 1-1 1-1v-1l1-1 12-12 1-1c-1-1-1 0-2 1-4 3-8 7-11 12h-1l-1 1-1 1-1 1-2 2-1 1v2l-1 1-1 1m14-36v-1 1m-1 1v-1 1m0-10v-1l-1 1v1l1-1m-2 17v2h2l8-7 1-3-1-1h-1a434 434 0 0 0-9 9m0-10-3 4h1l2-3v-1m-2 7-1 1v1c1-1 2-1 1-2m1-13c-3 2-4 5-5 7v2l1-1c2-2 4-5 4-8m-6 14h2v-2l-1 1-1 1m-16 41 1-1 1-2c6-9 12-17 19-24l5-6v-1h-1l-1 1a123 123 0 0 0-24 31v1m0 6 4-5 1-2c2-1 3-2 3-4-1 1-3 1-3 3l-2 3c-1 1-3 3-3 5m-1 85s-1-1 0 0m-1 4h1l1-2-1 1c-1 0-2 0-1 1m0 3 1-1h-2l1 1m2 11h-1l-1 1h1l1-1m0-2h-1 1c1 0 0 0 0 0m2-20h-1c-1 0-3 1-2 2v1h1c1-1 2-1 2-3m1-3h-3v1c1 1 2 0 3-1m0-6c-1-1-1 0-1 1-2-1-3 1-3 3v1c2 0 3-1 3-3l1-1v-1m1-6-1 1-1 1-1 1v1l2-1 1-1v-2m1-8h-3v4h1l1-1v-2l1-1m-2-3h1l-1-1v1m1-8 2-1-1-1-2 2h1m6 1v-1l-3 1-4 2c1 2 3 0 5 0l2-2m15 4c-2 1-3 4-4 6v1h2l2-7m1-3h-1v3l1-3m3 0h-1 1m12-86 1-3-1-2-1 1c-10 7-18 16-26 25-4 5-9 10-12 16v1h1l5-5 12-14c1-1 2-3 4-3l-3 4-14 16-1 1-1 1-1 1-1 1 1-1h1l1-1 1-1 12-12 4-3-4 5-13 15-1 1 1-1 2-1 10-9 1-1v2l-11 11-4 5 13-11 1-1v2l-11 11c-2 2-4 3-4 5 2 0 4-3 5-4l8-6-5 5-7 8v1l1-1 3-2c2-2 3-4 6-5h1v1l-5 5a2254 2254 0 0 1 0 2l1-1 2-1c1 1 0 2-1 3l-1 2-1 1 1-1 4-2v1l-2 2-8 7v1-1l8-4h1l-1 1-5 4-1 1 2-1v2l-5 3v1h1l4-1c1 3 3 1 4 1h10c3 0 4-1 4-4l1-5 8-37 5-31m-34 72-1 1 1-1m2-10c-1 0-1 0 0 0m1 1v1-1m38-80-1-1h-1v1l-5 22 1 1v-1c3-7 4-15 6-22m-4-2h-1 1Zm4-3v-1 1Zm-11-11 13-18c1-1 3-2 3-4h-2l-17 22-1 2v1c-1 3-1 3 2 4h10l3-2a852 852 0 0 0 2-13l-1 1-1 1-4 5 3-6c2-3 4-5 5-9-2 0-3 2-4 3l-10 13-1 1v-1m17-29-1 1-22 27-4 5v1c2 0 2-1 3-2l20-24 4-6v-2m-13 9c2 0 2-1 2-2l9-12v-2l-1 1-8 12-2 3m13-13-1 2 1-2m-2 3-1 1 1-1m0-1h1-1m-2 3 1-1-1 1m-2 3c0-1 0 0 0 0m7-9-1 1 1-1m31-98v-2l-1 2-1 7v3l-1-3c0-2 1-3-1-4l-11-2-18 3-12 3c-4 2-9 0-13 3-2 1-3 0-3-2l-12-30-1-3c0-3 0-3-2-2-6 3-10-1-12-7v-1l-2-13-5-34-2-47-2-13-2-4c1-3-1-7-1-10v-1l-1 1c-1 5-1 10-3 14-3 10-10 17-17 24-8 8-18 15-26 24l-18 18c-13 11-25 24-36 37-7 8-11 16-17 24-2 2-2 3 1 4 2 1 2-1 2-2 1-1 1-2 2-1l1 1-1 5v5c2 0 1-3 2-4v-2l1-3c2 1 1 3 1 4l1 1v-1c1-3 2-5 4-2l1 1c3-2 2 0 2 1l1 3v2l1-2 2-9 1-1 1 1 1 4v1l1-1 2-5 1-1v1l1 1v1l1-2 1-2c3 0 2-1 3-3l1-12 4-19c3-8 6-15 12-21 1-1 2-3 5-2 2 1 4 2 4 5v2c0 5 0 9-2 14-2 8-5 16-6 25v2l1 6h1c0-2 3-1 3-4 2-8 5-16 5-24l1-7 1-1c2 2 2 0 3-1l9-33c0-2 1-4 4-6l4-3c5-6 12-11 18-16a52 52 0 0 0 17-20l2-1v2c-3 4-3 9-6 13-5 10-11 20-19 29l-12 16c-8 14-13 29-17 44-1 3-3 6-6 7l-1 2-7 33c-1 4 0 8-2 11l-2 7-4 25c-2 7-3 15-2 22 2 7 4 14 4 21l5 27c0 7 2 13 5 18 5 8 8 16 11 25l10 31 1 1c0-2 4-2 4-4-1-3 0-6 2-8l1-4c1-7 2-13 5-19l13-38 3-8 1-1v2l-4 11v1l1-1 5-10 2-3h1v2c4 9 10 15 19 18l8 2 4 2h-4c-2 0-4-2-6-1 2 2 4 2 6 2l6 1h3l-1 1 1-1c2-1 2-4 4-6 7-5 13-12 18-20 8-13 17-25 28-36 10-11 18-24 18-40v-16l3-24m-156-50v-2l-1 3v1c2 0 1-2 1-2m0 20 1-7v-5c-2 2-1 4-2 5 0 3-1 5 1 7m3-11 2-4c2-7 4-15 8-22 3-4 6-8 7-12 2-5 6-9 10-13a192 192 0 0 0 20-29l-2 1-4 6-17 20c-5 6-10 12-13 19l-1 1v-4c2-5 6-9 9-14l18-20 1-1h-1l-22 18c-3 3-5 6-5 10l-7 24c-2 5-4 10-4 16 1 1-1 3 1 4m157 28v-1h-1v1h1m0-20v-8l-1-1c-1-1-2 0-2 1v3l2 13 1 1v-9m2-43v1-1m0-30 3-1 2-2h-3l-1 1c-1 1-2 2-3 0-1-1 1-1 2-2l5-2 1-2h-2l-5 3h-1c-2 1-3 0-1-2v-1c-3-3 1-4 3-5l5-2c1 0 2 0 2-2h-2l-6 2c-2 2-4 3-6 2v2l2 14 1 4 1 1c2-1 1-3 2-5-3-2 0-3 1-3m-4 38a187 187 0 0 0-7 3l1 1h2l4-2c1 0 2-1 1-2h-1m2-27v-1l-1 1h1m-2 32-1 1h2v-1h-1m-2 5 1 1c1 0 3 0 4-2l-1-1c-1-1-2 1-3 1l-1 1m5-34h-1v1l1-1m-13 18 2 1 7-2c1 0 2-1 1-2l-2-1-7 2-1 2m7-6 1-1-2-1c-2 1-5 1-6 4l7-2m-4-19-2 1c-1 0-2 0-1 1l1 1 5-2c2-1 1-2 1-4 0-1-1-2-3-1s-4 1-5 3l4-1 1 1-1 1m-13-34-1 1h2c1-1 3 0 5-2-2-1-4 0-6 1m3-3 1-1v-1l-1 1v1m9-6 9-4h-4l-15 4-5 4 15-4m-4 4c1 1 5 1 6-1l3-3-9 3v1c-1 0 0 0 0 0m5 18h1v-1h-1v1m-2 10v1l2-1h-2m2-3-1-1-6 2v1h1l5-1 1-1m-8-5c2 1 4 0 6-1v-1l-6 2m5-13v-1l-1 1 1 1v-1m-6 16 2 1 6-2v-1l-6 1-1 1h-1m8-12-1-1h-1l1 2 1-1m-4-8v1h1l-1-1m0 13 1-1-1 1m0 0c-1 0-2-1-3 1l3-1m-3 1h-1 1m-2 19c4 0 7-3 11-3 1 0 2-1 1-2h-2c-3 2-7 2-10 5m12-14-1-1v1h1Zm-9 17 3-1-3 1m25-11v1l1-1v-1l-1 1m1-3h1l-1-1h-1l1 1m-1 8 1-1-2 1h1m-1-13c-2-1-3 1-4 1v1c1 0 3 0 4-2m-2 24h1l5-1-1-1c-1-1-3 1-4 1l-1 1m0-10-1-1v1h1m1 55v-1l-1 1h1m14-12h-12c-6-3-7-2-6 4v5c0 1 0 2 1 0 2-2 4-2 5-1 5 3 10 1 14 0 3-1 3-2 2-5-1-4-1-4-4-3m-10-23c-2-1-4 1-5 1h-1v1l1 1 5-3m-1 4-4 2c1 1 4-1 5-1l-1-1m1-8c-2 0-4 0-6 2 3 0 5 0 6-2m-6 2v1-1m12 21 3-1-3-1-3 1c-2 0-5-1-5 1 1 2 3 2 5 2 0-2 1-2 3-2m3-12s0 1 0 0m-1-26v1-1Zm0 20h1v-1h-1v1m-3 10h-1l-1 1h1l6-1h-5m-3-38h2l1-1h-2l-1 1m0 4v1l2-1h-2m-6 33h4l2-1 1-1h-1l-6 1m4-17c-3 0-5 2-7 3l-1 1h1l8-3v-1h-1m0-8-5 2h1c2 1 3 0 5-1v-1h-1Zm0-24Zm0 21h-3l-1 1-1 1h3l2-2m-1-16v1l1-1h-1m-3-20-12 4c-2 1-3 2-5-1h-1v1c2 5 3 11 6 16v-1c0-5 0-5 5-6l8-3 1-1-1-1-10 3c-2 1-4 3-5 1 0-2 2-2 3-3h-1l-3-1c0-2 2-2 3-2l2-1 11-2 2-2c-1-2-2-1-3-1m2 5-1-1c-2 1-5 1-7 3 3 1 5-1 7-1l1-1m-6-6h1l1-1h-1l-1 1m3-1h2l-2-1-1 1h1m3-4h-2l-9 1-2 2 12-2 1-1m-3-6-9 2c-7 1-15 3-22 6h-6v-1l5-2-11 2-29 5c-1 0-4 0-4 2 1 3 3 1 5 1l12-3h1l-1 1-13 4c-2 1-3 2-3 4l1 12c0 3 1 5 5 2-1-1-3 1-3-1l3-1 2-2-4 1-2-1h1a1379 1379 0 0 1 12-2c-2 1-3 2 0 3l2 1c2 1 1 2 0 2l-1 2h1c2 0 3 1 3 3l-2 2-1 1h2c3 1 3 3 5 4v5c-1 3 1 4 2 6l1 5 1 5q3 2 0 4v1h2c2 0 3 0 2 2 0 2 1 1 2 2 1 0 2 1 0 2s-1 3 0 4l4 7c1 2 2 4-1 4l-1 1c0 2-1 2-3 3h-5c-4 1-9 1-13 3h-3v-3a367 367 0 0 1-16-89c-3-13-5-26-6-40l-1-12c0-3 0-4-3-3-2 1-3 2-3 5l3 32 4 20a355 355 0 0 0 20 101c1 3 2 4 4 4 6-1 12-1 17-3l12-2 23-4c5-2 6-4 4-10l-2-1c-7 5-15 6-23 6-10 0-20 0-29 5-1 0-2 1-3-1l2-2 11-3a127 127 0 0 1 27-2c1 0 2 0 1-1-1-3 1-5 2-7s1-3-2-3l-1-1 1-2 10-3 4-2v-1l-1-1c-3 1-5 1-7 3l-4 1c-2 0-3 0-1-3h-1c-2 0-2-1-2-3l2-1 3-2-3-1c-1-2 1-2 2-3h1l8-3 1-1c0-2-1-1-1-1h-2l-7 4h-4c-1-1 0-1 1-2l9-4c1 0 4 0 3-2l-3 1-9 3c-1 1-3 2-3 0-1-1 1-2 2-3l3-1 8-2 2-2h-2l-9 3h-4l-1-5h1v-1c-5-1-1-3-1-4-1 0-3 0-1-2 2-3 0-5-1-6-2-4-1-7 1-9h-5v-3l2-1 9-3 1-1-1-1-9 2h-1v-1l9-3 1-1h-2l-9 3-2-1c0-2-1-2-2-3v-1l5-5h-4l-1-1v-1l3-1c8-3 17-6 26-7l2 1-2 1 8-1c1-1 2-1 2-3-1-1-2-2-3-1m-83-25h1l7-4-7 2-1 2m4-5 3-2-3 1c-2 0-4 0-4 2l4-1m3 7h1-1m-3 3h-2l-2 3 1 1s1 0 0 0c0-2 1-2 2-2 0-1 2-1 1-2m-2 13v1h1l-1-1m-2-15 4-1h-4v1m16 59-5 2-1 2 2 15 2 2 13-4 1-1h-2l-6 1-3 1h-1v-2l4-2-6 1-1-1v-1l3-1 7-2 2-1h-3l-4 1-5 1h-1l1-1c2-1 4-1 5-3h-4c-1 1-2 2-3 1l2-2 6-2c1-1 3 0 4-2l-7 1c-1 1-3 2-4 1 0-2 2-2 3-3h1l1-1h-1m2 6v1h1l-1-1m6-4h-1 1m-3 11v1h1l-1-1m1 40-1 1 1 1c5-3 11-3 17-5h1l-2-1-16 4m18 1 1-1h-1c-6 1-12 1-17 3h-1l-1 2h2l12-3 5-1m-17 6-1 1 2 1 12-4c-4-1-9 1-13 2m-3-9 1 1c4-2 8-2 12-5-5 0-8 2-12 3l-1 1m1-4 12-3c-5-1-9 1-13 2v1h1m14 0h-2 2m-2-7-2-1-12 3-1 2h2l12-3 1-1m-1-5-2-1-9 2c-1 0-3 0-2-2v-1l-2 1c-3 1-1 2-1 4 0 1 1 3 3 2l11-4 2-1m-9-2h-1 1Zm5-1h-1 1m0-4-1-1-10 2h-1c-1-1 0-1 1-2l7-2 1-1h-1l-6 1c-1 0-2 2-3 0l3-2c1-1 3 0 4-2l-5 1-2 1-2 2 1 5a426 426 0 0 0 13-2h1m31-62h1l-1-1-1 1h1m3-1h1l1-1h-1l-1 1m21-17Zm-5 12c-3 1-7 1-10 3l-4 1 15-2 3-2h-4m3-5v-1h-3l-14 3-13 5a44 44 0 0 0-12 3h-1v-1l5-2c2 0 3 0 4-2-1-1-3 0-4 1-2 0-5 2-5 0-1-1 3-1 4-3h1v-1l-1 1h-4l-1-1h1l12-2c2 1 5 0 7-1l-6-2c-2-1-2-2 0-4l5-2c2-1 5-1 7-3h-4c-2 1-3 1-3-2v-1c-2-1-3-2 0-4v-1c-4 0-1-4-3-5-2-2-3-5-1-7 0-2 0-2-2-2l-2-2c-2-1-2-3-3-5-1-4 0-6 4-8l3-1 2-1h-2l-9 1h-2c-1-1 1-1 2-1l3-1v-1h-1l-5 1-15 5h-2l1-1c3-2 6-4 9-4l13-4 1-2-4-12c-1-2-2-2-4-2-5 0-9 1-14 3l-24 9c-8 2-17 4-25 2h-2c-2 0-2 0-2 2l2 10v8c0 1 1 3 2 1l5-2c9-2 18-2 27-5l7-1 5-1 2 2-1 1-3 1-14 3-4 2h4l8-2 3-1 2 1-1 1-11 2c-7 2-6 0-6 9 0 3 1 3 4 2l9-2c2 0 2 0 2 2 0 1 2 2 1 3-3 0-2 4-5 5l-2 1c3 0 2 0 2 3l-2 4-2 1h4v2c-3 1-1 3-2 4h2v2l-2 3v1l2-1c1 1 0 1-1 2s-3 1-2 3l3-1h1v1l-4 3 4-2 2 1-1 1-4 2-2 2c1 2 2 1 3 1h4l-3 1-1 1 1 1 5-1 15-3 10-2 3-1c1-2 3-2 5-3l30-7 3-1v-1m-72-21h-1 1m42-33 2-1h-3l1 1m3 7h1-2 1m0 3v1-1m3 37-3 1 1 1c1-1 3 0 3-2h-1m0 6c1 0 3 0 3-2-1 0-2 0-3 2m-7 3v2h2l8-4-10 2m11-6-1 1 1-1m0 4h-1 1m10-3c3-1 6 0 8-2a15 15 0 0 0-9 1l1 1m8-8c-2 0-1 1 0 2l-1 2c-2 1 1 1 1 2 3 0 1-2 2-4l-2-2m-2-6c-5 0-10 1-14 3-2 1 0 1 0 2 3 1 5-1 8-1l6-1v1l2 1v-4c0-1-1-2-2-1m1-4-2-1-3 1a715 715 0 0 0-13 4h2l15-3c1 0 2 0 1-1m-9-18h3c1 1 0 3 2 3l-1 1-2 1-13 3-1 2h1l9-3 6-1 2 2-2 1-11 3-4 1c1 2 3 0 4 0l5-1 7-1 1 1-1 1-13 3c-1 0-2 0-2 2h3l14-3c2 0 2-1 2-3l-3-11c-2-4-2-4-6-1m-10 5h-1v1l1-1c1 0 2 0 1-1l-1 1m1-3 9-2c-3-1-6 0-9 1v1m10-8-14 4-2 1h1l16-3 1-1-2-1m-1-2c-5 0-10 0-15 3l15-2 1-1h-1m-14 0 13-3h1l-1-1c-4 1-9 1-13 4m9-10 2-1c0-2-1-3-2-3l-2 4h2m-10-14c-1 0-2-1-2 1l2 5c1 1 4 0 4-1 1-1-2-5-4-5m1-5-7 2c-2 0-3 1-2 3l3 10c0 1 1 2 3 2l4-2 5-1c-1-2-3-1-5 0-5 1-5 0-7-4v-4c0-2 0-3 3-4h3l1-1-1-1m3-11-2-1 2 1m77 213v1-1Zm0-5v1-1m5 58-1-2-1 2 1 18 1 1v-19m0-10c0-10 0-20-2-30l-1-1v10c0 7 0 14 2 21v1l1-1m2-33c-1-5 0-11-3-16l-1-2-1 2 2 17c1 2 0 5 2 7l1-8m0-16 1-3v-3c0-1 0-3-2-3l-1 3v3c0 1 0 3 2 3m2 37-1-1-1 1v20l1-1 1-19m1-29v-1l-1 1v22l1 2v-2l1-9c1-4-1-9-1-13m5-8-2-2c-1 0-3-2-4 1 3 1 2 3 3 5l1 9v1l1-1 1-13m0-5 1-1v-1l-1 1v1m5 75-1-1v1h1m1-31-2-36c0-2 1-5-1-5s-2 3-2 4v26l4 22 1 2v-13m1-45-1-1v1l1 1v-1m5 3v-1l-1 1-2 9 1-8-1-1-1 1-1 9 1 4 1-4v-1l-1 26c0 5 2 10-1 15v1c2 5 1 10 1 15l1 1v-1l1-21 1-37 1-8m56-50v1-1m-47-162 1 18 3 4c6 5 7 11 6 18-2 4-3 9-3 13l-1 13c0 5-3 10-7 14l-1 2h2c3-1 5-3 7-6l2-6c1-1 1-2 2-1l1 1v12l-1 1v-7l-1-2-1 2c-2 4-6 7-10 8-1 1-3 1-4-1s-1-2-3-1l-1 1c-4 0-4 1-3 4l2 3c3 3 6 7 8 12h1v-1c1-3 1-3 4-2 1 0 2 1 2-1h2c2 1 2-1 2-3v-3h2l1 1c1 1 3 2 0 2-2 1-2 3-1 4 2 1 3 0 4-1l2-10 2-13c0-1 0-3 2-1l11 14 1 2c1 6 4 11 7 17l2 4h1v-1l-2-7a94 94 0 0 0-11-31v-2l1 1 2 4 1 1 1-1-2-6v-2l1 2 2 8c0 1 0 2 1 1v-1c1-3 1-7-1-10l-2-8-5-22c-1-10-5-18-14-24l-15-13m38 114v1-1a4 4 0 0 0 0-1v1m-1-3v1l1 1-1-2m-1-2h1-1m-16-15h3c1 1 1 2 2 1 2 0 2-2 1-3l-5-7c-1-1-2-1-2 1l-3 11c-1 2 1 3 2 5h1v-1l-1-3 2-4m-3 17 1 3c0-1 1-3-1-3m0 0c0-2 1-3-1-4l1 4m-1-5v1-1m14-12c0 2 1 3 3 4h1c-1-3-3-6-2-10-3-1-4-3-6-5l-4-5h-1l-1 1 2 4 8 11m-16 17Zm0 10-1-2v2l1 1v-1m-3-1h-1v1a405 405 0 0 0 3 9v-1l-2-9m1-14h1v-1l-1 1m-11 0-1-1v1c1 2 0 5 2 6 1-2 0-4-1-6m1-2c0-1 0 0 0 0m4 7 2 2-2-3-4-6c0 3 2 5 4 7m2 3v1-2 1m-14-14v-3 3m3-21h1l5-8-1-1-1 1c-1 2-2 5-4 6l-1 1 1 1m11-42v-4l-3-6-1-1-1 2 3 16v1l1-1 1-7m-8-17v2l1-1-1-1m0 8v2l3 14 1 1v-2c0-6-2-11-3-17l-1-1v3m4 23-1 1 1 1v-2m-6-10-2-1c-3 3-6 1-9-1s-3-2-3 1l-1 3-1 1-1-1-1-7v-1l-1 2c0 13 4 26 6 39l1 1c1 1 1-1 1-1v-3c1-1 1-2 2-1h2c0-2 1-1 1 0l1 1 1-2c-1-4-1-4 3-5l1-1c0-2 2-3 3-4 4-3 5-4 3-8v3l-1-2-1-4c0-4-2-6-4-9m-16 28v1-1Zm-6-27v-3l-1-4v4c0 1-1 2 1 3m2-15v1l1-1v-1l-2-16-2-24-1-6-2-2-1 2v2c3 11 3 22 5 34l2 11m-1 35a1235 1235 0 0 0 2 10l1-2a3473 3473 0 0 0-2-18v-1l-1 1v10m8-29h1l-1-1v1m5-42 2 15c0 4 0 8 5 7 2 3 2 2 2-1l-3-15-4-7h-1l-1 1m-6-16v2c1 2 1 4 3 5l-2-5-1-2-1-1 1 1m-41 41v-1l2-14c1-7 3-13-2-19l1-1h1l4 7c3 4 3 9 3 14l-3 14c-1 3-1 4 3 4 5 1 8 4 8 9l1 3 1 15-1 1-1-1-1-7-1-2-1 2 1 8v4h-2l-1-2-1-6v7c0 1 0 3-3 2-3-2-4 0-4 3v22l2 2 2-2c0-1 1-2 2 0s1 2 2 0c0-1 0-2 2-2 1 1 1 2 2 0l2-2 5 1h5c1 1 3-1 5-1v-3l-1-9 1-7c0-4-1-7-3-10 0-1 0-4-1-3l-1 3-1 2-1-1-1-1v2l-2 3c-2 0-1-2-1-3l-4-24c-1-3-1-3 3-4l1-1 2 1 2 3 1 1v-4c1-1 2 0 2 1l1 2 1 1v-1l-2-10-1-3h-1 1l2 2 1 1v-8l-3-18c-1-5-3-10-6-13l-1-2h2l1 1c1 2 3 5 6 5 2 0 2 1 3 3l1 7 2 29v1-6l1-2c2 0 2 1 3 2 0 1-1 3 1 3 1 0 0-2 2-3h1c2-3 4-5 3-9-1-6-2-12-5-18-1-4-3-8-7-11l-1-1 2-1c2 0 4 0 6 2 1 1 2 0 2-1 0-2 0-3-2-3l-13 1c-5-1-9-2-13-6-3-2-3-3-6 1l-2 3c-7 9-13 19-22 26-2 2-1 6 1 6 2-1 3 0 3 1 2 5 6 9 9 14l1 1m29 20v1-1m-22-37v-5l-1-1-1 1-1 8-2 18v2l1-2c1-7 4-13 4-21m6 31 1 4h1v-4l-1-2-1 2m-12 0v-1l-1 1 1 2v-2m-2 88v-7l3-45v-16l-1 1-1 8-2 31c-1 9-2 19-1 28l1 2 1-2m4 28v1l1-1-1-2-2-24v-21l-1 4v30c0 5 2 9 3 13m8 37-4-19-3-11-2-1v2l7 27 3 5-1-3m-1-12h-1 1Zm1 4v-2l-1 1 1 1m2 5-1-2-1-3 1 3c0 1-1 2 1 2m12 14-2-3-10-10c0 4 2 7 4 11 1 3 5 2 7 4h1v-2m32 2c8-2 14-6 17-14l3-4 1-10-1-1v1l-1 6v2l-1-2v-6l-1-20-2-12c0-2-1-4-3-3-2 0 1 2 0 3v1h-1c-3-3-5-6-6-10l-7-15-1-4c0-3 0-6-2-8l-1 2-1-1-4-11-1-1v2l1 5-1 1v-1l-2-7-2-8-1-1v1l1 12 1 8v1l-1-1-1-2-2-13v-3l-1-1-1 1 1 5 2 9-1 2v-1l-2-9-3-4c-1-1-2-2-2 1 0 1-1 3-2 2h-8c-1 0-3-1-4 2l-2 1c-2-1-4 0-6 2l-3 1c-3 0-3 0-3 4v12c0 10 0 10 5 18v-6c2 0 2-1 2-2 0-2 1-2 2-1l2 2c1-2 2-1 3 0l2-1c0-1-2-3 0-4s3 1 4 3h1v-2l1-2 2 1 2 6v-7l1-1h1l2 4 6 18 1 2v-3a211 211 0 0 0-7-22l1-1h1l3 3 4 12 3 12v3l-1 3-2-2v-1l-2-2v2l-1 2-2-1-4-13-1-2 1 4 3 13v2l-2-1-2-4c-1-1 0-3-2-3l1 5-1 2c-1 1-2 0-2-1l-2-4-4-14-1-1v1l2 9 2 11c0 2 0 2-2 2h-1v1c0 1 1 2-1 2-1 1-2 0-2-2l-1-2-3-10c0-1 0-3-2-4l1 3c1 4 1 9 3 13l-1 2-2-1-1-4c-1 4 1 7 1 10-2 1-3-1-4-3 0 2 0 4-2 4l-1 2 2 4 5 14c2 3 4 7 8 6 2 0 2 1 2 2-1 2 0 3 1 4 2 1 3 3 2 6 0 1 0 3 2 4 4 0 9 2 13 0l15-4m-49-67 1 2v-2l-1-1v1m1 20v-2h-1l1 2m0 1 1 4-1-4m4-5-1-1v3l1-2m0-13v-1 2-1m17-8 2 4c0-2 1-3-2-4m-1 11 1 4c0-1 1-3-1-4m0-2v2-2m-1-3c0 1-1 2 1 2l-1-2m-1-3c0 1-1 2 1 3l-1-3m0-1-1-1 1 1m51 32-1-12-2-9-1-2v1l3 23c0 1-1 3 1 4v-5m-26 56c0-1 0-2-2-2l-1 2v39l1-2 2-28v-9m1-9h-1l1 1v-1m1 11v-2 4-2m2-15 1-2h-2l-5 2v2h1l5-2m6 85v-7c-1-16-5-33-4-49 0-9-3-17-1-25v-2l-1 2-1 5 1 18v17c0 14 2 28 5 41l1 1v-1m4-16-1-2-1 1 1 2 1-1m0-29-1-10-3-24-1-1-1 1v7c0 13 0 26 3 40v7l1 1 1-1 1-20m2-10v-21l-1-5c-1-2-1-3-3-3s-1 2-1 3v1l2 10a439 439 0 0 0 3 15m0 25-1 1h1v-1m3-62 1-3 2 2c2-3 1-7 4-10v-2l-2 1-4 9-7 5c-1 0-3 0-2 2 1 1 2 0 3-1s2-2 3-1c2 1 2-1 2-2m3 7-1-1-1 1c-2 1-1 3-1 5v35l1 1v-1l1-14 1-19v-7m2 12-1-2v3l1-1m3-20-2 1-1 6 1 1 1-1 1-5v-2m1-36c1 4 0 4 5 4 3 1 6 2 8 6 0 2 2 3 3 5h2c3-2 5-5 5-9-1-10-2-20-5-30-1-5-1-10-4-14-2 4-2 4-4 1-1-2-1-1-2 0 0 2-2 1-3 0l-1-4-1-1v1c1 3-2 4-4 4-1 1-1-1-2-2l-1-1c0-1 1-2-1-3l1 4v2c0 1 0 2-2 3-1 1-2 0-3-1l2 6c3 4 4 8 5 13 2 5 2 10 2 16m2 19-1-2 1 2m4 52-1-23v-2l-1 2-1 12 2 22 2 12v1l1-1v-2l-2-21m7-36c-1-4-2-8-5-11h-1v1c0 4 2 8 5 11h1v-1m1-10-2-9-1-2-3-1c-1-1-3-2 0-3l1-1c-2-2-4-3-6-2l-2 1v4c2 0 3 0 2 2l1 6 1 1v-5l1 1 6 8 2 1v-1m4 18-2-6-1-1v1l3 6m1-7-2-9h-1v1c1 2 1 6 3 8m1 3-1-3 1 3m1 3-1-3 1 3m1 1-1-1v2l1-1m3-6-1-10-1-7c0-2-2-1-4-1-1-1-2 1-2 3l3 7 1 1 1-2v2l2 17v1l1-1v-10m2 9v-12l-1-1v18l1 1v-6m3-7-1-1v30l1-1v-28M199 718Zm94-493-1-2a200 200 0 0 0-3-26l-1-3c-1-3-2-6-7-5-2 1-4 0-5-2l-4-3-7-4c-2-1-5-1-6-4l-4-1c-2 0-2 1-2 3-1 1 0 4-2 4-2 1-3-2-4-3l-3-4 1-1h2c1 1 0 4 2 4 2-1 1-3 1-4 1-2 2-3 5-3 4 0 8 1 11 4 2 2 5 2 7 2 5 0 9 1 13 4l16 16c2 1 2 4 2 7l-4 10-1 1-1-2 2-7v-5l-1-2-1 2-1 8v2c-4 4-2 9-4 14m-9-41c-2-3-6-3-9-4l-2 1 1 1a288 288 0 0 0 10 5v-3m5 4h-1l1 1h1l-1-1m5 14v-7l-1-2-2-1-1 3 2 8 1 4 1-4v-1m-1 23h1-1m-139-73c4 1 7 4 9 7l13 14 1 1v-1l-2-6c-4-8-12-13-20-18-7-4-15-4-22-4l-2 1-1 1h13c4 0 7 1 9 4l2 1m41 711h-22c-2 0-4 0-5-2l-2-1v2c1 3 2 4 4 4l11 1h5l10-2 1-1-2-1m-80-688 1-2c1-6 3-11 8-15 2-3 5-5 9-7v-1h-1l-5 2-1 1c-2 2-3 5-6 6v1-1c1-3 3-5 6-6l1-1 1-2c-1-1-1 0-2 1l-2 1c-7 5-7 14-9 21v2m72 109 1-1h-2l-12 2-1 1h1l13-2m32-131v-1c-1-5-2-11-5-16 1 6 4 11 4 16l1 1M6 646l-2-2-1 2 2 1 1-1m299-453-2-1-2 1 1 1 2 1 1-2M5 649H3l1 2 1 1 1-2-1-1m254-466-1-2-2 1v1h3m-30-22-2-5 2 5m78 44-1-2c-1 2-1 2 1 2m-1-2 1-1h-1v1m1-6h-1l1 1v-1m-23-2v-1l-2-1 1 2h1m-55-34 1 4-1-4m1 4v1-1m50 48 1-1-1-1-1 1 1 1m-26 90 1 1v-1l-1-1v1m-34-139h1l-1-1v1m54 27h2-2m-20-7h1l1-1h-1l-1 1m28 44v1-1m-2-11Zm0 1v-1 1m-15 80h-1v1l1-1m-7 9v1-1m48-100h2l-1-2-1 2m-21-9h1v-1l-1 1m0 0Zm1-1h-1v1l1-1m-4-1h-1 1m25-2h1v-1l-1 1m-26-2 1 1-1-1m-8 0 1-1h-1v1M212 77v-1 1m50 110h-1 1m-36-32 1 1-1-1m40 31h1-1m10 9c-1 0 0 0 0 0h1-1m1 0v1-1m0 2v-1 1m3 1h-1l1 1v-1m6 22v-1 1m-34 73v-1 1m28-64v-1h-1l1 1Zm-28 63h-1 1m1 0h-1 1m30-78Zm22-3h1v-1 1h-1Zm1-1h1-1m1 0v-1 1m0-1 1-1-1 1m1-1Zm0 0v-1 1m-2-1Zm2-6-1 1 1-1 1-1-1 1m1-1h1v-1l-1 1m-32-2Zm1-1-1 1 1-1m-1 0h1-1m-3 0c0 1 0 0 0 0m0 0v1-1m-17-10 1 1-1-1m0 0c0-1 0-1 0 0m1-6Zm-71 605h-1 1Zm24-206-6 5c-13 11-24 23-34 37l-12 17-1 1s-1 2-2 1l1-2 1-3c7-12 14-24 25-34l18-19c2-2 3-5 3-7 2-8 2-16-1-23v-4c2-1 2 1 3 3 4 8 4 17 2 26l2-1c1 0 2 2 1 3m-4 1c1 0 1 0 0 0M105 459l1 2 1-1-1-1h-1m-44 46-1 1v1l1-1v-1m9-2v1-2 1m39-39h1-1m-36 28v-1 1Zm275-96v-1 1-1 1m1 1-1-1-1-3-1-3c-1-1-1-3-4-4v6l3 6 5 18c1 2 1 4 4 5v-7l-3-12c-2-1-2-3-2-5m11 18-1-3-8-20c-1-2-1-4-3-3l-1 3v1l1 3 1 1c2 1 2 3 2 5l1 2 5 12c1 1 1 4 3 3v-4m-2-15 5 13 2 2 1-2-1-4-6-15-3-6-3-2c-2 1-1 3 0 4l5 10m11 65v-1h-1v1h1m-33-33v1h1v-1h-1m-10 23v1c1 1 1 0 1-1h-1m42-36h-1 1m-16 43v1h1l-1-1m-20-16 1 1v-1h-1Zm30 21s-1 0 0 0v1-1m-31-5s1 0 0 0v-1 1m-1-3h-1v1h1v-1m9-11h1-1m30-2c-1 0 0 0 0 0m-7-5v1-1c1 0 0 0 0 0m-32-4h1-1m-11-1h-1 1m33-2v-1 1m-15-6-1 1h1v-1m35-7h1-1s0 1 0 0m-8 6Zm-16 3v1-1Zm-16 1v1-1m20 2-1-1v1h1m-15 2v1-1m35 2Zm-26 2v1-1m-2 3v1-1m-19 12 1 1-1-1m34 2v1-1Zm0 7v1-1m-6 5Zm-6 1Zm1-1-1 1 1-1m0 0Zm-10-6Zm31-1h-1 1m6-3v-1 1m0-1v1-1m-30-14h-1 1m0 0h1-1Zm-22-5 1-1-1 1m-5-3-1-1 1 1m48-4Zm-2-1Zm-22-3Zm11-2h1-1m-246-21-2 3v1l1-1 1-2v-1m26-32h-1l1 1h1l-1-1m9-9v1h1l-1-1m-8 16h1l-1-1v1m-10 2 1-1h-1v1m-20 30v-1 1m17-56-1-1v1h1m27-24h1-1m-6 19v1-1m-7-13v1l1-1h-1m15 10v1s1 0 0 0v-1m-18-3s0 1 0 0m18-8v-1h-1l1 1m-25 16h1l-1-1v1Zm-30 58v-1 1Zm26-45h1-1m12 32v1-1m-18-29v-1 1Zm20 0v-1 1Zm14 1h1-1m-36 6h1-1m28 9Zm6-41Zm2 7h-1 1m-1 0Zm0 0Zm-22 51Zm-16-28v-1h1-1v1Zm7 0Zm4 13Zm-4-4Zm84 26h-1l1 1 9-3h1l-2-1-8 3m9-6-9 2v1h1l9-2h1l-2-1m-9 0 7-2-1-1-7 2v1h1M29 624v15c2 0 3-2 3-4l-1-22-1-11-1-2-1 2 1 22m26 34 1-1-1-2-1 1 1 2m-28 5v-1c0-1 0-1 0 0h-1l1 1m25-1v1l2-1-2-1v1m1 6h-1v1l1-1m-8-5v-1h-1l1 1m13-13-1-1v1h1m-23 0v-1l-1 1h1m-16-6c0 1 0 1 0 0m1-6-1-1 1 1m10 5h-1l2 1-1-1m-4 1h-1 1m26 6v-1 1m-19 5v-1l-1 1h1m6 7 1-1h-1v1m10 5c0-1 0-1 0 0m-16 0v1l1-1h-1c0-1 0 0 0 0m3 1s0-1 0 0m16 4v-1 1m6 1v-1l-1 1h1m-35 6v1-1m22-7v-1h-1l1 1m9-2Zm-32-2v1l1-1h-1m42-3v2l1-1-1-1c1 0 1 0 0 0m-32-6v-1 1m19-2Zm-2-2v-1 1m6-3v1-1Zm-35-4v-1 1m11-4c1 0 1 0 0 0m2-3h-1 1m24 6h-1 1Zm-26 3Zm0 3Zm28 3v-1 1m0 0c0-1 0-1 0 0m-27 2Zm30 9c-1 0-1 0 0 0m-14 2c0-1 0 0 0 0m0 0 1-1v-1 1l-1 1m0 8v1-1Zm158-339c1-2 0-3-2-2l-12 2-1 1h8l-2 1-6 2-1 2c0 2 1 2 2 1l10-2h5c1-2-1-4-1-5m23 26c-1-2-3 0-4 0h-1l-1-1h1l1-1 4-1h-4l-6 2c-1 0-2 1-1 2h7l4-1m8 5h-1l-9 1-3 1 1 1 11-2 1-1m-7-3h-1l-4-1-5 2h-1l1 1 9-1 1-1m-7 5h1-1m4-1v-1h-5l-1 1h1l1 1c1-2 3-1 4-1m1-2-1 1h1v-1m94-111h-1 1m20 16h-1v1l1-1Zm-17-4h-1 1m-25 6ZM191 6l-3 5 4 6h4c1 0 2-1 1-3l-5-8h-1m10 29c-3 2-2 5 0 8l3 1c2-1 2-2 2-3 0-3-1-4-3-6h-3m0-14-1 1 2 6h4c1 0 2-1 1-2 0-2-4-5-6-5m-10 4-2-1c-2 1-3 3-2 5s3 4 4 3c2 0 2-2 1-5l-1-2m22 5c-2 0-2 2-2 3 0 2 1 4 3 4s3-1 3-2c0-3-3-5-4-5m-30-17c-2 0-1 2-1 2l1 2 1-2-1-2m5-5-1-1-1 2v1l2-2m-5-1h1-1m27 4h-1v1h1v-1m-26 1-1 1 1-1m-4 18v1h1v-1h-1m18 1Zm-5 709v1-1Zm-81-398 1-1h-1v1m-17 37h1v-1h-1v1m39-65h1-1m-24 37v-1 1m-3 3h-1 1m30-44h-1v1l1-1Zm-31 50v1-1Zm288 69c1 1 2 0 2-1h-2v1m-14-26h1v-1l-1 1m20 35h-1 1m-2-6v-1l-1 1h1m3-8h-1v1h1v-1m-6 0v1-1Zm-9-1h-1l1 1v-1m10-9h-1 1Zm7 20v1-1Zm-5 0c-1 0-1 0 0 0v1-1m-10-1v1-1Zm10-2Zm-1-4-1 1 1-1m0 0Zm1-10Zm-6 1-1-1 1 1Zm7-5c0 1 0 0 0 0m0 0h-1 1M230 227l-1 2h2l2-1c0-2-2-1-3-1M85 659l-1 1 2 2v-1l-1-2m-4-22v1l1-1h-1m-1 11v1-1Zm1 1h-1 1m0 1v-1 1m-1 6c0 1 0 1 0 0m90-284 2-1h2l1-1 3-2 1-3h-2l-2 1-2 1h-1l-4 3s-2 1-1 2c0 2 2 1 3 0m-51 88h-1 1Zm43 234h1-1m29 129v-1l-1 1h1m-1 4 2 1-2-1m2 1Zm-2-1Zm8 1h1-1ZM45 703v-1 1m0 0v1-1m9 19Zm22-13v-1 1m0 4v-4 4m6 24c0-1 0-1 0 0v2l1-1-1-2m-1-6v1l1 1v-1l-1-1m-4-12v-1 1m176-473h-1l1 2h1l-1-2m-4-6h-1s-1 0 0 0l1 1v-1m-1 4h1-1m1 0v-1 1m6 2v-1 1ZM139 690h1-1Zm-35 91h-1v1h1v-1m12 7Zm0 1h1l-1-1v1m-1 2s0 1 0 0m-2 11Z" fill="#050503"/>
    </g>
  </g>
</svg>
